<svg xmlns="http://www.w3.org/2000/svg" id="eLU9XPKhApY1" shape-rendering="geometricPrecision" text-rendering="geometricPrecision" viewBox="0 0 1200 1045"><style>@keyframes eLU9XPKhApY12_f_p{0%,57.333333%,71.133333%,to{fill:#a832f3}64.466667%{fill:#c473f5}}@keyframes eLU9XPKhApY13_f_p{0%,20%,33.333333%,51.333333%,66.666667%,to{fill:#a832f3}26.666667%,59.333333%{fill:#d69ef6}}@keyframes eLU9XPKhApY14_f_p{0%,10%,30%,75.333333%,95.333333%,to{fill:#a832f3}23.333333%,88.666667%{fill:#d69ef6}}@keyframes eLU9XPKhApY18_f_p{0%,13.333333%,44.666667%,58%,to{fill:#a832f3}51.333333%,6.666667%{fill:#d69ef6}}@keyframes eLU9XPKhApY20_f_p{0%,26.666667%,40%,58.666667%,84.666667%,to{fill:#a832f3}33.333333%,65.333333%{fill:#d69ef6}}@keyframes eLU9XPKhApY22_f_p{0%,47.333333%,76.666667%,to{fill:#a832f3}54%{fill:#d69ef6}}@keyframes eLU9XPKhApY23_f_p{0%,2%,32%,73.333333%,86.666667%,to{fill:#a832f3}25.333333%,80%{fill:#d69ef6}}@keyframes eLU9XPKhApY26_f_p{0%,38%,51.333333%,74.666667%,96%,to{fill:#a832f3}44.666667%,81.333333%{fill:#d69ef6}}@keyframes eLU9XPKhApY28_f_p{0%,11.333333%,35.333333%,64%,77.333333%,to{fill:#a832f3}18%,70.666667%{fill:#d69ef6}}@keyframes eLU9XPKhApY32_f_p{0%,86.666667%,to{fill:#a832f3}93.333333%{fill:#d69ef6}}@keyframes eLU9XPKhApY33_f_p{0%,23.533333%,37.533333%,82.866667%,96.866667%,to{fill:#a832f3}30.666667%,90%{fill:#c473f5}}@keyframes eLU9XPKhApY34_f_p{0%,47.533333%,61.333333%,78%,94%,to{fill:#a832f3}54.666667%,86%{fill:#c473f5}}@keyframes eLU9XPKhApY36_f_p{0%,12.666667%,51.333333%,65.133333%,to{fill:#a832f3}58.466667%,6%{fill:#c473f5}}@keyframes eLU9XPKhApY37_f_p{0%,26.666667%,40.466667%,66.2%,80%,to{fill:#a832f3}33.8%,73.333333%{fill:#c473f5}}@keyframes eLU9XPKhApY39_f_p{0%,11.333333%,25.133333%,to{fill:#a832f3}18.466667%{fill:#c473f5}}@keyframes eLU9XPKhApY42_f_p{0%,20.666667%,41.333333%,56%,6%,to{fill:#a832f3}13.133333%,48.466667%{fill:#c473f5}}@keyframes eLU9XPKhApY100_tr__tr{.066667%,0%{transform:translate(412.393478px,177.303503px) rotate(0deg)}99.266667%{transform:translate(412.393478px,177.303503px) rotate(5347.164777deg)}to{transform:translate(412.393478px,177.303503px) rotate(7200deg)}}@keyframes eLU9XPKhApY103_to__to{0%,to{transform:translate(515.075498px,184.977447px)}39.333333%{transform:translate(515.075498px,162.977447px)}}@keyframes eLU9XPKhApY103_ts__ts{0%,to{transform:scale(.571273,.571273)}47.333333%{transform:scale(.72,.68)}}@keyframes eLU9XPKhApY104_to__to{0%,to{transform:translate(556.676856px,128.068221px)}55.333333%{transform:translate(556.676856px,85.068221px)}}@keyframes eLU9XPKhApY104_ts__ts{0%,44%,to{transform:scale(.940812,.940812)}}</style><g transform="translate(-474.518 -6.913) scale(2.82014)"><path fill="#a832f3" d="M288.176 362.837s19.281-45.997 18.377-62.357c-.911-16.361-15.434-1.817-21.791 25.453 0 0 8.624-57.263-7.262-61.809-15.893-4.546-20.428 49.356-20.428 49.356s-5.019-46.149-15.899-39.824c-10.886 6.325 0 39.69 0 39.69s-10.899-21.499-19.294-18.318c-8.389 3.182 4.484 36.477 4.484 36.477s-3.56-8.754-11.625-5.113c-8.064 3.634 4.383 23.603 4.383 23.603s-8.529-8.008-11.084 0c-2.554 8.009 7.886 12.848 7.886 12.848h72.253v-.006Z"/><path fill="#a832f3" d="M288.176 362.837s19.281-45.997 18.377-62.357c-.911-16.361-15.434-1.817-21.791 25.453 0 0 8.624-57.263-7.262-61.809-15.893-4.546-20.428 49.356-20.428 49.356s-5.019-46.149-15.899-39.824c-10.886 6.325 0 39.69 0 39.69s-10.899-21.499-19.294-18.318c-8.389 3.182 4.484 36.477 4.484 36.477s-3.56-8.754-11.625-5.113c-8.064 3.634 4.383 23.603 4.383 23.603s-8.529-8.008-11.084 0c-2.554 8.009 7.886 12.848 7.886 12.848h72.253v-.006Z" opacity=".2"/><path fill="#a832f3" d="M527.151 173.962s5.752-18.114 18.912-17.624c0 0-1.051 20.869-18.912 17.624Z"/><path fill="#a832f3" d="M527.151 173.962s15.574-1.441 22.231 5.483c.006 0-12.975 13.007-22.231-5.483ZM471.46 270.392s-2.299-25.472-11.867-34.832c.007 0-2.681 27.742 11.867 34.832Z"/><path fill="#a832f3" d="M471.46 270.392s-12.873-13.09-28.74-16.431c0 0 7.478 18.496 28.74 16.431Z"/><path fill="#1a2e35" d="m546.178 298.803-14.842 3.902-12.911-6.695 21.549-9.857 28.454-.077-27.015-3.334 2.86-16.744 7.963-4.794-8.281 2.659-3.981-11.745 2.095 13.16-3.019 17.655-23.893 9.468-21.702-4.507 38.652-113.665-12.383-36.005 20.759-18.694.211-.185 21.829-1.728-21.479-.44-.433-16.915 3.019-13.919-5.268 13.492-.044.114-.007.217-.439 17.311-20.052 15.226-3.268-9.513 23.842-60.208 12.822-13.033 8.587-3.073-8.077.829V28.64l8.077-13.97-10.179 13.026-.198.255v20.461l-10.484 8.167-8.045-18.783 4.236 18.77L508.45 104.7l-16.67-30.892 2.834-26.454 6.166-7.02-6.949 4.916-6.956-10.807-3.35-17.872 1.051 17.1-11.925-.605 12.428 2.824 7.21 11.21-5.42 24.145-23.607-10.074-13.287-12.204 11.001 12.994-7.415 5.471 9.039-4.017 23.836 11.955.044.128 15.396 41.061-2.108 3.806-17.677-8.008-5.828-11.324 3.542 11.381-7.574 1.83 8.657.128 18.657 12.752 13.797 40.462-46.099 97.431-139.39 35.877-103.503 72.087H351.6l45.461-48.273 81.635-28.309h35.486l15.708 8.142-2.089 9.558-10.905 6.414 11.587-4.336 2.713 3.201-1.216-4.514 2.21-10.119 13.988-5.942Z"/><path fill="#121931" d="m531.33 302.699 14.854-3.89-13.994 5.936-2.21 10.119 1.216 4.508-2.713-3.195-11.587 4.33 10.899-6.408 2.089-9.558-15.702-8.148h-35.479l-81.636 28.315-45.474 48.273H224.35l103.503-72.087 139.39-35.871 46.092-97.431-13.797-40.468-18.644-12.752-8.669-.128 7.573-1.829-3.541-11.382 5.828 11.324 17.689 8.008 2.108-3.8-15.402-41.067-.044-.128L462.6 63.41l-9.045 4.023 7.427-5.47-11.007-12.995 13.287 12.204 23.607 10.074 5.42-24.146-7.21-11.202-12.428-2.838 11.925.612-1.058-17.093 3.363 17.871 6.956 10.801 6.943-4.916-6.166 7.014-2.828 26.46L508.45 104.7l26.683-48.139-4.236-18.758 8.045 18.77 10.491-8.167v-20.46l.191-.249 10.179-13.032-8.077 13.982v19.058l8.077-.823-8.58 3.067-12.835 13.04-23.836 60.201 3.274 9.513 20.046-15.232.439-17.298.013-.217.045-.115 5.267-13.504-3.032 13.925.44 16.909 21.479.44-21.829 1.734-.204.185-20.772 18.701 12.383 36.005-38.64 113.658 21.69 4.514 23.905-9.475 3.007-17.661-2.089-13.154 3.981 11.745 8.287-2.659-7.962 4.795-2.873 16.749 27.014 3.329-28.447.07-21.556 9.87 12.912 6.682Z"/><path d="m531.33 302.699 14.854-3.89-13.994 5.936-2.21 10.119 1.216 4.508-2.713-3.195-11.587 4.33 10.899-6.408 2.089-9.558-15.701-8.148h-35.48l-81.635 28.315-45.474 48.273h-67.871l68.724-58.576 97.528-29.789-92.458 31.102-42.155 42.031 49.054-40.896 108.236-34.946-7.803-.619 14.663-5.126 22.657-51.588-16.517 56.115 39.034-107.499-9.58-31.848 3.656 20.391-12.23-37.185 29.792-64.008 15.402-12.963v.128l8.077-.823-8.58 3.067-12.835 13.04-23.836 60.201 3.274 9.513 20.046-15.232.439-17.298.013-.217.045-.115 5.268-13.504-3.033 13.925.44 16.909 21.479.44-21.829 1.734-.204.185-20.772 18.701 12.383 36.005-38.639 113.658 21.689 4.514 23.906-9.475 3.006-17.661-2.089-13.154 3.981 11.745 8.287-2.659-7.962 4.795-2.873 16.749 27.014 3.328-28.447.071-21.556 9.87 12.912 6.682Z" opacity=".2"/><path fill="#a832f3" d="M551.045 265.246a3.658 3.658 0 0 0 3.656-3.66 3.657 3.657 0 1 0-7.313 0 3.658 3.658 0 0 0 3.657 3.66Z" style="animation:eLU9XPKhApY12_f_p 15000ms linear infinite normal forwards"/><path fill="#a832f3" d="M562.02 119.039a3.659 3.659 0 0 1-3.657 3.66c-2.019 0-3.656-1.639-3.656-3.66s1.637-3.66 3.656-3.66a3.663 3.663 0 0 1 3.657 3.66Z" style="animation:eLU9XPKhApY13_f_p 15000ms linear infinite normal forwards"/><path fill="#a832f3" d="M546.095 91.253c0 2.02-1.637 3.66-3.656 3.66s-3.656-1.64-3.656-3.66 1.637-3.66 3.656-3.66 3.656 1.639 3.656 3.66Z" style="animation:eLU9XPKhApY14_f_p 15000ms linear infinite normal forwards"/><path fill="#a832f3" d="M474.664 115.379c0 2.022-1.637 3.66-3.656 3.66s-3.656-1.638-3.656-3.66c0-2.021 1.637-3.659 3.656-3.659s3.656 1.638 3.656 3.659ZM478.321 102.054a3.658 3.658 0 1 1-7.313 0 3.658 3.658 0 0 1 3.656-3.66 3.658 3.658 0 0 1 3.657 3.66ZM456.096 68.981c0 2.022-1.637 3.66-3.656 3.66s-3.656-1.638-3.656-3.66 1.637-3.66 3.656-3.66 3.656 1.64 3.656 3.66Z"/><path fill="#a832f3" d="M452.44 48.98c0 2.021-1.637 3.66-3.656 3.66s-3.656-1.639-3.656-3.66 1.637-3.66 3.656-3.66 3.656 1.639 3.656 3.66Z" style="animation:eLU9XPKhApY18_f_p 15000ms linear infinite normal forwards"/><path fill="#a832f3" d="M471.008 38.447c2.019 0 3.656-1.639 3.656-3.66s-1.637-3.66-3.656-3.66-3.656 1.639-3.656 3.66 1.637 3.66 3.656 3.66Z"/><path fill="#a832f3" d="M482.786 23.107c2.019 0 3.656-1.64 3.656-3.66s-1.637-3.66-3.656-3.66-3.656 1.638-3.656 3.66 1.637 3.66 3.656 3.66Z" style="animation:eLU9XPKhApY20_f_p 15000ms linear infinite normal forwards"/><path fill="#a832f3" d="M501.296 42.107c0 2.021-1.637 3.66-3.656 3.66s-3.656-1.639-3.656-3.66 1.637-3.66 3.656-3.66 3.656 1.639 3.656 3.66Z"/><path fill="#a832f3" d="M534.464 39.984a3.658 3.658 0 0 1-3.656 3.66c-2.02 0-3.657-1.64-3.657-3.66s1.637-3.66 3.657-3.66a3.658 3.658 0 0 1 3.656 3.66Z" style="animation:eLU9XPKhApY22_f_p 15000ms linear infinite normal forwards"/><path fill="#a832f3" d="M562.02 17.687a3.658 3.658 0 0 1-3.657 3.66c-2.019 0-3.656-1.639-3.656-3.66s1.637-3.66 3.656-3.66a3.663 3.663 0 0 1 3.657 3.66Z" style="animation:eLU9XPKhApY23_f_p 15000ms linear infinite normal forwards"/><path fill="#a832f3" d="M562.02 48.98a3.658 3.658 0 0 1-3.657 3.66c-2.019 0-3.656-1.639-3.656-3.66s1.637-3.66 3.656-3.66a3.663 3.663 0 0 1 3.657 3.66ZM551.42 29.565c0 2.021-1.637 3.66-3.656 3.66s-3.656-1.639-3.656-3.66 1.637-3.66 3.656-3.66 3.656 1.64 3.656 3.66Z"/><path fill="#a832f3" d="M499.093 80.681a3.658 3.658 0 0 1-3.657 3.66 3.658 3.658 0 0 1-3.656-3.66 3.658 3.658 0 0 1 3.656-3.66 3.658 3.658 0 0 1 3.657 3.66Z" style="animation:eLU9XPKhApY26_f_p 15000ms linear infinite normal forwards"/><path fill="#a832f3" d="M476.696 65.322c0 2.02-1.637 3.66-3.656 3.66s-3.656-1.64-3.656-3.66 1.637-3.66 3.656-3.66a3.65 3.65 0 0 1 3.656 3.66Z"/><path fill="#a832f3" d="M488.124 58.372c2.019 0 3.656-1.639 3.656-3.66s-1.637-3.66-3.656-3.66c-2.02 0-3.657 1.639-3.657 3.66s1.637 3.66 3.657 3.66Z" style="animation:eLU9XPKhApY28_f_p 15000ms linear infinite normal forwards"/><path fill="#a832f3" d="M491.78 113.906a3.658 3.658 0 1 1-7.313 0 3.658 3.658 0 1 1 7.313 0ZM532.757 131.338a3.658 3.658 0 1 1-7.313 0 3.657 3.657 0 1 1 7.313 0ZM523.495 80.681c0 2.021-1.637 3.66-3.656 3.66s-3.656-1.638-3.656-3.66c0-2.02 1.637-3.66 3.656-3.66s3.656 1.64 3.656 3.66Z"/><path fill="#a832f3" d="M541.923 67.738c0 2.021-1.637 3.66-3.656 3.66s-3.656-1.639-3.656-3.66 1.637-3.66 3.656-3.66 3.656 1.639 3.656 3.66Z" style="animation:eLU9XPKhApY32_f_p 15000ms linear infinite normal forwards"/><path fill="#a832f3" d="M570.893 287.339a3.658 3.658 0 0 1-3.656 3.66c-2.02 0-3.657-1.639-3.657-3.66s1.637-3.66 3.657-3.66a3.658 3.658 0 0 1 3.656 3.66Z" style="animation:eLU9XPKhApY33_f_p 15000ms linear infinite normal forwards"/><path fill="#a832f3" d="M542.439 253.228a3.657 3.657 0 1 1-7.313 0 3.658 3.658 0 1 1 7.313 0Z" style="animation:eLU9XPKhApY34_f_p 15000ms linear infinite normal forwards"/><path fill="#a832f3" d="M547.726 299.919a3.659 3.659 0 0 1-3.657 3.66c-2.019 0-3.656-1.639-3.656-3.66s1.637-3.66 3.656-3.66a3.659 3.659 0 0 1 3.657 3.66Z"/><path fill="#a832f3" d="M531.279 324.147a3.658 3.658 0 0 0 3.657-3.659 3.658 3.658 0 1 0-7.313 0 3.657 3.657 0 0 0 3.656 3.659Z" style="animation:eLU9XPKhApY36_f_p 15000ms linear infinite normal forwards"/><path fill="#a832f3" d="M515.705 325.289s3.656-1.639 3.656-3.66-1.637-3.66-3.656-3.66-3.656 1.639-3.656 3.66 1.637 3.66 3.656 3.66Z" style="animation:eLU9XPKhApY37_f_p 15000ms linear infinite normal forwards"/><path fill="#a832f3" d="M531.279 306.728c0 2.021-1.637 3.66-3.656 3.66s-3.656-1.639-3.656-3.66 1.637-3.66 3.656-3.66 3.656 1.639 3.656 3.66Z"/><path fill="#a832f3" d="M546.095 287.339c0 2.021-1.637 3.66-3.656 3.66s-3.656-1.639-3.656-3.66 1.637-3.66 3.656-3.66 3.656 1.639 3.656 3.66Z" style="animation:eLU9XPKhApY39_f_p 15000ms linear infinite normal forwards"/><path fill="#a832f3" d="M540.197 270.283a3.658 3.658 0 0 1-3.656 3.66c-2.02 0-3.657-1.639-3.657-3.66s1.637-3.66 3.657-3.66a3.658 3.658 0 0 1 3.656 3.66ZM517.571 290.999c0 2.021-1.637 3.66-3.656 3.66s-3.656-1.639-3.656-3.66 1.637-3.66 3.656-3.66 3.656 1.639 3.656 3.66Z"/><path fill="#a832f3" d="M500.972 299.919a3.659 3.659 0 0 1-3.657 3.66c-2.019 0-3.656-1.639-3.656-3.66s1.637-3.66 3.656-3.66a3.659 3.659 0 0 1 3.657 3.66Z" style="animation:eLU9XPKhApY42_f_p 15000ms linear infinite normal forwards"/><path fill="#cc9cf2" d="M197.495 372.994s-6.357-5.261-6.357-16.176c0-10.916 12.256 6.714 12.256 6.714s-9.854-32.786 2.108-41.878c11.963-9.092 10.217 38.02 10.217 38.02s14.008-39.62 24.448-34.953c10.44 4.661-8.867 37.006-8.867 37.006s25.212-20.498 35.199-15.971c9.988 4.526-16.535 22.252-16.535 22.252s10.72.376 14.083 4.979h-66.552v.007ZM322.35 372.994s-8.504-5.375-8.338-10.629c.165-5.254 13.236 5.317 13.236 5.317s-6.427-20.926 3.191-23.699c9.619-2.774 8.115 18.012 8.115 18.012s9.504-19.555 19.129-16.08-1.522 20.805-1.522 20.805 11.968-4.986 16.548-4.98-4.605 8.059-12.72 11.26H322.35v-.006Z"/><path fill="#cc9cf2" d="M197.495 372.994s-6.357-5.261-6.357-16.176c0-10.916 12.256 6.714 12.256 6.714s-9.854-32.786 2.108-41.878c11.963-9.092 10.217 38.02 10.217 38.02s14.008-39.62 24.448-34.953c10.44 4.661-8.867 37.006-8.867 37.006s25.212-20.498 35.199-15.971c9.988 4.526-16.535 22.252-16.535 22.252s10.72.376 14.083 4.979h-66.552v.007Z" opacity=".2"/><path fill="#a832f3" d="M322.35 372.994s-8.504-5.375-8.338-10.629c.165-5.254 13.236 5.317 13.236 5.317s-6.427-20.926 3.191-23.699c9.619-2.774 8.115 18.012 8.115 18.012s9.504-19.555 19.129-16.08-1.522 20.805-1.522 20.805 11.968-4.986 16.548-4.98-4.605 8.059-12.72 11.26H322.35v-.006Z"/><path fill="#121931" d="M311.146 308.596a1.884 1.884 0 0 0-.16 1.04c.045.408.325.809.758 1.084.561.35 1.268.446 1.816.484.465.038.943.019 1.344 0a24.045 24.045 0 0 0 1.65-.159 50.424 50.424 0 0 0 1.911-.293l.528-.083.465-.077c2.134-.344 4.415-.688 6.708-.79 1.834-.064 3.427.063 4.86.376l.197.051c-1.261-.243-2.707-.332-4.42-.294a14.92 14.92 0 0 0-1.822.115c-.554.07-1.108.16-1.656.262a46.25 46.25 0 0 0-4.51 1.007c-.835.236-1.586.485-2.3.752-.707.268-1.312.555-1.847.868-.579.344-.968.663-1.274 1.039a1.92 1.92 0 0 0-.337.586 1.714 1.714 0 0 0-.07.727c.012.192.082.402.21.631.14.236.318.447.554.664.255.229.509.401.79.529.274.127.611.197 1.038.217.338.025.726 0 1.217-.077.471-.064.911-.178 1.337-.287a27.56 27.56 0 0 0 2.816-.982c.509-.204 1.013-.421 1.522-.637l.249-.109.707-.299c.834-.357 1.694-.638 2.503-.893 1.936-.612 4.242-1.25 6.707-1.345a14.64 14.64 0 0 1 2.841.21l-.165.344-.14.389-.268.753c-.178.484-.35.962-.522 1.447-.567 1.607-1.16 3.322-1.567 5.062-.14.644-.281 1.339-.287 2.034-.006.625.147 1.078.44 1.339.184.16.42.268.758.338.267.058.567.051.86-.032.465-.14.879-.491 1.261-1.09.114-.178.21-.37.293-.561.089-.198.159-.395.229-.593a11.4 11.4 0 0 0 .401-1.486c.204-1.026.338-2.136.414-3.5a29.15 29.15 0 0 0 .019-3.169c-.019-.408-.05-.822-.101-1.23a6.453 6.453 0 0 0-.102-.644c.726-1.135 1.675-2.64 2.548-4.132a112.494 112.494 0 0 0 2.318-4.234 120.622 120.622 0 0 0 2.096-4.284c.165-.37.312-.689.452-1.008.484-1.103.936-2.231 1.382-3.347a76.202 76.202 0 0 0 1.625-4.54c.528-1.683.961-3.175 1.325-4.559a68.793 68.793 0 0 0 1.745-9.423c.229-2.009.459-4.387.401-6.842a1.424 1.424 0 0 0-.446-1.001 1.429 1.429 0 0 0-1.012-.408c-.37.007-.733.166-.988.421a1.369 1.369 0 0 0-.28.395c-.077.173-.115.37-.134.638-.051.701-.095 1.409-.14 2.11-.038.676-.083 1.352-.127 2.028a136.16 136.16 0 0 1-.357 3.934 89 89 0 0 1-.777 5.464c-.363 2.034-.688 3.73-1.102 5.394a82.524 82.524 0 0 1-3.312 10.38 88.194 88.194 0 0 1-.956 2.296 78.822 78.822 0 0 1-1.815 3.857 73.777 73.777 0 0 1-3.032 5.503c-.128-.275-.344-.581-.612-.899a11.039 11.039 0 0 0-1.312-1.327c-.815-.714-1.822-1.364-3.064-1.989-1.025-.51-2.178-.937-3.529-1.294a28.085 28.085 0 0 0-3.777-.708 26.105 26.105 0 0 0-3.656-.166c-.905.013-2.083.058-3.217.281-.879.172-1.777.465-2.669.873a9.77 9.77 0 0 0-2.077 1.295 5.29 5.29 0 0 0-1.153 1.249 1.053 1.053 0 0 0-.203.325ZM361.442 313.295c-.064.377-.032.727.095 1.046.14.383.516.708 1 .861.631.204 1.338.121 1.879.025.465-.076.917-.21 1.306-.331a21.595 21.595 0 0 0 1.561-.561c.598-.236 1.191-.498 1.777-.753l.49-.216.433-.192c1.988-.86 4.109-1.753 6.307-2.416 1.764-.51 3.337-.784 4.802-.829h.204c-1.28.076-2.707.344-4.357.803-.694.185-1.229.357-1.739.561-.516.204-1.032.428-1.541.663a46.983 46.983 0 0 0-4.121 2.092c-.746.433-1.415.861-2.045 1.294-.618.434-1.134.861-1.58 1.294-.478.479-.777.88-.974 1.32a2.02 2.02 0 0 0-.172.529 1.788 1.788 0 0 0 .095.842c.057.185.178.37.357.561.197.191.42.351.7.504.3.159.593.261.892.319.3.051.644.038 1.058-.045.337-.057.707-.178 1.165-.37.44-.178.841-.395 1.23-.605.962-.555 1.834-1.174 2.49-1.645.446-.326.879-.657 1.319-.995l.21-.166.612-.465c.719-.555 1.484-1.04 2.203-1.486 1.727-1.065 3.803-2.251 6.166-2.958.95-.262 1.899-.434 2.81-.498l-.077.376-.038.415-.077.791-.152 1.53c-.16 1.696-.306 3.507-.274 5.292.025.663.057 1.364.223 2.04.146.606.401 1.008.758 1.186.216.108.471.153.815.147.28-.007.56-.09.822-.243.42-.248.732-.695.955-1.364.064-.198.108-.408.147-.619.031-.21.057-.42.076-.631.038-.421.045-.899.019-1.543-.051-1.045-.197-2.155-.458-3.494a30.067 30.067 0 0 0-.758-3.079 15.615 15.615 0 0 0-.402-1.167c-.095-.236-.165-.421-.255-.599.427-1.282.969-2.972 1.453-4.636.446-1.587.841-3.118 1.21-4.673.318-1.358.637-2.889.975-4.674.07-.402.133-.746.191-1.09.197-1.186.356-2.391.516-3.584a69.95 69.95 0 0 0 .452-4.801c.095-1.759.146-3.315.159-4.743a68.32 68.32 0 0 0-.624-9.564c-.268-2.002-.637-4.361-1.293-6.727a1.375 1.375 0 0 0-.675-.854 1.393 1.393 0 0 0-1.077-.141 1.422 1.422 0 0 0-.853.657c-.09.147-.147.3-.172.453-.032.185-.02.382.025.65.121.695.255 1.39.382 2.079.128.669.255 1.332.376 1.995.229 1.32.44 2.634.618 3.896.255 1.83.452 3.679.592 5.49.153 2.059.249 3.787.255 5.502a82.916 82.916 0 0 1-.656 10.878 70.237 70.237 0 0 1-.363 2.461 78.632 78.632 0 0 1-.809 4.182 71.377 71.377 0 0 1-1.586 6.083c-.191-.236-.471-.478-.815-.72a11.386 11.386 0 0 0-1.599-.963c-.968-.491-2.102-.874-3.459-1.167-1.121-.242-2.344-.37-3.739-.389a27.526 27.526 0 0 0-3.835.249c-1.216.166-2.42.414-3.586.739-.873.236-2.006.568-3.051 1.072-.815.382-1.612.886-2.37 1.504a9.848 9.848 0 0 0-1.694 1.766 5.26 5.26 0 0 0-.809 1.499 1.285 1.285 0 0 0-.095.35Z"/><path fill="#a832f3" d="M274.156 118.166a7.846 7.846 0 0 0-2.191.624 12.57 12.57 0 0 0-2.86 1.747 12.15 12.15 0 0 0-3.529 4.668c-.344.822-.63 1.728-.872 2.76-.484 2.06-.446 4.19-.357 5.815.095 1.792.395 3.679.968 6.128.153.65.338 1.294.516 1.938l.064.223c.21.759.446 1.511.7 2.257.395 1.18.765 2.213 1.122 3.15a.483.483 0 0 0-.166.134c-.096.115-.172.306-.14.465.114.536.286 1.071.452 1.594l.147.453c.159.504.318 1.001.496 1.492a25.096 25.096 0 0 0-3.369-2.429c-.675-.408-1.484-.861-2.325-1.148a11.267 11.267 0 0 0-1.312-.351c-.44-.083-.899-.102-1.287-.114a3.923 3.923 0 0 0-.612.031 4.244 4.244 0 0 0-1.471.479c-.58.312-1.064.835-1.433 1.549a4.79 4.79 0 0 0-.185.414c-1.064 1.378-1.796 3.144-2.172 5.235-.382 2.117-.389 4.438-.038 7.307.255 2.072.707 4.304 1.427 7.026a42.308 42.308 0 0 0 2.904 7.843c2.077 4.252 4.841 8.32 8.211 12.089 1.796 2.002 3.516 3.666 5.255 5.081a27.44 27.44 0 0 0 2.892 2.034c.369.23.739.453 1.108.67a5.444 5.444 0 0 0-1.522 1.109c-.408.414-.663.918-.803 1.275-.197.497-.286 1.014-.299 1.741-.007.535.114 1.065.242 1.562.127.484.325.982.618 1.568.535 1.065 1.216 2.085 2.095 3.131 1.988 2.353 4.587 4.393 7.944 6.223 1.426.784 3.025 1.517 5.032 2.327a56.011 56.011 0 0 0 5.567 1.919c1.529.434 3.108.759 4.586 1.046 1.994.383 3.523.58 4.969.644.159.006.312.006.458-.013a1.29 1.29 0 0 0 .599-.236 1.44 1.44 0 0 0 .561-.86c.146-.243.203-.517.159-.785-.038-.216-.058-.433-.083-.656l-.045-.409a43.096 43.096 0 0 0-.191-1.275c-.057-.363-.121-.727-.184-1.09a38.31 38.31 0 0 1-.211-1.25c-.299-1.983-.503-3.506-.649-4.928a72.209 72.209 0 0 1-.338-9.424c.172-4.489.726-9.169 1.707-14.308.815-4.278 1.956-8.824 3.599-14.294l-.064.133c.574-1.836 1.185-3.73 1.835-5.623.548-1.62 1.191-3.501 1.879-5.356.255-.057.484-.204.662-.421.211-.255.313-.599.281-.931-.032-.325-.179-.599-.478-.886-.669-.638-1.357-1.243-2.051-1.855-.325-.287-.643-.568-.962-.855a53.774 53.774 0 0 1-2.905-2.818c-1.618-1.741-3.21-3.755-4.879-6.159a135.966 135.966 0 0 1-2.268-3.373l-.515-.771c-.402-.6-.797-1.193-1.166-1.811a60.032 60.032 0 0 1-1.102-1.964c-.363-.657-.72-1.32-1.102-1.964-.796-1.352-1.79-2.895-3.083-4.131a4.82 4.82 0 0 0-.739-.574 3.79 3.79 0 0 0-1.102-.51c-.274-.083-.58-.109-.911-.083-.42.051-.707.185-1.044.363-.306.16-.555.427-.752.67-.28.331-.484.726-.637 1.033-.357.746-.542 1.632-.58 2.799-.025.886.051 1.81.249 3.003.172 1.033.426 2.136.764 3.353.236.836.491 1.639.758 2.391a25.755 25.755 0 0 1-1.127-1.881c-1.364-2.639-2.274-5.4-2.988-7.759l-.357-1.173c-.707-2.347-1.439-4.769-2.363-7.09a25.586 25.586 0 0 0-1.771-3.584c-.662-1.115-1.445-2.059-2.318-2.811-.389-.338-.873-.657-1.478-.976-.49-.261-1.096-.446-1.758-.548a5.703 5.703 0 0 0-1.682-.019Zm-6.688 23.055-.013-.025v-.09c.039.198.083.396.128.593-.032-.121-.058-.248-.089-.369v-.007l-.02-.07v-.019l-.006-.013Z"/><path fill="#a832f3" d="M349.874 96.086c-1.096.14-2.019.446-2.816.937-.809.497-1.484 1.294-1.904 2.25-1.045 2.334-.223 4.942.356 6.287.3.708.663 1.39.988 1.971.369.675.751 1.345 1.153 2.008.834 1.358 1.637 2.506 2.458 3.507a46.003 46.003 0 0 0 3.013 3.373c.453.459.911.905 1.37 1.345l-.835-.344c-1.178-.453-2.401-.925-3.656-1.218a11.336 11.336 0 0 0-2.962-.306 8.23 8.23 0 0 0-.892.064c-.732.095-1.363.274-1.911.554a2.353 2.353 0 0 0-.834.663 1.788 1.788 0 0 0-.363 1.199c.025.478.299.912.529 1.186.356.434.79.791 1.369 1.135.389.229.847.357 1.287.459.414.102.853.147 1.248.185l.459.038.503.045c-1.057.644-2.191 1.218-3.172 1.709l.28-.115-1.012.472c-1.058.51-2.153 1.039-3.205 1.613-1.407.765-2.713 1.677-3.809 2.467a36.924 36.924 0 0 0-3.872 3.233 33.379 33.379 0 0 0-1.669 1.74 26.072 26.072 0 0 0-1.58 1.888c-.185.242-.242.561-.14.816a95.603 95.603 0 0 0-3.701 4.329 104.57 104.57 0 0 0-6.153 8.525 101.743 101.743 0 0 0-5.306 9.092c-1.714 3.347-3.122 6.478-4.306 9.583-2.504 6.542-4.3 13.447-5.345 20.524-1.019 6.95-1.254 14.435-.694 22.252.573 7.996 1.994 15.5 4.23 22.303a71.877 71.877 0 0 0 10.376 20.199c2.688 3.654 5.586 6.893 8.625 9.615 3.191 2.863 6.796 5.426 10.72 7.613.242.134.535.185.835.147l.114-.019c3.434 2.512 7.568 4.571 12.638 6.28 5.765 1.945 11.708 3.022 17.268 3.889l.198.032c1.427.224 2.905.453 4.37.619 1.573.185 3.274.312 5.21.389 3.382.134 6.994.057 10.733-.236a86.287 86.287 0 0 0 4.332-.446c5.452-.702 11.007-1.945 16.51-3.692 5.892-1.875 11.701-4.686 17.262-8.346 5.338-3.513 10.211-7.785 14.492-12.695a65.876 65.876 0 0 0 3.095-3.845c.344-.459.682-.918 1.02-1.377.98.357 2.038.657 3.14.893 1.79.376 3.561.504 5.057.586 2.657.141 5.357.032 7.969-.063.682-.026 1.363-.051 2.045-.07 1.554-.051 3.115-.083 4.669-.122 5.612-.133 11.421-.267 17.077-.994a79.304 79.304 0 0 0 2.102-.3c2.612-.414 6.045-.995 9.389-1.855 3.491-.899 6.383-2.06 8.835-3.558 1.281-.772 2.191-1.671 2.695-2.665.216-.427.318-.938.318-1.543 0-.459-.172-.957-.529-1.537-.203-.331-.522-.65-.942-.95a7.089 7.089 0 0 0-.605-.376 33.42 33.42 0 0 0 3.592-.708 25.879 25.879 0 0 0 3.688-1.243 17.534 17.534 0 0 0 3.338-1.862c1.121-.797 2.058-1.702 2.796-2.684.739-.982 1.064-2.162.892-3.226-.165-1.033-.981-2.022-2.172-2.64-.656-.344-1.338-.561-1.975-.746a38.338 38.338 0 0 0-2.082-.516 62.385 62.385 0 0 0-1.988-.402c-.58-.102-1.159-.166-1.745-.236l-.306-.032a50.662 50.662 0 0 0-4-.287 44.832 44.832 0 0 0-2.261-.006 11.693 11.693 0 0 0-1.701-1.524c-.605-.446-1.274-.791-1.905-1.09-1.14-.536-2.49-.867-4.134-1.008-1.229-.108-2.548-.07-4.153.141l-.261.031c-1.822.249-3.58.651-5.529 1.11-2.847.676-5.714 1.485-8.485 2.263-.898.249-1.796.504-2.688.753a192.323 192.323 0 0 1-5.478 1.447c-1.344.338-2.452.555-3.49.689-.37.044-.739.082-1.109.114a18.809 18.809 0 0 1-4.331-.306 19.22 19.22 0 0 1-4.262-1.479c-1.477-.765-2.904-1.747-4.363-3.016l.128.141c-1.555-1.416-3.064-3.093-4.72-5.267a.922.922 0 0 0-.153-.159c.624-.383 1.293-.753 1.936-1.11.452-.248.905-.497 1.344-.759a17.69 17.69 0 0 0 2.338-1.638c.388-.325.726-.644 1.025-.976.293-.325.574-.714.879-1.243.211-.357.383-.784.548-1.333.159-.548.185-1.141.191-1.657a4.828 4.828 0 0 0-1.083-3.105c-1.159-1.441-2.885-2.506-5.28-3.252a96.076 96.076 0 0 1 4.128-2.085c.006 0 .05-.032.05-.032 0-.006.032-.026.032-.026l1.198-.548.388-.185-.121.058c2.663-1.263 5.727-2.793 8.389-4.91 1.153-.918 2.223-1.913 3.485-3.118a59.706 59.706 0 0 0 3.038-3.124 47.523 47.523 0 0 0 5.204-6.931 34.27 34.27 0 0 0 2.039-3.793c.56-1.231 1.076-2.583 1.617-4.247.841-2.601 1.778-5.63 2.204-8.76.485-3.564.223-6.689-.777-9.296-.56-1.454-1.223-2.436-2.083-3.099-.471-.364-.911-.619-1.356-.772-.3-.108-.606-.21-.918-.28-.299-.064-.611-.083-.917-.102l-.146-.007a6.928 6.928 0 0 0-1.293.051 10.25 10.25 0 0 0-1.759.402c-1.102.344-2.159.874-3.133 1.403-.192.108-.383.21-.574.319a24.94 24.94 0 0 0 1.427-2.155 31.31 31.31 0 0 0 1.554-2.959c.242-.523.459-1.052.663-1.594.184-.491.395-1.071.516-1.638a.797.797 0 0 0-.37-.817c.083-.159.16-.331.236-.503.293-.682.535-1.397.732-2.002.23-.695.421-1.416.58-2.143.306-1.428.465-2.907.484-4.38.013-1.339-.165-2.773-.535-4.393-.318-1.39-.847-2.786-1.56-4.157-.555-1.052-1.287-2.117-2.249-3.258-.503-.6-.943-1.065-1.369-1.467-.536-.497-1.128-.905-1.644-1.237-.452-.287-.974-.522-1.643-.733-.542-.172-1.153-.255-1.86-.255-.179 0-.363.013-.548.032a6.073 6.073 0 0 0-1.274.319c-.656.229-1.325.606-1.981 1.116a11.305 11.305 0 0 0-1.701 1.619c-.535.631-1 1.345-1.427 2.021-.605.976-1.108 2.028-1.598 3.042l-.325.675c-1.65 3.392-2.969 5.994-4.274 8.417a104.574 104.574 0 0 1-1.676 2.977 35.27 35.27 0 0 0 .23-2.894c.057-1.295.089-2.672-.204-3.953-.115-.504-.261-1.033-.586-1.467a1.934 1.934 0 0 0-.599-.523c-.255-.159-.548-.178-.828-.185-.07 0-.134 0-.204.013-.382.051-.758.255-1 .402-.535.319-.975.784-1.408 1.237l-.159.172c-1.503 1.562-2.752 3.392-3.956 5.158l-.172.249-.579.848c-1.038 1.523-2.109 3.105-3.312 4.552-1.383 1.664-3.001 3.335-4.95 5.101l.108-.07a74.308 74.308 0 0 1-4.968 4.01 91.724 91.724 0 0 1-2.631 1.856c-.299.204-.598.401-.898.599-.522-2.021-1.363-4.113-2.465-6.217-.592-1.128-1.299-2.308-2.229-3.71a47.073 47.073 0 0 0-2.587-3.507c-1.987-2.461-4.127-4.738-5.771-6.44-2.191-2.276-4.076-4.049-5.93-5.579a46.029 46.029 0 0 0-3.471-2.595 36.419 36.419 0 0 0-3.593-2.155 36.005 36.005 0 0 0-4-1.766 36.748 36.748 0 0 0-2.14-.714c-.37-.109-.739-.204-1.115-.3l-.459-.115c-.165-1.147-.471-2.289-.764-3.392a54.49 54.49 0 0 0-1.089-3.615 42.265 42.265 0 0 0-1.376-3.545 28.297 28.297 0 0 0-.879-1.836c-.287-.561-.618-1.09-.981-1.671a21.241 21.241 0 0 0-2.344-3.086c-.809-.886-1.765-1.708-2.918-2.512a8.58 8.58 0 0 0-1.751-.95 7.968 7.968 0 0 0-1-.319c-.357-.089-.733-.108-1.09-.127a3.343 3.343 0 0 0-.618.025 4.675 4.675 0 0 0-.917.224c-.522.178-1.025.478-1.529.924-.91.816-1.388 1.996-1.707 2.939-.35 1.052-.496 2.283-.452 3.762.051 1.575.35 3.252.892 4.999.287.912.599 1.804.917 2.703l.166.472c-.389-.248-.79-.503-1.185-.771a26.876 26.876 0 0 1-3.128-2.602 61.976 61.976 0 0 1-2.216-2.295l-.752-.803a157.795 157.795 0 0 1-3.421-3.788l-1.127-1.269a44.376 44.376 0 0 0-2.497-2.582 28.09 28.09 0 0 0-1.287-1.173 18.955 18.955 0 0 0-1.567-1.18 15.1 15.1 0 0 0-1.375-.867c-.574-.318-1.173-.535-1.631-.695a8.783 8.783 0 0 0-1.236-.312.693.693 0 0 0-.229-.504.695.695 0 0 0-.503-.172c-.179 0-.363.02-.548.045Zm-40.531 127.136-.013-.025.006-.07c.051.255.109.516.166.771-.045-.204-.096-.408-.14-.612a.088.088 0 0 0-.013-.045v-.012c0-.007 0-.019-.006-.026v.019Zm6.433 17.859-.216-.408-.039-.095c.083.165.166.331.255.503Z"/><path fill="#fff" d="M324.35 255.134a.623.623 0 0 0-.452.3.473.473 0 0 0-.357-.102.457.457 0 0 0-.28.134.595.595 0 0 0-.172.408.566.566 0 0 0 .14.401c1.809 1.99 3.981 3.851 7.032 6.045 1.109.797 2.236 1.562 3.357 2.327l.484.325c1.281.874 2.542 1.766 3.803 2.665 3.089 2.2 5.65 3.845 8.071 5.19a50.233 50.233 0 0 0 4.242 2.098c1.28.561 2.669 1.071 4.497 1.645 5.675 1.779 11.924 2.914 19.097 3.462 3.153.242 6.408.351 9.682.332 1.579-.013 3.267-.032 4.943-.134a66.783 66.783 0 0 0 4.382-.408l.675-.09c3.414-.471 7.128-1.268 11.689-2.499 4.299-1.167 8.561-2.474 11.797-3.488.293-.089.484-.229.618-.446.14-.229.191-.516.133-.79-.102-.498-.56-.88-1.019-.855a9.14 9.14 0 0 1-.688-.535 7.604 7.604 0 0 1-1.006-1.212 10.415 10.415 0 0 1-1.026-2.161c-.376-1.193-.624-2.506-.745-3.902l-.025-.185h-.013c-.051-1.384.013-2.94.216-4.559.102-.797.217-1.581.338-2.372.057-.363.108-.727.153-1.097.019-.185.032-.376.038-.561l.013-.255c.063-.21.076-.421.032-.637a1.233 1.233 0 0 0-.497-.772 1.065 1.065 0 0 0-.771-.191c-.287.057-.503.172-.643.319a8.929 8.929 0 0 1-1.555.331 9.05 9.05 0 0 1-.592.058 11.626 11.626 0 0 1-2.815-.211c-.892-.197-1.644-.459-2.3-.79a7.294 7.294 0 0 1-1.115-.791 5.663 5.663 0 0 1-.675-.81 6.616 6.616 0 0 1-.376-.765 5.823 5.823 0 0 1-.178-.873 8.237 8.237 0 0 1 .108-1.518l.07-.357c.058-.3.115-.599.166-.899a1.38 1.38 0 0 0-.14-.695 1.322 1.322 0 0 0-.714-.663 1.151 1.151 0 0 0-.547-.064 1.206 1.206 0 0 0-.879.58c-.465.785-.752 1.728-.835 2.742-.216.166-.427.351-.643.536-.185.159-.37.312-.554.465-.523.427-1.045.842-1.586 1.243-2.848 2.047-6.014 3.698-9.689 5.063l.128-.026c-3.408 1.218-7.103 2.168-11.625 2.972-1.637.287-3.319.542-5.128.771l-.879.108c-1.688.211-3.911.472-6.153.619-4.44.281-9.096.178-13.829-.293-4.363-.428-8.854-1.161-13.74-2.232-.006 0-.076-.013-.089-.013s-.07-.006-.07-.006a218.906 218.906 0 0 1-11.185-2.888c-.115 0-.217-.007-.319.006Zm63.144 23.094a.027.027 0 0 1 .025 0v.006l-.025-.006h-.019.019Z"/><path fill="#fff" d="m354.397 129.559-.121.013a83.358 83.358 0 0 0-3.956.625c-.306.038-.612.07-.911.108-.306.039-.618.077-.923.128-.599.089-1.192.204-1.784.319l-.452.089-.23.045c-.732.14-1.465.274-2.184.44-1.376.312-2.835.682-4.593 1.154l-.338.089-.337.089c-.064-.076-.147-.121-.223-.115a.363.363 0 0 0-.204.083.303.303 0 0 0-.089.179 72.917 72.917 0 0 0-3.351.988 64.73 64.73 0 0 0-4.019 1.447.632.632 0 0 0-.261-.019.556.556 0 0 0-.325.153 77.143 77.143 0 0 0-6.262 6.931 76.67 76.67 0 0 0-5.261 7.53c-3.07 4.992-5.701 10.546-7.816 16.501-1.968 5.534-3.503 11.534-4.573 17.84a141.562 141.562 0 0 0-1.879 18.356 77.484 77.484 0 0 0 .286 10.183c.3 3.188.835 6.567 1.593 10.029 1.477 6.771 3.815 13.249 6.949 19.256a74.6 74.6 0 0 0 4.676 7.753c.535.784 1.102 1.536 1.668 2.295.338.453.682.905 1.013 1.365l.217.299c.866 1.199 1.764 2.436 2.86 3.481.178.141.382.23.611.262.115.019.23.019.344 0 .23-.032.453-.121.631-.262a1.25 1.25 0 0 0 .42-.58c6.873 2.264 13.339 3.87 19.753 4.916 8.281 1.358 15.638 1.779 22.492 1.288a73.44 73.44 0 0 0 4.236-.421 66.16 66.16 0 0 0 6.847-1.237 55.492 55.492 0 0 0 10.491-3.653c3.051-1.422 6.128-3.297 9.147-5.573a37.721 37.721 0 0 0 6.746-6.535 40.366 40.366 0 0 0 5.07-8.225c.886-1.894 1.561-3.602 2.07-5.228.536-1.715.924-3.628 1.185-5.847.395-3.348.242-7.014-.471-11.541-.338-2.123-.72-4.023-1.178-5.808-.446-1.753-1.071-3.552-1.962-5.656-1.625-3.832-3.924-7.447-5.95-10.533a232.736 232.736 0 0 0-1.936-2.907c-.491-.727-.975-1.454-1.459-2.181-.981-1.473-2.096-3.245-2.93-5.196a16.127 16.127 0 0 1-.936-3.424c-.09-.842-.096-1.67-.007-2.455.14-.835.382-1.683.72-2.525.599-1.345 1.382-2.626 2.14-3.863l.07-.115c1.153-1.887 1.956-3.392 2.599-4.884.873-2.009 1.433-3.851 1.714-5.63.159-1.001.235-1.926.235-2.837.007-.899-.095-1.894-.305-3.035-.344-1.849-1.147-3.756-2.325-5.528-.873-1.314-1.905-2.659-3.166-4.119-2.108-2.455-4.612-4.731-7.446-6.772-3.402-2.454-7.338-4.342-11.708-5.617a37.31 37.31 0 0 0-4.529-.994 1.016 1.016 0 0 0-.255-.109c-1.376-.414-2.809-.656-4.159-.873a65.346 65.346 0 0 0-4.542-.561 35.385 35.385 0 0 0-4.198-.109 40.288 40.288 0 0 0-3.885.332l-.363.044-.707.083c-.656.077-1.313.153-1.962.236l-.312.038c.006 0 .006 0 0 0Z"/><path fill="#ce5f1f" d="M381.214 132.709c-.007 0-.007 0-.013-.006-.007 0-.007 0-.013-.007.006.013.013.013.026.013ZM328.459 257.436h-.007s.007.007.007 0ZM345.517 131.045c.007 0 .019 0 .032-.006-.006 0-.019 0-.032.006ZM381.252 132.728c-.007 0-.013-.006-.026-.006h-.007c.007 0 .02 0 .033.006ZM381.373 132.767l-.109-.039c.032.013.07.032.109.039ZM407.884 200.506l-.006-.007c-.019-.032-.032-.071-.052-.103.02.032.039.071.058.11ZM328.427 257.43c-.006-.007-.013-.007-.026-.013.013.006.02.013.026.013ZM376.162 260.267l.083-.02c.006 0 .013 0 .019-.006a.507.507 0 0 1-.102.026Z"/><path fill="#121931" d="M348.957 95.556a5.605 5.605 0 0 0-1.752.53c-.389.185-.79.452-1.217.81a6.302 6.302 0 0 0-.949.994c-.452.574-.783 1.288-.968 2.066-.178.714-.236 1.505-.172 2.41.057.714.229 1.486.529 2.429.267.829.618 1.677 1.083 2.583.796 1.594 1.86 3.226 3.248 4.979a35.6 35.6 0 0 0 3.695 3.998l.14.134c-.44-.249-.994-.447-1.847-.689a15.516 15.516 0 0 0-3.281-.593 8.73 8.73 0 0 0-1.497.045 5.768 5.768 0 0 0-1.497.395c-.841.332-1.611.963-2.165 1.766a2.624 2.624 0 0 0-.408 1.078c-.051.338 0 .669.178 1.071.102.236.287.478.554.72.274.243.586.434.956.6.669.312 1.42.529 2.439.688.179.032.344.051.523.071-.612.216-1.28.535-2.172 1.02-1.682.892-3.427 1.989-5.332 3.334-3.287 2.328-6.561 5.197-9.726 8.544-2.899 3.067-5.701 6.542-8.326 10.323a97.414 97.414 0 0 0-6.669 11.228l-.21.414c-.586-.523-1.179-1.033-1.707-1.53a44.387 44.387 0 0 1-2.389-2.41 55.189 55.189 0 0 1-2.796-3.245c-.758-.957-1.625-2.143-2.65-3.609-.937-1.358-1.854-2.767-2.746-4.132l-.261-.395c-.63-.976-1.267-1.938-1.911-2.901a71.752 71.752 0 0 0-2.567-3.634c-.618-.829-1.567-2.073-2.662-3.214-.707-.727-1.395-1.25-2.102-1.607-.574-.299-1.172-.427-1.688-.357-.968.166-1.695.823-2.153 1.951-.516 1.231-.631 2.627-.675 3.832-.02.529-.013 1.103.019 1.703-.134-.721-.351-1.441-.561-2.143l-.191-.656c-1.013-3.367-1.956-6.376-3.249-9.175-.764-1.671-1.547-3.029-2.395-4.145-.955-1.269-2.025-2.231-3.185-2.85a5.95 5.95 0 0 0-3.547-.65c-.102.013-.204.025-.306.044-1.529.281-3 1.065-4.625 2.462a16.466 16.466 0 0 0-3.923 4.89c-.873 1.632-1.472 3.519-1.771 5.611-.516 3.57-.204 7.46.993 12.235.542 2.155 1.255 4.393 2.192 6.848-.255-.332-.593-.638-1.071-1.001-.509-.383-1.082-.733-1.802-1.122-1.058-.555-2.688-1.173-4.459-.944a5.402 5.402 0 0 0-1.319.344c-1.484.581-2.719 1.849-3.662 3.769-.389.765-.707 1.645-1.007 2.773a17.94 17.94 0 0 0-.547 2.984 25.923 25.923 0 0 0-.141 3.163c.026.956.115 1.932.3 3.175a55.799 55.799 0 0 0 1.751 7.785c1.523 5.024 3.778 9.717 6.714 13.95 1.771 2.576 3.943 5.088 6.446 7.467a49.059 49.059 0 0 0 6.644 5.228c-1.306.599-2.261 1.517-2.745 2.646-.898 2.04 0 4.253.917 5.745.497.829 1.166 1.702 2.038 2.665a27.057 27.057 0 0 0 2.383 2.359c1.681 1.467 3.611 2.818 5.917 4.151a46.27 46.27 0 0 0 6.816 3.194c4.898 1.856 9.555 2.793 13.848 2.786l.229-.006h.236a66.64 66.64 0 0 0 1.382 6.166 80.421 80.421 0 0 0 4.274 11.91 71.078 71.078 0 0 0 12.415 18.917c4.835 5.324 10.612 9.947 17.173 13.728 6.319 3.634 13.364 6.42 20.937 8.282 3.568.88 7.466 1.569 11.574 2.047 3.663.427 7.466.606 11.313.542a94.95 94.95 0 0 0 10.332-.765c.439-.058.879-.115 1.318-.179a91.875 91.875 0 0 0 11.568-2.416c3.663-1.014 7.427-2.353 11.192-3.973a74.012 74.012 0 0 0 10.338-5.413 63.607 63.607 0 0 0 9.141-6.93c2.707-2.461 5.229-5.299 7.497-8.442a37.716 37.716 0 0 0 2.032-3.188l.357.089a55.177 55.177 0 0 0 4.21.682c1.452.185 3.026.332 4.816.447 3.267.204 6.58.229 9.675.229 6.408-.006 11.944-.319 16.925-.956a97.905 97.905 0 0 0 3.019-.434 81.554 81.554 0 0 0 4.924-.963l1.44-.318a158.84 158.84 0 0 0 4.471-1.065 75.103 75.103 0 0 0 5.408-1.594c2.07-.714 3.599-1.365 4.956-2.104.7-.37 1.318-.778 1.892-1.243.541-.428.968-.887 1.274-1.371.56-.874.649-2.034.242-3.029-.268-.65-.784-1.218-1.529-1.677 1.439-.21 2.975-.593 4.548-1.116a27.094 27.094 0 0 0 3.159-1.268 16.265 16.265 0 0 0 2.803-1.684 10.584 10.584 0 0 0 2.153-2.116c.255-.338.478-.715.669-1.123.197-.42.325-.752.407-1.077a3.95 3.95 0 0 0 .051-1.907c-.127-.529-.407-1.058-.847-1.568-.35-.421-.828-.797-1.446-1.16-.541-.313-1.184-.587-1.974-.842-1.707-.568-3.427-.797-4.733-.937-2.656-.306-5.242-.319-7.631-.287-.554-.861-1.344-1.639-2.344-2.296-.822-.535-1.854-.962-3.058-1.256-.987-.242-2.057-.369-3.369-.408-1.019-.019-2.064.026-3.376.153a68.422 68.422 0 0 0-2.739.332l-.542.076c-.675.096-1.344.192-2.006.313-.784.146-1.567.319-2.395.516-2.618.657-5.185 1.55-7.447 2.34l-.108.032-1.452.497c-2.771.963-6.013 2.028-9.447 2.544l-.254.039c-1.255.159-2.51.185-3.72.063a15.685 15.685 0 0 1-3.778-.988c-1.28-.555-2.516-1.275-3.79-2.206l-.146-.07c-2.274-1.785-4.319-4.023-5.848-5.77l.402-.147c.891-.44 1.79-.969 2.662-1.568 1.058-.715 1.918-1.441 2.644-2.226 1.49-1.619 2.331-3.519 2.369-5.343.019-.86-.178-1.747-.579-2.62-.357-.784-.943-1.505-1.746-2.155-.866-.708-1.955-1.237-3.236-1.575 3.841-1.55 7.587-3.654 11.129-6.223a51.479 51.479 0 0 0 10.771-10.457c3.121-4.099 5.446-8.543 6.911-13.223a35.991 35.991 0 0 0 1.51-7.282c.229-2.308.172-4.559-.172-6.682a18.555 18.555 0 0 0-.733-2.914c-.318-.899-.675-1.657-1.102-2.327a9.518 9.518 0 0 0-.72-1.014c-.28-.35-.605-.644-.917-.924a5.976 5.976 0 0 0-1.981-1.11c-.732-.248-1.56-.344-2.465-.267a4.533 4.533 0 0 0-.306.032c-.72.089-1.484.312-2.344.682-.548.223-1.095.516-1.681.886.624-.95 1.229-2.098 1.815-3.398 1.102-2.43 1.924-4.878 2.427-7.275.567-2.589.771-5.133.611-7.569a21.897 21.897 0 0 0-.567-3.691c-.273-1.142-.681-2.296-1.248-3.533a16.946 16.946 0 0 0-1.943-3.232c-.758-1.02-1.509-1.83-2.287-2.474a8.232 8.232 0 0 0-2.312-1.352 6.101 6.101 0 0 0-2.185-.389c-.216 0-.433.013-.643.045-1.147.147-2.35.663-3.491 1.505-1.229.892-2.382 2.059-3.618 3.691-2.28 3.016-3.987 6.338-5.688 9.762l-.478.956c.032-.503-.019-1.09-.133-1.734-.166-.88-.529-1.67-1.039-2.295-.649-.797-1.382-1.32-2.185-1.556a2.424 2.424 0 0 0-.961-.076c-.37.044-.765.184-1.166.401-.331.172-.624.434-.879.67-.312.274-.554.58-.815.905-.504.657-.93 1.339-1.427 2.123-.376.612-.86 1.39-1.421 2.155l-.038.115a151.652 151.652 0 0 1-5.452 6.816c-1.759 2.072-3.74 4.221-6.058 6.567a207.747 207.747 0 0 1-5.051 4.942c-.121-.523-.338-1.097-.631-1.76a39.516 39.516 0 0 0-1.013-2.079l-.063-.127-.064-.121a50.902 50.902 0 0 0-1.624-2.959 71.445 71.445 0 0 0-3.861-5.885c-3.076-4.246-6.465-7.957-10.07-11.03-2.79-2.372-5.739-4.33-8.765-5.815-2.809-1.384-5.714-2.315-8.631-2.755l-.089-.605c-.077-.415-.16-.835-.242-1.25a98.093 98.093 0 0 0-.535-2.448 46.155 46.155 0 0 0-1.332-4.572 29.387 29.387 0 0 0-2.618-5.356c-1.382-2.238-2.777-3.832-4.389-5.03-.847-.619-1.777-1.084-2.688-1.34-.859-.241-1.828-.318-2.885-.222l-.108.012c-.79.102-1.478.32-2.096.663-.605.326-1.147.81-1.612 1.435-.382.516-.681 1.141-.923 1.919-.21.638-.357 1.371-.44 2.257-.127 1.454-.025 3.067.306 4.942a23.064 23.064 0 0 0 1.108 3.978c-.197-.261-.458-.484-.707-.701l-.108-.077c-2.147-1.912-4.013-3.883-6.217-6.267l-1.185-1.269-.968-1.039-.554-.6-.618-.669-.229-.255-.255-.281-.631-.676c-1.758-1.849-3.197-3.156-4.675-4.22a14.806 14.806 0 0 0-2.714-1.556c-.904-.408-1.853-.65-2.745-.701-.357 0-.694.006-1.006.05Zm7.07 23.534a.554.554 0 0 0 .395-.255l.045-.108c.082-.109.114-.262.082-.408a.466.466 0 0 0-.223-.306c-.98-.549-1.853-1.288-2.426-1.792-2.109-1.868-4.02-4.074-5.682-6.554-1.147-1.748-1.924-3.278-2.453-4.814-.312-.982-.477-1.792-.528-2.583a7.11 7.11 0 0 1 .095-1.562c.083-.37.21-.733.376-1.09.172-.319.376-.618.612-.899.261-.293.566-.567.936-.835.318-.191.637-.35.981-.491.255-.064.522-.121.79-.153.076-.007.153-.02.229-.026a5.09 5.09 0 0 1 1.242.102 9.624 9.624 0 0 1 1.739.632c1.159.599 2.338 1.434 3.707 2.62 1.128 1.001 2.242 2.123 3.083 2.99.796.829 1.599 1.652 2.408 2.481l.694.714.274.287.217.216.108.109c1.389 1.422 2.745 2.805 4.115 4.112a60.457 60.457 0 0 0 2.548 2.289c.866.727 1.79 1.422 2.662 2.06a.662.662 0 0 0 .892-.141.477.477 0 0 0 .261-.306.44.44 0 0 0-.031-.369 14.364 14.364 0 0 1-.924-2.219 20.704 20.704 0 0 1-1.019-5.407l-.077.127c.013-1.358.102-2.493.287-3.455a8.136 8.136 0 0 1 .541-1.62c.191-.37.414-.708.669-1.007a4.23 4.23 0 0 1 .758-.682c.3-.179.593-.313.898-.421.268-.077.548-.128.828-.166.109-.013.211-.026.319-.032a7.608 7.608 0 0 1 1.637.115c.459.121.898.274 1.299.459.574.3 1.128.682 1.701 1.173.987.88 1.892 1.958 2.86 3.392a31.864 31.864 0 0 1 1.943 3.456 32.21 32.21 0 0 1 1.497 3.621l.044-.146c.383 1.498.669 2.665.93 3.902.096.414.179.822.262 1.23l.082.421.083.421c.102.491.204.982.312 1.467l.077.35c-.058.357.159.746.49.874.198.134.44.191.669.165.089-.019.127-.025.166-.038 1.235.179 2.484.472 3.815.886a33.09 33.09 0 0 1 3.637 1.454c1.147.542 2.319 1.205 3.708 2.085 3.42 2.206 6.713 5.056 10.07 8.716a81.624 81.624 0 0 1 6.287 7.932 92.544 92.544 0 0 1 2.656 4.087 79.234 79.234 0 0 1 2.682 4.667c.344.695.707 1.441.994 2.187a.796.796 0 0 0 .153.261l-.09.039-.923.854c-1.548 1.441-3.109 2.888-4.574 4.418-2.548 2.666-5.745 6.281-7.917 10.572a26.258 26.258 0 0 0-2.223 5.993 21.967 21.967 0 0 0-.504 6.708c.026.28.255.491.536.491.286-.039.503-.274.49-.536a20.337 20.337 0 0 1 .038-3.641 22.284 22.284 0 0 1 1.319-5.451c.872-2.193 2.089-4.355 3.713-6.599l.064-.102c3.223-4.31 7.16-7.849 10.23-10.45 2.026-1.703 4.408-3.749 6.771-6a115.532 115.532 0 0 0 6.223-6.402 88.743 88.743 0 0 0 5.523-6.784c.713-.988 1.465-2.046 2.127-3.175l.395-.682c.478-.848.873-1.505 1.325-2.136.242-.332.491-.606.777-.861.115-.083.23-.159.357-.223.128-.038.185-.051.242-.064.064-.006.128-.006.198-.006.082.006.172.025.293.07.165.077.318.172.471.281.242.197.471.408.682.631.146.204.273.421.388.663.172.434.293.88.37 1.352.14.918.172 1.906.089 2.933-.026.312-.07.618-.115.924-.013.045-.013.089-.013.159a81.951 81.951 0 0 1-1.872 3.208 69.02 69.02 0 0 1-2.587 3.991l-.152.217-.319.452-.076.122c-.096.121-.217.28-.344.446l-.134.166c-.102.146-.204.299-.198.523.007.184.09.363.223.497a.762.762 0 0 0 .523.197c.267-.031.439-.14.605-.376l.783-1.128c.644-.931 1.281-1.862 1.911-2.799a134.718 134.718 0 0 0 2.555-4.024c.382-.631.789-1.313 1.178-2.046.312-.568.612-1.148.911-1.722l.146-.287c1.688-3.219 3.427-6.554 5.58-9.557l.102-.14.058-.134c1.172-1.531 2.223-2.653 3.299-3.539a9.542 9.542 0 0 1 1.777-1.097c.44-.178.835-.293 1.204-.344a4.952 4.952 0 0 1 1.038-.032c.364.038.752.128 1.147.268.478.204.936.465 1.408.797.764.574 1.49 1.288 2.287 2.244a18.037 18.037 0 0 1 2.127 3.501 19.334 19.334 0 0 1 1.331 4.616c.281 1.887.319 3.883.128 5.942-.293 2.723-.949 5.484-1.969 8.225a36.372 36.372 0 0 1-3.745 7.231c-.682.58-1.338 1.217-2.185 2.059a113.62 113.62 0 0 0-2.841 2.927c-.134.146-.261.318-.274.573a.811.811 0 0 0 .204.574.83.83 0 0 0 .745.281c.16-.019.3-.089.421-.198l.968-.969c.86-.867 1.726-1.728 2.618-2.57.911-.854 2.013-1.849 3.293-2.709.86-.542 1.656-.944 2.421-1.224a8.62 8.62 0 0 1 1.414-.313l.185-.019a5.659 5.659 0 0 1 1.172.051c.344.083.681.191 1.012.332.357.191.688.42 1.007.688.395.364.764.791 1.121 1.307a11.2 11.2 0 0 1 1.089 2.347c.433 1.332.707 2.767.828 4.386.159 2.302.007 4.744-.458 7.262a40.06 40.06 0 0 1-3.236 9.679c-1.701 3.443-3.905 6.733-6.548 9.781l-.077.083a53.183 53.183 0 0 1-10.262 8.952l-.133.102a55.336 55.336 0 0 1-10.383 5.304.836.836 0 0 0-.726.778.792.792 0 0 0 .216.561c.172.179.357.224.548.249l.115.013c1.013.191 1.911.459 2.739.816.56.268 1.051.58 1.509.937.344.3.637.599.886.931.223.344.388.657.516.95.114.332.191.67.248 1.046.038.376.032.771-.019 1.179a7.299 7.299 0 0 1-.478 1.556 8.969 8.969 0 0 1-1.083 1.715c-.63.752-1.375 1.441-2.28 2.123l-.089.064c-1.561 1.116-3.414 2.091-5.504 2.914a36.234 36.234 0 0 1-8.236 2.04c-.261.032-.522.07-.783.089a37.451 37.451 0 0 1-4.848.198 36.772 36.772 0 0 1-4.936-.465c-2.312-.402-4.478-1.059-6.427-1.939-1.141-.542-2.166-1.135-3.039-1.766a.51.51 0 0 0-.337-.083.563.563 0 0 0-.395.249c-.147.236-.083.548.165.727 3.268 2.314 7.396 3.774 12.281 4.336 2.198.261 4.561.306 7.033.133a36.316 36.316 0 0 0 2.197-.223 38.603 38.603 0 0 0 4.72-.905c1.612-.427 3.16-.95 4.586-1.569 2.899 3.412 6.109 6.899 10.479 8.735 1.064.453 2.172.785 3.293.989 1.159.21 2.395.287 3.675.223.459-.026.918-.07 1.376-.128 1.07-.14 2.153-.363 2.981-.548 1.37-.306 2.765-.695 4.529-1.243 1.281-.402 2.548-.836 3.822-1.269 3.586-1.224 7.198-2.455 10.912-3.016.528-.076 1.063-.153 1.598-.223 2.058-.261 4.485-.497 6.867-.217 1.076.153 2.038.389 2.943.733a10.71 10.71 0 0 1 2.038 1.154c.166.128.325.268.484.402-1.013-.032-2.095.006-3.611.128a93.067 93.067 0 0 0-3.536.369c-.962.122-1.923.268-2.879.428-2.07.35-4.21.797-6.357 1.326a78.605 78.605 0 0 0-6.23 1.823c-.286.109-.439.364-.382.625.07.255.325.434.567.402 2.58-.714 5.37-1.467 8.249-2.066a83.131 83.131 0 0 1 6.676-1.135 53.055 53.055 0 0 1 1.758-.204l.102-.013a65.216 65.216 0 0 1 3.764-.274 59.749 59.749 0 0 1 3.026-.064c.879-.006 1.764-.012 2.643-.006 2.911.013 5.268.179 7.421.517l.127.025c1.204.21 2.618.51 3.943 1.109.523.255.892.479 1.204.74.21.179.402.376.567.574.115.166.21.338.293.523.045.165.089.344.115.529.025.21.019.459-.019.746a5.868 5.868 0 0 1-.37 1.179c-.267.53-.554.982-.898 1.416-.471.561-1.064 1.109-1.809 1.67-1.318.931-2.841 1.735-4.643 2.442-1.95.74-3.95 1.282-5.943 1.626-.739-.28-1.555-.478-2.638-.631-1.617-.249-3.267-.28-4.369-.28-1.453.006-3.032.076-4.969.223-1.796.153-3.427.325-4.981.523-1.376.178-2.949.408-4.796.694-1.325.211-2.637.428-3.956.657l-.732.128c-.574.102-1.141.204-1.72.287a.346.346 0 0 0-.223.153.458.458 0 0 0-.07.318.4.4 0 0 0 .458.294c.918-.141 1.822-.3 2.727-.453.726-.127 1.452-.255 2.178-.37 1.745-.287 3.484-.542 5.312-.778.911-.114 1.822-.223 2.733-.318 2.484-.262 4.567-.402 6.561-.44 2.325-.051 4.083.038 5.701.293 1.108.191 1.975.44 2.726.778l-.083-.102c.332.217.695.427.994.663.198.166.357.331.484.497.102.147.191.306.261.472.045.166.09.344.115.529.019.217.013.434-.013.638a2.814 2.814 0 0 1-.146.478 3.02 3.02 0 0 1-.414.631c-.268.313-.605.619-1.051.957-1.3.924-2.841 1.587-4.179 2.11-1.459.548-3.051 1.052-5.013 1.575-1.707.472-3.35.873-4.892 1.199-.726.165-1.452.318-2.172.465l-.197.038-.102.019-.867.179a90.526 90.526 0 0 1-9.351 1.479l-.14.013c-4.949.504-10.185.708-16.988.657-3.344-.019-5.981-.096-8.3-.249a86.952 86.952 0 0 1-4.025-.331 101.988 101.988 0 0 1-4.071-.562c.128-.21.255-.459.382-.714l.141-.293.108-.217.382-.752a59 59 0 0 1 1.083-2.111.57.57 0 0 0-.185-.758.574.574 0 0 0-.35-.077.577.577 0 0 0-.408.262c-.388.637-.771 1.281-1.146 1.925-.669 1.148-1.313 2.251-2.032 3.271-.752 1.09-1.752 2.519-2.854 3.928-2.866 3.621-6.363 7.02-10.396 10.099-4.841 3.641-10.376 6.752-16.453 9.258l.236-.013c-7.306 2.901-15.141 4.91-23.288 5.955l-.172.02a92.956 92.956 0 0 1-11.504.688 85.034 85.034 0 0 1-11.822-.873l.102.083c-7.376-1.167-14.358-3.131-20.734-5.854-5.898-2.569-11.345-5.795-16.192-9.583l-.083-.07a70.488 70.488 0 0 1-12.109-12.344c-3.592-4.782-6.618-10.093-9-15.793l-.058-.096c-.038-.114-.057-.114-.063-.114-2.644-6.593-4.472-13.721-5.421-21.188l-.064.224c-.942-8.404-.802-17.114.446-25.887l-.095.134c.809-5.005 1.86-9.883 3.146-14.493 1.338-4.801 2.828-9.098 4.555-13.147a92.992 92.992 0 0 1 11.988-20.129l-.121.019-.077.083c4.147-5.126 8.498-9.462 12.95-12.866 3.465-2.589 6.994-4.642 10.491-6.096l-.166-.019c.026 0 .058-.006.083-.006a2.8 2.8 0 0 0 .548-.16l.497-.191c.197-.07.344-.159.446-.332a.755.755 0 0 0 .083-.58c-.096-.344-.472-.618-.803-.58a.773.773 0 0 0-.121.032l-.427.172c-.363.006-.732 0-1.102-.019a15.82 15.82 0 0 1-1.949-.198c-.656-.121-1.427-.293-2.172-.612a5.345 5.345 0 0 1-.58-.357 1.669 1.669 0 0 1-.184-.185c-.026-.038-.045-.083-.064-.121-.013-.121-.006-.166-.006-.21a.867.867 0 0 1 .05-.192c.096-.165.211-.337.332-.497.248-.28.446-.478.643-.631a4.24 4.24 0 0 1 .713-.389c.402-.134.822-.23 1.249-.281.879-.07 1.733-.038 2.764.115l.153.026c1.561.287 3.255.822 4.899 1.543.535.248.993.484 1.407.727.16.082.287.108.408.095Zm-85.865 35.54a1.07 1.07 0 0 0 .682-.376c.178-.224.261-.504.242-.772-.026-.268-.153-.504-.389-.733-.503-.466-.981-.95-1.452-1.447-1.414-3.488-2.427-6.625-3.096-9.596-.707-3.246-.987-6.115-.86-8.793.083-1.613.351-3.181.79-4.654a15.534 15.534 0 0 1 1.58-3.462c.605-.95 1.35-1.849 2.217-2.672a14.946 14.946 0 0 1 2.853-2.078 7.064 7.064 0 0 1 1.599-.606c.121-.026.242-.045.363-.058.255-.031.516-.051.777-.044.287.013.586.064.93.159.357.128.701.287 1.039.491.452.287.891.657 1.35 1.135.853.931 1.624 2.072 2.44 3.59 1.484 2.894 2.522 5.968 3.458 8.862l.478 1.492c.261.836.529 1.671.803 2.5.178.516.356 1.026.554 1.524.522 1.332 1.146 2.626 1.694 3.729.465.963.956 1.913 1.465 2.857.096.134.21.229.37.306a.882.882 0 0 0 .497.083.867.867 0 0 0 .21-.058.9.9 0 0 0 .509-.471c.096-.198.14-.498.026-.708l-.484-.995a98.715 98.715 0 0 1-1.332-2.78l-.063-.261-.077-.338a19.69 19.69 0 0 1-.446-5.165c.051-1.083.185-1.97.434-2.792.127-.364.267-.689.445-.988.109-.16.223-.307.357-.44.083-.077.172-.141.268-.198.07-.032.14-.051.204-.07l.063-.007c.102-.012.172-.019.242-.019.102 0 .217.019.351.058.21.076.42.178.611.299.452.294.898.676 1.395 1.205.784.842 1.478 1.767 2.236 2.799a85.07 85.07 0 0 1 2.408 3.526c.579.893 1.146 1.792 1.707 2.691l.293.459.325.523.14.223a149.257 149.257 0 0 0 2.115 3.335c1.777 2.748 3.382 4.896 5.044 6.758a46.684 46.684 0 0 0 3.058 3.124 27.354 27.354 0 0 0 2.79 2.283 66.572 66.572 0 0 0-1.688 3.679c-.739 1.721-1.478 3.653-2.325 6.083a114.384 114.384 0 0 0-4.013 14.428c-2.121 10.138-2.758 20.136-1.892 29.719.229 2.448.548 4.865.949 7.173-.872-.039-1.656-.07-2.382-.128-3.07-.248-6.338-.956-9.72-2.11l-.128-.032c-3.803-1.358-7.287-3.105-10.344-5.184-2.338-1.607-4.204-3.245-5.714-5.024-.892-1.078-1.516-2.015-1.968-2.946a6.48 6.48 0 0 1-.44-1.39 5.42 5.42 0 0 1-.057-.911c.019-.23.07-.485.146-.766.096-.242.211-.465.351-.682.153-.21.344-.427.573-.637a5.875 5.875 0 0 1 1.032-.657 8.486 8.486 0 0 1 1.847-.555c.121-.019.236-.038.35-.051a12.322 12.322 0 0 1 2.44-.064c.618.051 1.21.141 1.796.268.128.032.255.038.383.026.496-.064.91-.447 1.006-.931a1.19 1.19 0 0 0-.21-.95.992.992 0 0 0-.695-.44c-1.21-.166-2.293-.211-3.305-.147a12.612 12.612 0 0 0-3.001.574l-.152.051a46.645 46.645 0 0 1-8.619-7.173c-2.796-3.003-5.229-6.44-7.249-10.221a50.053 50.053 0 0 1-4.414-12.101h-.006c-.045.006-.058.083-.058.108-.331-1.932-.573-3.5-.738-4.941-.166-1.39-.223-2.627-.179-3.781.089-1.785.363-3.449.809-4.954.325-.995.707-1.843 1.166-2.595a7.231 7.231 0 0 1 1.025-1.263c.281-.255.58-.478.93-.682.325-.153.618-.261.898-.325.083-.019.166-.026.255-.038a4.46 4.46 0 0 1 .714-.039c.407.026.834.102 1.293.23.7.242 1.414.587 2.178 1.052.446.293.847.587 1.217.899.458.383.86.797 1.344 1.301l.478.497.076.083c.586.618 1.255 1.326 1.994 1.906.248.166.548.249.834.211Z"/><path fill="#121931" d="M377.366 160.298c1.694.249 3.478-2.378 3.981-5.859.51-3.482-.452-6.51-2.14-6.759-1.695-.249-3.478 2.378-3.988 5.859-.509 3.482.452 6.51 2.147 6.759ZM328.605 157.722c1.637.236 3.357-2.295 3.848-5.662.49-3.36-.44-6.286-2.07-6.522-1.637-.236-3.357 2.295-3.848 5.662-.497 3.36.433 6.28 2.07 6.522Z"/><path fill="#a832f3" d="M356.588 157.174c-.79.102-1.561.287-2.217.459-1.28.338-2.624.848-4.217 1.594-.752.357-1.401.733-1.994 1.154-.624.446-1.242 1.007-1.853 1.658-.529.561-1.013 1.217-1.484 2.002a8.698 8.698 0 0 0-.937 2.225c-.089.319.051.676.344.893.038.038.089.07.147.089.063.025.127.051.197.064a.79.79 0 0 0 .274.012c.491.058.994.058 1.51-.006 2.178-.281 4.217-1.677 5.745-2.869.542-.421 1.07-.867 1.593-1.314.414-.357.834-.701 1.255-1.052l.579-.484a49.77 49.77 0 0 0 1.854-1.613c.618-.568 1.191-1.199 1.688-1.741a.635.635 0 0 0 .127-.612c-.102-.268-.28-.427-.49-.459-.65-.102-1.338-.102-2.121 0Z"/><path fill="#121931" d="m360.263 155.599-.165-.198a1.038 1.038 0 0 0-.459-.223.954.954 0 0 0-.376-.096c-.153-.019-.312-.025-.465-.031-.089 0-.185.006-.274.019-.165.019-.325.057-.49.083-.491.089-.981.185-1.478.236-.452.044-.911.095-1.363.159s-.905.153-1.344.249c-.217.044-.421.108-.637.159-.382.025-.765.057-1.153.07a1.409 1.409 0 0 0-.115-.217 1.317 1.317 0 0 0-1.503-.51 8.337 8.337 0 0 0-1.51.657 1.248 1.248 0 0 0-1.363-.389c-.102.032-.197.07-.293.108a4.297 4.297 0 0 1-.267-.063c-.026-.007-.058-.013-.083-.019l-.051-.02a.9.9 0 0 0-.472-.248 1.21 1.21 0 0 0-.344-.013.737.737 0 0 0-.382.153c-.006.006-.019.013-.025.019a2.776 2.776 0 0 0-.675.134c-.453.147-.835.466-1.134.823-.363.427-.599.969-.784 1.485-.446 1.231-.643 2.531-.707 3.826-.019.542-.019 1.084.038 1.619.039.313.102.631.172.938.045.191.109.363.166.548.006.064.019.127.026.191.012.223.082.434.21.625.178.268.465.459.777.529.051.013.102 0 .153.007.07.031.146.038.216.006.421-.045.828-.287 1-.682.3-.689.561-1.39.873-2.079a13.61 13.61 0 0 1 .905-1.702 9.847 9.847 0 0 1 1.363-1.556c.541-.453 1.121-.861 1.7-1.262.166-.122.332-.249.497-.37a15.382 15.382 0 0 1 1.746-.708 14.08 14.08 0 0 1 1.777-.446c.605-.109 1.21-.179 1.822-.243.343-.038.687-.063 1.031-.089.338-.019.676 0 1.013.019.548.051 1.109.16 1.656.058a.962.962 0 0 0 .504-.172.995.995 0 0 0 .267-1.384Z"/><path fill="#121931" d="M346.492 139.117a3.282 3.282 0 0 0-1.064.332c-.644.338-1.23.905-1.695 1.632-.21.331-.394.701-.554 1.109a9.112 9.112 0 0 0-.547 1.868c-.02.077-.039.16-.058.243-.242.975-.382 2.078-.42 3.366-.038 1.333.063 2.78.312 4.432a32.222 32.222 0 0 0 .618 3.041l.044.185.051.185c-.044.197-.082.401-.121.599-.414 1.409-.681 2.978-.802 4.661-.07.969-.07 1.938-.007 2.869.064.918.242 1.76.529 2.499.287.746.739 1.352 1.306 1.754.286.21.624.357 1.025.459.465.121.937.108 1.376.076.102-.006.204-.019.3-.032a8.68 8.68 0 0 0 1.414-.318 10.611 10.611 0 0 0 1.783-.74c1.051-.536 2.09-1.237 3.287-2.206 1.083-.88 2.096-1.855 2.854-2.601.93-.925 1.771-1.76 2.56-2.646.516-.581 1.249-1.467 1.701-2.513a4.41 4.41 0 0 0 .3-2.448c-.166-1.007-.663-1.951-1.128-2.748a36.061 36.061 0 0 0-1.076-1.683l-.383-.568c-.961-1.453-1.841-2.76-2.796-4.055-1.344-1.817-2.561-3.213-3.815-4.393a11.96 11.96 0 0 0-1.994-1.543c-.739-.44-1.427-.708-2.096-.81a3.336 3.336 0 0 0-.904-.006Zm-2.88 23.349c.039-2.219.414-4.406.778-6.249.006-.044.012-.083.006-.121 1.261.128 2.51.243 3.739.313 1.274.07 2.58.076 4 .012.93-.038 1.835-.108 2.701-.223.408-.051.809-.115 1.217-.185 1.21-.21 2.274-.459 3.248-.765.013.141.026.3.026.459-.013.23-.045.453-.096.67a2.895 2.895 0 0 1-.14.395 11.435 11.435 0 0 0-2.198-.274 12.22 12.22 0 0 0-2.56.198 13.332 13.332 0 0 0-4.682 1.778 12.12 12.12 0 0 0-3.573 3.405c-.854 1.231-1.478 2.646-1.854 4.196a8.184 8.184 0 0 1-.338-.925c-.184-.74-.274-1.562-.286-2.601v-.083h.012Zm10.542-4.527a19.9 19.9 0 0 1 .86-.134c1.09-.14 2.255-.172 3.459-.089l.121.006a15.62 15.62 0 0 1-1.044 1.282c-.485.548-1.013 1.071-1.523 1.581l-.146.147c-1.771 1.759-3.771 3.672-6.09 5.043l.019-.006c-.872.497-1.694.848-2.522 1.083-.28.071-.573.128-.86.16a4.84 4.84 0 0 1-.605.045 2.728 2.728 0 0 1-.497-.064 2.12 2.12 0 0 1-.363-.153c.115-.542.255-1.078.439-1.62.325-.912.765-1.785 1.306-2.588a11.572 11.572 0 0 1 1.854-2.053 13.066 13.066 0 0 1 2.535-1.645c.962-.44 1.994-.778 3.057-.995Z"/><path fill="#cc9cf2" d="m324.789 53.877-15.663 13.925-25.218 64.608 8.873 3.468 32.008-82.001Z"/><path fill="#dccaef" d="m324.789 53.877 2.083 20.869-25.218 64.601-8.873-3.469 32.008-82.001Z"/><path fill="#121931" d="M302.119 140.195a.869.869 0 0 1-.668.012l-8.873-3.468-8.874-3.469a.874.874 0 0 1-.496-1.135l25.218-64.607a.881.881 0 0 1 .235-.338l15.664-13.931a.88.88 0 0 1 1.063-.077c.102.07.185.153.249.255a.85.85 0 0 1 .14.389l2.083 20.868a.906.906 0 0 1-.057.409l-25.219 64.607a.908.908 0 0 1-.465.485Zm-8.535-4.942 7.688 3.01 24.823-63.594-1.891-18.956-14.231 12.656-24.823 63.594 7.689 3.003a.826.826 0 0 1 .407.058.855.855 0 0 1 .338.229ZM286.813 169.638l-3.646-8.327-8.319 3.648 3.645 8.328 8.32-3.649Z"/><path fill="#121931" d="m287.163 170.449-8.319 3.647a.879.879 0 0 1-1.153-.453l-3.643-8.327a.88.88 0 0 1 .452-1.154l8.319-3.647a.878.878 0 0 1 1.153.453l3.643 8.327a.88.88 0 0 1-.452 1.154Zm-8.223 1.702 6.72-2.946-2.943-6.726-6.72 2.945 2.943 6.727Z"/><path fill="#faaf40" d="m296.35 140.33-8.68-3.395-10.171 26.059 8.68 3.394 10.171-26.058Z"/><path fill="#121931" d="m286.685 167.535-10.306-4.03 10.81-27.691 10.306 4.03-10.81 27.691Zm-8.045-5.024 7.052 2.76 9.535-24.432-7.051-2.761-9.536 24.433ZM282.519 136.417l-3.645-8.327-8.32 3.648 3.645 8.328 8.32-3.649Z"/><path fill="#121931" d="m282.876 137.23-8.319 3.647a.878.878 0 0 1-1.153-.453l-3.643-8.327a.88.88 0 0 1 .452-1.154l8.319-3.647a.877.877 0 0 1 1.153.453l3.644 8.327a.886.886 0 0 1-.453 1.154Zm-8.223 1.696 6.72-2.946-2.943-6.726-6.72 2.945 2.943 6.727ZM312.033 147.956l-3.645-8.328-8.319 3.649 3.645 8.327 8.319-3.648Z"/><path fill="#121931" d="m312.381 148.77-8.319 3.647a.878.878 0 0 1-1.153-.452l-3.643-8.327a.878.878 0 0 1 .452-1.154l8.319-3.647a.878.878 0 0 1 1.153.452l3.643 8.327a.88.88 0 0 1-.452 1.154Zm-8.223 1.696 6.72-2.945-2.943-6.727-6.72 2.946 2.943 6.726Z"/><path fill="#121931" d="m303.861 140.147-22.023-8.613-3.349 8.582 22.022 8.612 3.35-8.581Z"/><path fill="#121931" d="M300.877 149.529a.864.864 0 0 1-.668.013l-22.021-8.614a.879.879 0 0 1-.497-1.135l3.351-8.582c.166-.434.701-.663 1.134-.497l22.02 8.614a.878.878 0 0 1 .497 1.135l-3.351 8.582a.91.91 0 0 1-.465.484Zm-21.243-9.908 20.396 7.976 2.714-6.95-20.396-7.976-2.714 6.95Z"/><path fill="#fff" d="m453.345 121.143-7.192 4.074-28.899 16.374c8.643 15.162 32.212 49.694 66.965 48.26l.147-.23.267-.006c19.027-28.992 1.625-67.056-6.885-82.301l-24.403 13.829Z"/><path fill="#e6e7e8" d="m473.321 109.826-1.593.899 20.422 36.113a90.184 90.184 0 0 0-1.096-5.649l-17.733-31.363ZM467.065 113.371l-1.592.899 27.6 48.814a59.64 59.64 0 0 0 .102-3.532l-26.11-46.181ZM491.296 174.542c.23-.874.44-1.741.625-2.621l-31.104-55.005-1.593.899 32.072 56.727ZM454.561 120.461l-1.21.689-.382.216 35.11 62.083c.325-.688.644-1.377.93-2.072l-34.448-60.916ZM448.326 124.003l-1.591.902 36.683 64.873 1.591-.902-36.683-64.873ZM477.162 189.64l-34.639-61.26-1.593.899 33.983 60.093c.745.115 1.497.192 2.249.268ZM435.796 131.09l-1.592.899 31.129 55.043c.841.287 1.694.555 2.554.804l-32.091-56.746ZM429.541 134.635l-1.593.899 26.161 46.264a60.585 60.585 0 0 0 3.077 1.715l-27.645-48.878ZM439.523 170.608a90.813 90.813 0 0 0 4.261 3.819l-20.498-36.254-1.592.899 17.829 31.536Z"/><path fill="#faaf40" d="m490.01 129.683-58.951 33.399 4.958 8.768 58.951-33.4-4.958-8.767Z"/><path fill="#121931" d="m496.774 138.837-62.309 35.303a1.071 1.071 0 0 1-1.459-.401 1.073 1.073 0 0 1 .402-1.46l62.309-35.304a1.071 1.071 0 0 1 1.459.402 1.062 1.062 0 0 1-.402 1.46ZM491.927 130.261l-62.31 35.304a1.071 1.071 0 0 1-1.057-1.862l62.309-35.304a1.072 1.072 0 0 1 1.459.402 1.066 1.066 0 0 1-.401 1.46ZM491.079 135.177a1.07 1.07 0 1 1 1.86-1.06 1.07 1.07 0 0 1-1.86 1.06Zm-5.216 2.952a1.07 1.07 0 1 1 1.458.402 1.068 1.068 0 0 1-1.458-.402Zm-5.211 2.952a1.071 1.071 0 1 1 1.86-1.057 1.071 1.071 0 0 1-1.86 1.057Zm-5.217 2.958a1.074 1.074 0 0 1 .401-1.46 1.072 1.072 0 0 1 1.459.402 1.074 1.074 0 0 1-.401 1.46 1.072 1.072 0 0 1-1.459-.402Zm-5.21 2.952a1.073 1.073 0 0 1 .401-1.46 1.072 1.072 0 0 1 1.459.402 1.073 1.073 0 0 1-.402 1.46 1.063 1.063 0 0 1-1.458-.402Zm-5.217 2.952a1.074 1.074 0 0 1 .401-1.46 1.072 1.072 0 0 1 1.459.402 1.073 1.073 0 0 1-.402 1.46 1.065 1.065 0 0 1-1.458-.402Zm-5.217 2.959a1.074 1.074 0 0 1 .401-1.46 1.071 1.071 0 0 1 1.058 1.862 1.074 1.074 0 0 1-1.459-.402Zm-5.211 2.952a1.07 1.07 0 1 1 1.86-1.058 1.07 1.07 0 0 1-1.86 1.058Zm-5.216 2.952a1.073 1.073 0 0 1 .401-1.46 1.072 1.072 0 0 1 1.459.402 1.074 1.074 0 0 1-.402 1.46 1.067 1.067 0 0 1-1.458-.402Zm-5.211 2.959a1.075 1.075 0 0 1 .401-1.461 1.072 1.072 0 0 1 1.459.402 1.07 1.07 0 0 1-1.86 1.059Zm-5.217 2.952a1.075 1.075 0 0 1 .402-1.461 1.071 1.071 0 1 1-.402 1.461Zm-5.217 2.952a1.07 1.07 0 1 1 1.86-1.06 1.07 1.07 0 0 1-1.86 1.06Z"/><path fill="#faaf40" d="m481.92 196.022-39.168-69.262a2.898 2.898 0 0 1 1.096-3.953l3.516-1.995a2.9 2.9 0 0 1 3.955 1.096l39.168 69.262"/><path fill="#121931" d="M491.016 192.101a1.071 1.071 0 0 1-1.459-.401l-39.167-69.262a1.827 1.827 0 0 0-2.497-.689l-3.517 1.996a1.838 1.838 0 0 0-.694 2.499l39.168 69.262a1.074 1.074 0 0 1-.401 1.46 1.071 1.071 0 0 1-1.459-.402l-39.168-69.262a3.978 3.978 0 0 1 1.497-5.413l3.516-1.995a3.97 3.97 0 0 1 5.408 1.498l39.174 69.249a1.068 1.068 0 0 1-.401 1.46Z"/><path fill="#121931" d="M483.493 190.992a1.073 1.073 0 0 1 1.867-1.058 1.08 1.08 0 0 1-.414 1.466 1.076 1.076 0 0 1-1.453-.408Zm-2.949-5.222a1.074 1.074 0 0 1 1.867-1.058 1.08 1.08 0 0 1-.415 1.466 1.068 1.068 0 0 1-1.452-.408Zm-2.949-5.222a1.073 1.073 0 0 1 1.866-1.058 1.08 1.08 0 0 1-.414 1.466 1.06 1.06 0 0 1-1.452-.408Zm-2.956-5.215a1.074 1.074 0 0 1 1.867-1.059 1.08 1.08 0 0 1-.414 1.467 1.076 1.076 0 0 1-1.453-.408Zm-2.949-5.222a1.074 1.074 0 0 1 1.866-1.059 1.08 1.08 0 0 1-.414 1.467 1.068 1.068 0 0 1-1.452-.408Zm-2.949-5.216a1.073 1.073 0 0 1 1.866-1.058 1.072 1.072 0 0 1-1.866 1.058Zm-2.956-5.222a1.073 1.073 0 0 1 1.867-1.058 1.08 1.08 0 0 1-.414 1.466 1.07 1.07 0 0 1-1.453-.408Zm-2.949-5.215a1.074 1.074 0 0 1 1.866-1.059 1.08 1.08 0 0 1-.414 1.467 1.073 1.073 0 0 1-1.452-.408Zm-2.949-5.222a1.074 1.074 0 0 1 1.866-1.059 1.08 1.08 0 0 1-.414 1.467 1.066 1.066 0 0 1-1.452-.408Zm-2.956-5.222a1.073 1.073 0 0 1 1.867-1.059 1.08 1.08 0 0 1-.414 1.467 1.07 1.07 0 0 1-1.453-.408Zm-2.949-5.216a1.073 1.073 0 0 1 1.866-1.058 1.08 1.08 0 0 1-.414 1.466 1.073 1.073 0 0 1-1.452-.408Zm-2.949-5.222a1.074 1.074 0 0 1 .401-1.46c.516-.293 1.172-.114 1.465.402s.102 1.173-.414 1.466a1.065 1.065 0 0 1-1.452-.408Zm-2.956-5.215a1.073 1.073 0 0 1 1.867-1.059 1.08 1.08 0 0 1-.414 1.467 1.076 1.076 0 0 1-1.453-.408Z"/><path fill="#cc9cf2" d="m480.786 95.678-30.225 17.125-10.421 5.905-6.045 3.423-28.352 16.062s30.009 66.201 83.419 59.914h.007v-.006h.006c32.875-42.591-8.389-102.423-8.389-102.423Zm3.847 93.943-.267.006-.147.23c-34.753 1.428-58.322-33.104-66.965-48.26l28.899-16.373 7.192-4.074 24.403-13.824c8.516 15.239 25.912 53.304 6.885 82.295Z"/><path fill="#121931" d="M489.697 199.051s-.006 0-.006.006c-.153.09-.319.134-.484.141-22.173 2.582-43.812-7.084-62.583-27.959-14.129-15.704-21.785-32.422-21.862-32.587a1.081 1.081 0 0 1 .446-1.378l75.049-42.52a1.065 1.065 0 0 1 1.408.324c.102.153 10.478 15.328 16.663 35.534 8.217 26.855 5.357 50.401-8.268 68.101a1.145 1.145 0 0 1-.363.338Zm-82.565-60.412c1.764 3.628 9.045 17.789 21.116 31.197 12.689 14.098 33.441 30.229 60.347 27.264 16.396-21.576 13.25-47.705 7.689-65.87-5.281-17.253-13.644-30.758-15.836-34.13l-73.316 41.539Z"/><path fill="#121931" d="M484.748 190.788a1.057 1.057 0 0 1-.484.14c-35.384 1.454-59.296-33.646-67.94-48.802a1.074 1.074 0 0 1 .401-1.466l60.494-34.277a1.07 1.07 0 0 1 .815-.102c.274.076.504.261.644.51 8.51 15.245 26.218 53.889 6.847 83.41-.14.211-.35.37-.586.44a.819.819 0 0 1-.191.147Zm-66.029-48.789c8.822 15.194 31.721 47.845 64.959 46.812.095-.076.21-.146.325-.185 17.918-27.907 1.783-64.41-6.669-79.833l-58.615 33.206Z"/></g><g style="animation:eLU9XPKhApY100_tr__tr 15000ms linear infinite normal forwards" transform="translate(412.393 177.304)"><g transform="matrix(1.53668 0 0 1.53669 -555.09 -226.335)"><path fill="#ffc97a" d="m358.82 105.847 2.41 31.685 36.474-11.22-33.243 17.475 33.243 24.666-36.473-18.246-3.167 34.092-3.482-34.092-29.878 18.246 27.81-25.17-27.81-16.97 29.878 11.219 4.238-31.685z"/><path fill="#faaf40" d="m381.216 113.435-18.19 28.605 38.982 10.106-37.331-4.103 13.767 39.039-20.035-35.523-21.69 26.493 16.178-30.21-34.973-1.582 37.13-5.314-13.566-29.621 18.497 26.008 21.231-23.898z"/></g></g><g style="animation:eLU9XPKhApY103_to__to 15000ms linear infinite normal forwards" transform="translate(515.075 184.977)"><g style="animation:eLU9XPKhApY103_ts__ts 15000ms linear infinite normal forwards" transform="scale(.57127)"><path fill="#ffc97a" d="M31.5 0C13.18 7.28 7.28 13.18 0 31.5-7.28 13.18-13.18 7.28-31.5 0-13.18-7.28-7.28-13.18 0-31.5 7.28-13.18 13.18-7.28 31.5 0Z"/></g></g><g style="animation:eLU9XPKhApY104_to__to 15000ms linear infinite normal forwards" transform="translate(556.677 128.068)"><g style="animation:eLU9XPKhApY104_ts__ts 15000ms linear infinite normal forwards" transform="scale(.94081)"><path fill="#ffc97a" d="M31.5 0C13.18 7.28 7.28 13.18 0 31.5-7.28 13.18-13.18 7.28-31.5 0-13.18-7.28-7.28-13.18 0-31.5 7.28-13.18 13.18-7.28 31.5 0Z"/></g></g></svg>