<svg xmlns="http://www.w3.org/2000/svg" id="eD8y4Cv9Iqc1" shape-rendering="geometricPrecision" text-rendering="geometricPrecision" viewBox="0 0 3840 850"><style>@keyframes eD8y4Cv9Iqc6_to__to{0%{transform:translate(1510.439374px,1295.809151px)}to{transform:translate(1510.439374px,1312.809151px)}}@keyframes eD8y4Cv9Iqc7_to__to{0%{transform:translate(1509.236225px,1317.02255px)}to{transform:translate(1509.236225px,1336.02255px)}}@keyframes eD8y4Cv9Iqc8_to__to{0%{transform:translate(1510.439375px,1337.489134px)}to{transform:translate(1510.439375px,1358.489134px)}}@keyframes eD8y4Cv9Iqc9_to__to{0%{transform:translate(1509.236226px,1361.351405px)}to{transform:translate(1509.236226px,1389.351405px)}}@keyframes eD8y4Cv9Iqc10_to__to{0%{transform:translate(1509.236196px,1390.336126px)}to{transform:translate(1509.236196px,1425.336126px)}}@keyframes eD8y4Cv9Iqc11_to__to{0%{transform:translate(1504.964043px,1427.755639px)}to{transform:translate(1504.964043px,1469.755639px)}}@keyframes eD8y4Cv9Iqc12_to__to{0%{transform:translate(1504.964043px,1470.167185px)}to{transform:translate(1504.964043px,1525.167185px)}}@keyframes eD8y4Cv9Iqc13_to__to{0%{transform:translate(1504.964043px,1526.919465px)}to{transform:translate(1504.964043px,1595.919465px)}}@keyframes eD8y4Cv9Iqc14_to__to{0%{transform:translate(1504.964043px,1596.841537px)}to{transform:translate(1504.964043px,1688.841537px)}}@keyframes eD8y4Cv9Iqc15_to__to{0%{transform:translate(1504.964043px,1690.549289px)}to{transform:translate(1504.964043px,1823.549289px)}}@keyframes eD8y4Cv9Iqc16_to__to{0%{transform:translate(1504.964043px,1824.344851px)}to{transform:translate(1504.964043px,2002.344851px)}}</style><defs><linearGradient id="eD8y4Cv9Iqc46-fill" x1=".5" x2=".5" y1="0" y2="1" gradientUnits="objectBoundingBox" spreadMethod="pad"><stop id="eD8y4Cv9Iqc46-fill-0" offset="0%" stop-color="rgba(255,255,255,0)"/><stop id="eD8y4Cv9Iqc46-fill-1" offset="73%" stop-color="#fff"/></linearGradient></defs><g mask="url(#eD8y4Cv9Iqc45)" transform="translate(3.069 -1152.664)"><g><path fill="none" stroke="#9d19f1" stroke-width="2" d="m5.691 1929.576 1349.965-634.642M-1.188 1766.565l1233.867-471.631"/><g style="animation:eD8y4Cv9Iqc6_to__to 1000ms linear infinite normal forwards" transform="translate(1510.44 1295.81)"><path fill="none" stroke="#a832f3" stroke-width="2" d="M-1508.033 0H2329.56"/></g><g style="animation:eD8y4Cv9Iqc7_to__to 1000ms linear infinite normal forwards" transform="translate(1509.236 1317.023)"><path fill="none" stroke="#a832f3" stroke-width="2" d="M-1508.033 0H2329.56"/></g><g style="animation:eD8y4Cv9Iqc8_to__to 1000ms linear infinite normal forwards" transform="translate(1510.44 1337.49)"><path fill="none" stroke="#a832f3" stroke-width="2" d="M-1508.033 0H2329.56"/></g><g style="animation:eD8y4Cv9Iqc9_to__to 1000ms linear infinite normal forwards" transform="translate(1509.236 1361.351)"><path fill="none" stroke="#a832f3" stroke-width="2" d="M-1508.033 0H2329.56"/></g><g style="animation:eD8y4Cv9Iqc10_to__to 1000ms linear infinite normal forwards" transform="translate(1509.236 1390.336)"><path fill="none" stroke="#a832f3" stroke-width="2" d="M-1508.033 0H2329.56"/></g><g style="animation:eD8y4Cv9Iqc11_to__to 1000ms linear infinite normal forwards" transform="translate(1504.964 1427.756)"><path fill="none" stroke="#a832f3" stroke-width="2" d="M-1508.033 0H2329.56"/></g><g style="animation:eD8y4Cv9Iqc12_to__to 1000ms linear infinite normal forwards" transform="translate(1504.964 1470.167)"><path fill="none" stroke="#a832f3" stroke-width="2" d="M-1508.033 0H2329.56"/></g><g style="animation:eD8y4Cv9Iqc13_to__to 1000ms linear infinite normal forwards" transform="translate(1504.964 1526.92)"><path fill="none" stroke="#a832f3" stroke-width="2" d="M-1508.033 0H2329.56"/></g><g style="animation:eD8y4Cv9Iqc14_to__to 1000ms linear infinite normal forwards" transform="translate(1504.964 1596.842)"><path fill="none" stroke="#a832f3" stroke-width="2" d="M-1508.033 0H2329.56"/></g><g style="animation:eD8y4Cv9Iqc15_to__to 1000ms linear infinite normal forwards" transform="translate(1504.964 1690.55)"><path fill="none" stroke="#a832f3" stroke-width="2" d="M-1508.033 0H2329.56"/></g><g style="animation:eD8y4Cv9Iqc16_to__to 1000ms linear infinite normal forwards" transform="translate(1504.964 1824.345)"><path fill="none" stroke="#a832f3" stroke-width="2" d="M-1508.033 0H2329.56"/></g><path fill="none" stroke="#9d19f1" stroke-width="2" d="m2.174 1655.54 1101.363-359.474M2.174 1571.375l968.261-274.446M.377 1508.33l842.56-211.4M.377 1460.289l708.645-163.36M-.57 1420.044l630.634-125.11M2.174 1385.085l489.705-90.151M.377 1357.49l354.882-61.04M.377 1333.417l246.65-37.515M.377 1312.915l117.122-17.013M308.825 2004.393l1169.789-709.26M763.572 2003.46l836.724-708.526M1224.37 2003.915l498.942-708.188M1684.993 2004.313l155.402-708.854M2149.567 2002.97l-181.44-707.58M2605.46 2002.97l-513.605-706.904M3067.558 2003.73l-852.114-708.003M3528.334 2003.705l-1188.948-707.86M3840 1934.535l-1381.481-639.601M3840 1772.026l-1255.993-476.462M3840 1659.332l-1130.481-363.523M3840 1576.636 2831.967 1295.68M3840 1513.322l-884.084-216.988M3840 1463.31l-761.917-167.303M3840 1422.821l-633.145-126.977M3840 1390.336l-512.678-94.212M3840 1361.351l-390.59-65.285M3840 1337.49l-263.18-41.704M3840.768 1317.023l-146.188-21.016"/></g><mask id="eD8y4Cv9Iqc45" width="400%" height="400%" x="-150%" y="-150%" mask-type="luminance"><rect width="983.299" height="528.201" fill="url(#eD8y4Cv9Iqc46-fill)" stroke-width="0" rx="0" ry="0" transform="matrix(3.90562 0 0 1.76043 .378 1232.065)"/></mask></g></svg>