<svg xmlns="http://www.w3.org/2000/svg" id="eY32lCcox8h1" shape-rendering="geometricPrecision" text-rendering="geometricPrecision" viewBox="0 0 3840 2160"><style>@keyframes eY32lCcox8h7_to__to{0%{transform:translate(1510.439374px,1295.809151px)}to{transform:translate(1510.439374px,1312.809151px)}}@keyframes eY32lCcox8h8_to__to{0%{transform:translate(1509.236225px,1317.02255px)}to{transform:translate(1509.236225px,1336.02255px)}}@keyframes eY32lCcox8h9_to__to{0%{transform:translate(1510.439375px,1337.489134px)}to{transform:translate(1510.439375px,1358.489134px)}}@keyframes eY32lCcox8h10_to__to{0%{transform:translate(1509.236226px,1361.351405px)}to{transform:translate(1509.236226px,1389.351405px)}}@keyframes eY32lCcox8h11_to__to{0%{transform:translate(1509.236196px,1390.336126px)}to{transform:translate(1509.236196px,1425.336126px)}}@keyframes eY32lCcox8h12_to__to{0%{transform:translate(1504.964043px,1427.755639px)}to{transform:translate(1504.964043px,1469.755639px)}}@keyframes eY32lCcox8h13_to__to{0%{transform:translate(1504.964043px,1470.167185px)}to{transform:translate(1504.964043px,1525.167185px)}}@keyframes eY32lCcox8h14_to__to{0%{transform:translate(1504.964043px,1526.919465px)}to{transform:translate(1504.964043px,1595.919465px)}}@keyframes eY32lCcox8h15_to__to{0%{transform:translate(1504.964043px,1596.841537px)}to{transform:translate(1504.964043px,1688.841537px)}}@keyframes eY32lCcox8h16_to__to{0%{transform:translate(1504.964043px,1690.549289px)}to{transform:translate(1504.964043px,1823.549289px)}}@keyframes eY32lCcox8h17_to__to{0%{transform:translate(1504.964043px,1824.344851px)}to{transform:translate(1504.964043px,2002.344851px)}}</style><defs><radialGradient id="eY32lCcox8h2-fill" cx="0" cy="0" r="1" gradientTransform="matrix(553.429 0 0 533.267 553.422 533.271)" gradientUnits="userSpaceOnUse" spreadMethod="pad"><stop id="eY32lCcox8h2-fill-0" offset="4.52%" stop-color="#fbd4c1"/><stop id="eY32lCcox8h2-fill-1" offset="6.24%" stop-color="#faccbe"/><stop id="eY32lCcox8h2-fill-2" offset="23.27%" stop-color="#f582a1"/><stop id="eY32lCcox8h2-fill-3" offset="37.39%" stop-color="#f14c8b"/><stop id="eY32lCcox8h2-fill-4" offset="47.9%" stop-color="#ee2b7e"/><stop id="eY32lCcox8h2-fill-5" offset="53.62%" stop-color="#ed1e79"/><stop id="eY32lCcox8h2-fill-6" offset="62.31%" stop-color="rgba(182,29,107,0.8125)"/><stop id="eY32lCcox8h2-fill-7" offset="71.68%" stop-color="rgba(129,28,95,0.6107)"/><stop id="eY32lCcox8h2-fill-8" offset="80.45%" stop-color="rgba(87,27,84,0.4214)"/><stop id="eY32lCcox8h2-fill-9" offset="88.37%" stop-color="rgba(58,26,77,0.2508)"/><stop id="eY32lCcox8h2-fill-10" offset="95.15%" stop-color="rgba(39,26,73,0.1046)"/><stop id="eY32lCcox8h2-fill-11" offset="100%" stop-color="rgba(33,26,71,0)"/></radialGradient><linearGradient id="eY32lCcox8h47-fill" x1=".5" x2=".5" y1="0" y2="1" gradientUnits="objectBoundingBox" spreadMethod="pad"><stop id="eY32lCcox8h47-fill-0" offset="0%" stop-color="rgba(255,255,255,0)"/><stop id="eY32lCcox8h47-fill-1" offset="73%" stop-color="#fff"/></linearGradient></defs><path fill="url(#eY32lCcox8h2-fill)" d="M553.43 1066.54c305.651 0 553.43-238.753 553.43-533.27S859.081 0 553.43 0C247.779 0 0 238.753 0 533.27s247.779 533.27 553.43 533.27Z" opacity=".7" transform="matrix(1.9449 0 0 2.02524 844.838 9)"/><g mask="url(#eY32lCcox8h46)"><g><path fill="none" stroke="#9d19f1" stroke-width="2" d="m5.691 1929.576 1349.965-634.642M-1.188 1766.565l1233.867-471.631"/><g style="animation:eY32lCcox8h7_to__to 1000ms linear infinite normal forwards" transform="translate(1510.44 1295.81)"><path fill="none" stroke="#a832f3" stroke-width="2" d="M-1508.033 0H2329.56"/></g><g style="animation:eY32lCcox8h8_to__to 1000ms linear infinite normal forwards" transform="translate(1509.236 1317.023)"><path fill="none" stroke="#a832f3" stroke-width="2" d="M-1508.033 0H2329.56"/></g><g style="animation:eY32lCcox8h9_to__to 1000ms linear infinite normal forwards" transform="translate(1510.44 1337.49)"><path fill="none" stroke="#a832f3" stroke-width="2" d="M-1508.033 0H2329.56"/></g><g style="animation:eY32lCcox8h10_to__to 1000ms linear infinite normal forwards" transform="translate(1509.236 1361.351)"><path fill="none" stroke="#a832f3" stroke-width="2" d="M-1508.033 0H2329.56"/></g><g style="animation:eY32lCcox8h11_to__to 1000ms linear infinite normal forwards" transform="translate(1509.236 1390.336)"><path fill="none" stroke="#a832f3" stroke-width="2" d="M-1508.033 0H2329.56"/></g><g style="animation:eY32lCcox8h12_to__to 1000ms linear infinite normal forwards" transform="translate(1504.964 1427.756)"><path fill="none" stroke="#a832f3" stroke-width="2" d="M-1508.033 0H2329.56"/></g><g style="animation:eY32lCcox8h13_to__to 1000ms linear infinite normal forwards" transform="translate(1504.964 1470.167)"><path fill="none" stroke="#a832f3" stroke-width="2" d="M-1508.033 0H2329.56"/></g><g style="animation:eY32lCcox8h14_to__to 1000ms linear infinite normal forwards" transform="translate(1504.964 1526.92)"><path fill="none" stroke="#a832f3" stroke-width="2" d="M-1508.033 0H2329.56"/></g><g style="animation:eY32lCcox8h15_to__to 1000ms linear infinite normal forwards" transform="translate(1504.964 1596.842)"><path fill="none" stroke="#a832f3" stroke-width="2" d="M-1508.033 0H2329.56"/></g><g style="animation:eY32lCcox8h16_to__to 1000ms linear infinite normal forwards" transform="translate(1504.964 1690.55)"><path fill="none" stroke="#a832f3" stroke-width="2" d="M-1508.033 0H2329.56"/></g><g style="animation:eY32lCcox8h17_to__to 1000ms linear infinite normal forwards" transform="translate(1504.964 1824.345)"><path fill="none" stroke="#a832f3" stroke-width="2" d="M-1508.033 0H2329.56"/></g><path fill="none" stroke="#9d19f1" stroke-width="2" d="m2.174 1655.54 1101.363-359.474M2.174 1571.375l968.261-274.446M.377 1508.33l842.56-211.4M.377 1460.289l708.645-163.36M-.57 1420.044l630.634-125.11M2.174 1385.085l489.705-90.151M.377 1357.49l354.882-61.04M.377 1333.417l246.65-37.515M.377 1312.915l117.122-17.013M308.825 2004.393l1169.789-709.26M763.572 2003.46l836.724-708.526M1224.37 2003.915l498.942-708.188M1684.993 2004.313l155.402-708.854M2149.567 2002.97l-181.44-707.58M2605.46 2002.97l-513.605-706.904M3067.558 2003.73l-852.114-708.003M3528.334 2003.705l-1188.948-707.86M3840 1934.535l-1381.481-639.601M3840 1772.026l-1255.993-476.462M3840 1659.332l-1130.481-363.523M3840 1576.636 2831.967 1295.68M3840 1513.322l-884.084-216.988M3840 1463.31l-761.917-167.303M3840 1422.821l-633.145-126.977M3840 1390.336l-512.678-94.212M3840 1361.351l-390.59-65.285M3840 1337.49l-263.18-41.704M3840.768 1317.023l-146.188-21.016"/></g><mask id="eY32lCcox8h46" width="400%" height="400%" x="-150%" y="-150%" mask-type="luminance"><rect width="983.299" height="528.201" fill="url(#eY32lCcox8h47-fill)" stroke-width="0" rx="0" ry="0" transform="matrix(3.90562 0 0 1.76043 .378 1232.065)"/></mask></g></svg>