<svg xmlns="http://www.w3.org/2000/svg" id="evFonu0gCEQ1" shape-rendering="geometricPrecision" text-rendering="geometricPrecision" viewBox="0 0 1200 837"><style>@keyframes evFonu0gCEQ4_to__to{0%{transform:translate(145.060111px,161.636496px)}65%{transform:translate(135.724057px,160.445177px)}to{transform:translate(145.06px,161.64px)}}@keyframes evFonu0gCEQ4_tr__tr{0%,to{transform:rotate(0deg)}60%{transform:rotate(-13deg)}}@keyframes evFonu0gCEQ42_to__to{0%{transform:translate(135.448009px,298.4785px)}42.5%{transform:translate(135.448009px,300.38392px)}to{transform:translate(135.448009px,298.48px)}}@keyframes evFonu0gCEQ42_tr__tr{0%,to{transform:rotate(0deg)}40%{transform:rotate(-13deg)}}@keyframes evFonu0gCEQ43_to__to{0%{transform:translate(133.551502px,407.803757px)}30%{transform:translate(132.598792px,402.087497px)}to{transform:translate(133.55px,407.8px)}}@keyframes evFonu0gCEQ43_tr__tr{0%,to{transform:rotate(0deg)}40%{transform:rotate(15deg)}}@keyframes evFonu0gCEQ44_to__to{0%{transform:translate(98.913803px,243.464012px)}35%{transform:translate(98.913803px,250.132982px)}to{transform:translate(98.913803px,243.46px)}}@keyframes evFonu0gCEQ44_tr__tr{0%,to{transform:rotate(0deg)}30%{transform:rotate(-17deg)}}@keyframes evFonu0gCEQ45_tr__tr{0%,to{transform:translate(48.116501px,304.027237px) rotate(0deg)}52.5%{transform:translate(48.116501px,304.027237px) rotate(-8deg)}}@keyframes evFonu0gCEQ46_tr__tr{0%,to{transform:translate(129.927664px,178.900162px) rotate(0deg)}72.5%{transform:translate(129.927664px,178.900162px) rotate(18deg)}}@keyframes evFonu0gCEQ47_to__to{0%{transform:translate(62.602171px,278.993652px)}20%{transform:translate(58.314976px,278.993652px)}to{transform:translate(62.6px,278.993652px)}}@keyframes evFonu0gCEQ47_tr__tr{0%,to{transform:rotate(0deg)}40%{transform:rotate(-10deg)}}@keyframes evFonu0gCEQ48_tr__tr{0%,to{transform:translate(141.243187px,363.576523px) rotate(0deg)}75%{transform:translate(141.243187px,363.576523px) rotate(-5deg)}}</style><g transform="translate(47.528 -150.99) scale(2.10321)"><path fill="#faaf40" d="M548.214 415.7c-53.435-22.116-172.517-74.767-182.149-69.251-30.897 10.914-104.335 14.598-122.368 24.965-4.591-9.082 1.263-35.9-11.312-47.285s-30.768-17.853-36.729-32.055c-5.951-14.18-5.512-36.896-19.414-48.409-13.913-11.524-37.928-13.806-32.77-22.085 5.169-8.278-2.804-31.659-11.89-42.958-5.897-4.241-11.13-4.38-2.493 8.526 8.647 12.905 10.841 30.898 5.629 35.728-5.212 4.841-3.029 16.301 15.422 20.424 6.389 1.425 11.14 5.409 14.94 10.593-21.223-7.101-46.715-8.258-48.117-8.333l-.203 5.966c.374.021 32.481 1.478 53.328 10.753 4.185 8.471 7.117 18.089 10.52 25.393 7.074 15.123 3.446 30.77 24.487 39.767 21.04 8.996 25.492 33.833 22.367 36.735-7.085-.557-27.408-29.624-42.562-32.848-15.176-3.223-51.113-6.276-77.89-9.167-10.97-2.121-33.69-28.81-37.136-31.97-5.736-1.971-4.677 3.577 2.58 12.916 7.255 9.34 16.534 27.879 43.781 27.632 27.248-.257 60.285 9.875 73.47 21.913 10.445 9.543 20.57 22.962 30.672 30.931-10.466 1.456-20.847 4.402-27.953 9.96a33.269 33.269 0 0 1-2.879 1.981c-16.096-11.566-33.605-12.337-34.375-12.359l-.075 2.977c.16 0 14.48 3.685 28.178 12.606-12.5 5.334-27.451 6.48-27.643 6.501l.278 2.464c1.07-.075 26.777 1.531 41.075-9.672 7.609-5.954 20.312-8.396 31.753-9.307 12.799 5.495 33.037 8.633 59.6-5.954 26.84-14.748 70.152-12.831 94.146-15.53 14.79-1.66 126.038 57.042 165.743 74.617V415.7h-.011Z"/><g style="animation:evFonu0gCEQ4_to__to 4000ms linear infinite normal forwards" transform="translate(145.06 161.636)"><g style="animation:evFonu0gCEQ4_tr__tr 4000ms linear infinite normal forwards"><path fill="#a832f3" d="M-6.412 33.705C20.654 31.724 29.257-7.187-2.4-34.883-20.401-18.946-35.286 9.04-6.412 33.705Z"/></g></g><path fill="#a832f3" d="m469.907 219.588.974 1.735c1.07 1.907 2.14 3.813 3.157 5.741l.492.921a92.573 92.573 0 0 1 1.681 3.234c.834 1.714 1.487 3.117 2.044 4.434.299.707.567 1.414.835 2.132.289.771.567 1.542.813 2.324.482 1.563.835 3.02 1.081 4.466.556 3.299.481 6.383-.214 9.2-.3 1.21-.781 2.442-1.434 3.631-.268.492-.589.996-.964 1.499-.224.3-.46.6-.717.889-.16.193-.342.375-.513.546l-.246.246c-.129.14-.289.247-.471.322a87.46 87.46 0 0 1 1.145 5.655c.439 2.731.631 4.991.631 7.122 0 1.06-.064 2.11-.182 3.138-.107.889-.267 1.928-.588 2.977l-.075.225a5.211 5.211 0 0 1-.268 1.532c-.214.61-.588 1.21-1.113 1.799-.449.482-1.027.889-1.787 1.221-.813.364-1.616.589-2.461.664-.536.086-1.039.139-1.542.15-.631 0-1.22-.075-1.712-.15-.995-.129-2.033-.407-3.157-.825l-.578-.225c.91 1.35 1.894 2.71 2.9 4.027a76.427 76.427 0 0 0 3.297 3.92 131.231 131.231 0 0 0 3.606 3.824c1.038 1.039 2.141 2.045 3.221 3.02l.621.568a152.065 152.065 0 0 0 3.949 3.491 372.167 372.167 0 0 0 8.155 6.769l2.237 1.788a436.856 436.856 0 0 1 6.068 4.927 261.46 261.46 0 0 1 4.602 3.899c1.787 1.552 3.178 2.881 4.388 4.166 1.637 1.756 2.868 3.384 3.767 4.991 1.092 1.96 1.616 3.866 1.552 5.676-.022.535-.278.975-.707 1.232-.224.128-.46.192-.717.192a1.42 1.42 0 0 1-.717-.192c-.128-.065-.267-.118-.396-.182-.139-.065-.278-.108-.417-.161.128.428.278.867.439 1.296l.171.503c.246.686.482 1.36.685 2.056.182.632.417 1.596.364 2.528a4.277 4.277 0 0 1-1.317 2.849c-.663.643-1.605.996-2.632.996-.097 0-.204 0-.3-.011-1.166-.085-2.258-.524-3.275-.985-.899-.418-1.787-.921-2.547-1.36.075.246.118.514.15.782.096.856.086 2.056-.557 2.934a3.63 3.63 0 0 1-.727.739c-.225.172-.471.268-.696.354-.353.139-.76.203-1.22.203-.128 0-.257 0-.375-.011-1.637-.139-3.189-.899-4.516-1.617-2.579-1.371-5.073-3.416-7.834-6.404a378.503 378.503 0 0 1-3.339-3.642 83.178 83.178 0 0 0-3.307-3.438c.311 1.66.471 3.031.525 4.327.032 1.007.01 2.174-.428 3.202-.354.814-1.092 1.318-1.937 1.318-.065 0-.14 0-.204-.011-1.134-.107-2.087-.793-2.964-1.489-1.006-.792-1.905-1.735-2.665-2.559a74.661 74.661 0 0 1-2.087-2.399 132.969 132.969 0 0 1-3.66-4.509c-5.073-6.544-8.776-12.253-11.655-17.94-.374-.728-.738-1.467-1.091-2.195-.439-.889-.878-1.767-1.327-2.646l-.546-1.039a36.639 36.639 0 0 1-.739-1.435c-.46-.899-.92-1.799-1.402-2.688-.856-1.596-1.637-3.277-2.386-4.894l-.161-.343a94.246 94.246 0 0 1-1.134-2.538c-.15-.354-.3-.707-.439-1.071-1.798 2.142-3.96 4.219-6.764 6.511-.92.75-1.851 1.5-2.782 2.239l-1.713 1.371a65.942 65.942 0 0 0-1.894 1.553l-.225.192-.545.482-.546.482-.161.129c-.299.267-.62.546-.877.857-.236.289-.653.407-.963.428a.52.52 0 0 1-.054.685.532.532 0 0 1-.396.161c-.139 0-.31-.054-.396-.161-.128-.171-.257-.342-.364-.524s-.192-.386-.278-.579a7.89 7.89 0 0 1-.31-.857c-.311-.482-.535-1.017-.707-1.467-.331-.889-.417-1.863-.449-2.517-.054-.857.043-1.692.192-2.699.118-.803.354-1.67.685-2.666.268-.793.621-1.639 1.113-2.667.396-.846.824-1.671 1.285-2.453.438-.728.867-1.392 1.316-2.013-.631.096-1.274.139-1.937.139-.289 0-.567-.011-.856-.022-2.162-.107-4.078-.599-5.704-1.467-1.788-.953-3.008-2.463-3.35-4.134-.482-2.313.514-4.327 1.434-5.612 0-.311.118-.621.342-.857.675-.717 1.392-1.403 2.098-2.088l.738-.718a134.582 134.582 0 0 0 3.04-3.052 89.672 89.672 0 0 0 5.533-6.383l.449-.579a46.565 46.565 0 0 0 3.168-4.734 42.63 42.63 0 0 0 2.536-4.98l-.01.032a39.04 39.04 0 0 0 1.209-3.288c0-.01.011-.075.022-.075l.021-.053c.214-2.078.225-3.92.011-5.687a34.624 34.624 0 0 0-.45-2.26c-.064-.268-.139-.535-.203-.814-.15-.6-.311-1.199-.407-1.821-.043-.267-.064-.535.011-.824 3.724-1.639 7.085-3.353 10.199-5.195l.16-.075 1.124-.567 1.509-.771c2.001-1.039 3.81-2.367 5.169-3.406 0 0-.043.032-.032.043l-.021.021c1.798-1.435 3.349-2.774 4.709-4.113a45.625 45.625 0 0 0 4.045-4.551c.343-.386.674-.761 1.006-1.146.45-.536.91-1.125 1.327-1.768.268-.407.525-.846.781-1.295.032-.011.075-.011.118-.011a.68.68 0 0 1 .321.086.678.678 0 0 1 .171.139.76.76 0 0 1 .289-.322.87.87 0 0 1 .439-.117.766.766 0 0 1 .717.417ZM365.251 89.204a5.274 5.274 0 0 1 1.681.332c.984.353 1.937.878 3.007 1.66 2.226 1.628 4.249 3.534 6.111 5.366l.974.964c.438.428.867.867 1.305 1.285.664.653 1.402 1.285 2.398 2.056 5.458 4.167 11.568 7.551 17.476 10.807l.514.278c6.036 3.342 12.393 7.122 17.926 12.06 2.525 2.249 5.18 4.809 8.112 7.839 2.9 2.978 5.415 5.784 7.684 8.601 2.526 3.116 4.709 6.222 6.485 9.242 1.916 3.256 3.425 6.009 4.742 8.643 1.755 3.524 3.039 6.716 3.916 9.747.782 2.666 1.178 5.205 1.199 7.54a.68.68 0 0 1 .31.096.993.993 0 0 1 .45.653.75.75 0 0 1-.118.611c-.246.332-.503.653-.77.964-.043.364-.268.61-.568.631-1.091 1.157-2.311 2.132-3.349 2.935a100.35 100.35 0 0 1-6.058 4.327c-2.354 1.542-4.623 3.159-6.335 4.402l-.214.15a106.171 106.171 0 0 1-3.371 2.388c-.6.407-1.21.803-1.831 1.189-.717.439-1.455.814-2.29 1.146a1.594 1.594 0 0 1-.385.053h-.129a1.253 1.253 0 0 1-.642.172c-.471 0-.888-.225-1.07-.6-.503-1.05-1.038-2.067-1.573-3.095-.91-1.746-1.862-3.556-2.622-5.43-.557-1.382-.995-2.881-1.359-4.563-.182-.867-.289-1.767-.396-2.624l-.022-.16a68.525 68.525 0 0 1-.256-2.624c-.247-2.988-.268-6.041-.311-8.997-.043-3.759-.085-7.647-.556-11.449a46.332 46.332 0 0 0-.824-4.487 40.627 40.627 0 0 0-.642-2.282c-.15-.492-.322-.974-.493-1.456-.118-.354-.246-.707-.364-1.071a1.392 1.392 0 0 1-.021-.728l-.674-.793a58.455 58.455 0 0 0-4.955-4.937c-1.563-1.382-3.361-2.742-5.491-4.177a56.849 56.849 0 0 0-7.009-3.952 67.072 67.072 0 0 0-7.417-2.967l-.128-.043c-6.732-2.174-14.234-3.545-22.956-4.198l-.964.032-.941.021c-1.83.065-3.671.14-5.501.257-3.949.258-7.524.654-10.927 1.232l.278-.075c-5.683 1.018-10.563 2.485-14.897 4.488-3.093 1.478-5.929 3.277-8.433 5.333a48.666 48.666 0 0 0-3.254 3.063c-.92.975-1.819 2.089-2.825 3.513-2.387 3.46-4.399 7.487-6.132 12.295-1.723 4.852-3.072 10.325-4.164 16.74-.363 2.142-.684 4.413-1.038 7.155-.085.814-.171 1.627-.246 2.431 0 0 0-.054-.01-.054v-.043a218.656 218.656 0 0 0-.439 6.758c-.022.45-.246.814-.6.986-.192.193-.47.31-.738.321-.353 0-.674-.15-.888-.407a.668.668 0 0 1-.172.021h-.096c-.16-.107-.321-.214-.481-.31-.343-.214-.685-.439-1.049-.664a1.798 1.798 0 0 1-.075-.225 13.119 13.119 0 0 1-.193-1.66c-.021-.504 0-.996.022-1.489.042-.985.149-1.992.256-2.977l.022-.193c.182-1.703.46-3.417.728-5.066l.128-.825c.139-.846.3-1.681.46-2.527a94.56 94.56 0 0 0 .535-2.988l.353-2.303c.161-.985.311-1.971.461-2.956.192-1.392.438-2.784.685-4.187l.192-1.125c.268-1.564.621-3.417 1.103-5.269.567-2.185 1.113-3.974 1.723-5.634a1.496 1.496 0 0 1-.375-.407c-.203-.321-.353-.835-.225-1.274.878-2.892 2.173-5.848 3.864-8.772a51.075 51.075 0 0 1 2.739-4.23 43.587 43.587 0 0 1 2.965-3.77c2.001-2.292 4.366-4.509 7.224-6.79a48.269 48.269 0 0 1 3.928-2.807 47.806 47.806 0 0 1 4.173-2.42c.354-.182.696-.343 1.049-.503.054-.022.107-.054.161-.075.813-.375 1.541-.718 2.269-1.039.834-.354 1.69-.664 2.504-.943a45.253 45.253 0 0 1 4.944-1.435 50.34 50.34 0 0 1 5.009-.835 50.099 50.099 0 0 1-4.174-1.264 21.674 21.674 0 0 1-2.569-1.071 7.417 7.417 0 0 1-.931-.546c-.364-.247-.695-.461-.974-.761-.289-.3-.513-.589-.684-1.028a2.012 2.012 0 0 1-.086-1.157c.193-.771.76-1.349 1.744-1.777.546-.236 1.167-.3 1.648-.343.225-.022.45-.022.675-.022.492 0 .974.033 1.455.075 1.595.14 3.147.515 4.602.9l-.203-.118-.118-.075c-.963-.696-1.712-1.328-2.344-1.97-.877-.879-1.445-1.703-1.819-2.603-.385-.932-.364-2.024.064-2.988.193-.407.482-.803.824-1.103.257-.225.471-.418.728-.579.31-.192.642-.353.974-.492.802-.354 1.723-.525 2.814-.525.257 0 .514 0 .76.021 1.541.097 3.05.622 4.452 1.168 1.413.557 2.847 1.264 4.549 2.228a49.486 49.486 0 0 1 3.307 2.067c-.321-.643-.6-1.307-.856-1.982a15.337 15.337 0 0 1-.91-3.641 6.547 6.547 0 0 1-.054-1.35c.032-.375.086-.75.161-1.114.064-.342.214-.674.342-.996a4.623 4.623 0 0 1 .974-1.435c.578-.589 1.274-.91 1.948-1.167.139-.054.3-.096.492-.118l.129-.021c.257-.043.503-.075.76-.075 0-.011.117-.011.117-.011ZM274.733 239.541c.064-1.478.171-2.956.418-4.412.535-3.16 1.487-6.234 3.039-9.04.738-1.349 1.712-2.602 2.911-3.577.578-.471 1.231-.889 1.926-1.167.375-.15.749-.279 1.145-.375.439-.096.899-.118 1.349-.15h.043c.374 0 .802.246 1.049.514.01.011.021.021.021.032.107.236.225.461.342.686.032.139.043.267.032.407.022.299.033.589.033.889.149.192.214.46.128.696l-.225.642a22.03 22.03 0 0 1-.31 1.832c-.3 1.392-.771 2.752-1.252 4.08-.054.15-.107.3-.171.45-.14.664-.268 1.317-.396 1.981-.6 3.342-.953 6.726-1.124 10.121.139.247.192.515.203.814.032.536.075 1.082.118 1.618v-.011c.3 3.374.738 6.737.984 10.121.15 2.067.182 4.155.033 6.222.074.279.139.568.224.847.696 2.559 1.285 5.14 1.702 7.754.086.557-.043 1.103-.471 1.499-.492.45-1.348.578-1.905.161-1.156-.868-2.012-2.035-2.793-3.235-.803-1.221-1.445-2.527-2.012-3.866-1.231-2.881-2.151-5.88-2.943-8.9a162.024 162.024 0 0 1-.996-3.909c-.503-2.132-.802-4.284-.995-6.458-.182-2.068-.192-4.167-.107-6.266Z"/><path fill="#fff" d="M284.162 236.457c.289-1.735.663-3.47 1.102-5.173.428-1.66.92-3.31 1.712-4.841.172-.268.396-.461.675-.611.256-.139.545-.203.834-.203.182 0 .375.021.546.085.193.065.375.161.535.29.172.214.343.417.525.632.096.192.15.385.171.578 0 0 .011 0 .021.011.535.182.771.728.632 1.253a31.374 31.374 0 0 0-.45 1.97c-.61 3.395-.653 6.844-.385 10.271 0 .032 0 .075.011.107l.01.15v-.01c.193 2.056.461 4.102.739 6.136.16 1.082.321 2.153.481 3.224.182 1.178.364 2.346.461 3.524.192 2.153-.343 4.284-.931 6.34-.589 2.067-1.349 4.081-1.777 6.191a1.79 1.79 0 0 1-.471.739c-.332.299-.781.46-1.231.439a1.677 1.677 0 0 1-.845-.268c-.407-.268-.578-.621-.739-1.06-.256-.718-.406-1.478-.567-2.217a77.52 77.52 0 0 1-.481-2.292 86.73 86.73 0 0 1-.792-4.97 77.06 77.06 0 0 1-.642-10.303c.042-3.341.31-6.694.856-9.992Z"/><path fill="#cc9cf2" d="M453.715 177.733h-.3c-.567.033-1.027.225-1.391.579-.31.31-.503.717-.546 1.124-6.368 3.353-12.489 7.369-18.439 11.289l-2.376 1.563c-3.307 2.164-7.16 4.67-11.163 7.005-4.077 2.377-7.898 4.316-11.676 5.922-1.883.782-3.874 1.511-6.453 2.357a119.78 119.78 0 0 1-6.86 2.045c-4.484 1.178-9.15 2.11-13.859 2.817l.182-.075c-4.763.643-9.568.964-14.277.964-4.473 0-9-.289-13.474-.835h.418a101.859 101.859 0 0 1-25.61-6.994c-2.922-1.253-5.491-2.485-7.834-3.791-2.173-1.2-4.41-2.678-7.021-4.617l.171.075a277.915 277.915 0 0 1-3.499-2.795 245.333 245.333 0 0 0-4.046-3.224 54.845 54.845 0 0 0-3.756-2.699c-1.306-.846-2.783-1.81-4.377-2.334-.15-.043-.3-.075-.45-.075-.471 0-.942.225-1.252.589a6.261 6.261 0 0 0-1.744.996c-.375.3-.642.642-.889.974a4.018 4.018 0 0 0-.449.707c-.171.364-.364.771-.46 1.2a10.782 10.782 0 0 0-.214 3.031c.128 1.81.535 3.705 1.241 5.772-.246.097-.471.247-.781.515l-.204.139a7.742 7.742 0 0 0-.599.417c-.385.29-.781.59-1.156.9-.578.493-1.134.985-1.584 1.542a17.45 17.45 0 0 0-2.097 3.363c-.578 1.189-.985 2.185-1.274 3.16-.267.91-.46 1.874-.588 2.945-.418 3.492.449 7.261 2.45 10.624 1.584 2.667 3.821 5.248 6.657 7.658 2.644 2.26 5.704 4.413 9.097 6.394.428.257.856.503 1.263.728-.343.075-.642.247-.921.493-1.145.867-2.076 1.971-2.846 2.945a23.916 23.916 0 0 0-2.109 3.17c-1.198 2.1-2.311 4.456-3.499 7.401-1.124 2.806-2.098 5.719-3.04 8.525a194.94 194.94 0 0 1-2.065 5.987c-1.113 3.053-1.905 6.126-2.344 9.147a34.877 34.877 0 0 0-.193 8.578 29.007 29.007 0 0 0 1.863 7.733 25.733 25.733 0 0 0 3.831 6.651c3.211 4.07 7.759 7.219 13.164 9.104 2.814.985 5.886 1.649 9.128 1.97 1.253.129 2.387.182 3.489.182 1.563 0 2.986-.118 4.356-.375 2.151-.396 4.217-1.156 5.95-2.206a18.572 18.572 0 0 0 4.527-3.813 23.446 23.446 0 0 0 1.905-2.484c.503-.772.985-1.628 1.434-2.549a35.371 35.371 0 0 0 2.344-5.966c1.713-5.848 2.569-11.984 3.393-17.907.396-2.828.802-5.762 1.295-8.622l-.043.225c.514-2.966 1.166-6.394 2.386-9.564l.899-.086c.439-.042.899-.439 1.124-.803.268-.407.353-.921.236-1.403a1.71 1.71 0 0 0-.931-1.167c1.872.31 3.606.557 5.308.782 6.303.803 12.853 1.21 19.456 1.21 5.351 0 10.799-.268 16.192-.793a193.057 193.057 0 0 0 17.787-2.57c6.218-1.21 11.323-2.41 16.043-3.791 5.18-1.511 10.124-3.288 14.704-5.259 5.191-2.249 9.696-4.638 13.763-7.304 4.602-2.999 8.637-6.287 12.008-9.757a67.686 67.686 0 0 0 2.697-2.967c.439-.535.91-1.124 1.327-1.756.813-1.243 1.541-2.689 2.162-4.295.663-1.703 1.124-3.352 1.348-4.916.311-2.024.311-3.588.022-5.066-.225-1.157-.749-2.795-1.991-4.07-1.113-1.135-2.633-1.906-4.409-2.238-.096-.011-.182-.022-.278-.022-.311 0-.6.097-.792.268-.354-.096-.717-.203-1.06-.289a34.569 34.569 0 0 0 1.638-6.115c.417-2.303.481-4.606.192-6.833l-.021-.172c-.075-.567-.15-1.21-.343-1.81-.16-.535-.385-1.092-.674-1.756a9.524 9.524 0 0 0-1.948-2.86 9.432 9.432 0 0 0-3.424-2.142 10.246 10.246 0 0 0-1.798-.45c-.685-.064-1.349-.15-2.023-.15Zm-107.642 74.864a40.207 40.207 0 0 1-1.98-.182c-.674-.075-1.337-.172-2.011-.268l-.76-.107-.45-.064c-1.637-.236-3.285-.461-4.923-.718l.278.021c-1.583-.278-3.135-.621-4.858-1.006a82.913 82.913 0 0 1-4.859-1.264 135.643 135.643 0 0 1-4.795-1.5 42.94 42.94 0 0 1-4.28-1.745c-4.345-2.046-7.663-4.006-10.456-6.18 0-.118-.022-.236-.054-.343a.574.574 0 0 0-.085-.214c4.205 2.238 8.989 4.402 14.608 6.597 5.041 1.982 9.621 3.492 13.998 4.638 3.425.9 6.999 1.692 10.627 2.335Z"/><path fill="#fff" d="M417.777 282.274c-.428 0-.824.268-1.016.696-.075.033-.15.065-.236.118a123.946 123.946 0 0 1-6.303 3.92c-8.808 5.12-17.819 8.954-26.766 11.385a91.606 91.606 0 0 1-11.73 2.313c-4.109.525-7.962.782-11.751.782h-.289.011-.021a86.334 86.334 0 0 1-9.878-.642 103.595 103.595 0 0 1-5.191-.772 66.593 66.593 0 0 1-2.579-.482l-.375-.085c-.738-.161-1.498-.322-2.258-.407-.053 0-.096-.011-.15-.011-.246 0-.492.064-.792.182a1.657 1.657 0 0 0-1.348.675c-.289.31-.557.621-.835.942-.289.332-.567.664-.867.975a22.962 22.962 0 0 1-4.163 3.245c-1.734.975-3.553 1.746-5.276 2.431l-1.166.461c-1.584.621-3.211 1.264-4.741 2.067-.546.289-.867.6-1.06 1.06-.128.321-.171.654-.128.996.053.364.182.686.396.964.214.268.481.471.802.6v-.011l.171.107c1.338.75 2.58 1.371 3.81 1.896 1.231.525 2.58 1.039 4.367 1.66 1.83.621 3.671 1.21 5.511 1.81 1.06.343 2.109.675 3.158 1.017 7.234 2.378 14.875 4.017 22.699 4.884 4.495.504 8.989.75 13.356.75 3.521 0 7.031-.161 10.424-.493 8.048-.771 15.817-2.367 23.095-4.755 7.502-2.463 14.523-5.816 20.88-9.939.224-.139.363-.375.417-.664a1.254 1.254 0 0 0-.225-.942 1.073 1.073 0 0 0-.867-.429c-.257 0-.503.075-.738.225l-.161.118a19.044 19.044 0 0 1-.353-1.092 22.74 22.74 0 0 1-.77-5.688c.021-1.51.192-2.848.503-4.112.246-.868.567-1.65.963-2.389a8.66 8.66 0 0 1 1.124-1.52c.149-.15.31-.29.47-.429.418-.353.568-.91.364-1.403a1.208 1.208 0 0 0-1.252-.717c-.385.042-.77.064-1.156.075a11.114 11.114 0 0 1-2.429-.311 10.902 10.902 0 0 1-2.13-.857 8.454 8.454 0 0 1-1.455-1.092 6.704 6.704 0 0 1-.824-1.05 6.116 6.116 0 0 1-.482-1.135 6.275 6.275 0 0 1-.16-1.285c.021-.718.171-1.403.31-1.917h-.011l.075-.236c.086-.3.118-.546 0-.835a1.132 1.132 0 0 0-.588-.589 1.353 1.353 0 0 0-.386-.065Zm-43.375 40.131c-.332 0-.675 0-1.006-.011h1.198l-.192.011ZM359.472 125.04c.781 0 1.563 0 2.344.011 4.538.053 9.075.385 13.506 1.006 7.673 1.071 14.266 2.86 20.173 5.463a48.476 48.476 0 0 1 5.17 2.677c1.905 1.125 3.521 2.228 4.933 3.374 3.168 2.559 5.341 5.569 6.282 8.696a.86.86 0 0 1-.042.611c1.444 3.277 2.333 7.004 2.889 12.049.31 2.816.46 5.687.61 8.46l.054 1.071c.192 3.567.406 6.555.802 9.554l-.053-.182-.032-.193c.567 3.963 1.412 7.315 2.611 10.26.931 2.185 1.905 3.942 2.986 5.377.278.342.567.664.877.985.696.718.696 1.864 0 2.56a1.867 1.867 0 0 1-1.316.525c-.407 0-.803-.129-1.092-.375a429.728 429.728 0 0 1-10.124 4.402c-3.424 1.435-7.031 2.816-11.001 4.23a141.656 141.656 0 0 1-11.141 3.406c-4.11 1.071-7.824 1.874-11.366 2.442a91.18 91.18 0 0 1-11.483 1.092c-.974.032-1.937.054-2.911.054s-1.937-.011-2.901-.054a84.085 84.085 0 0 1-6.025-.45c-3.799-.396-7.77-1.156-11.793-2.238a129.56 129.56 0 0 1-10.06-3.138c-4.741-1.692-8.905-3.556-12.747-5.687a62.181 62.181 0 0 1-5.971-3.792c-2.162-1.563-3.778-2.977-5.073-4.444l-.161-.193a.634.634 0 0 1-.16.021c-.514 0-.953-.171-1.285-.471-.31-.278-.62-.803-.588-1.285l.043-.825c.032-.621.064-1.242.117-1.863.097-1.103.214-2.207.343-3.31.214-1.938.449-3.877.674-5.815.46-3.867.931-7.829 1.573-11.706.749-4.509 1.595-8.129 2.665-11.385 1.37-4.177 2.922-7.69 4.741-10.71 3.264-5.387 8.412-10.078 14.887-13.57 5.939-3.202 12.564-5.269 19.692-6.158 3.371-.429 6.774-.482 9.353-.482Z"/><path fill="#fff" d="M436.859 242.422c-.139 0-.278.022-.417.064a1.474 1.474 0 0 0-.867.739l-.514.161-1.027.321-2.344.793a404.57 404.57 0 0 1-4.666 1.553 329.764 329.764 0 0 1-9.311 2.881c-6.721 1.949-12.789 3.363-18.514 4.327-6.935 1.135-14.266 1.681-22.389 1.681-.782 0-1.563 0-2.344-.011a233.098 233.098 0 0 1-12.789-.535c-2.13-.139-4.259-.311-6.389-.482-1.07-.086-2.13-.161-3.211-.225-.77-.053-1.552-.107-2.322-.107-.289 0-.567.011-.856.021a1.694 1.694 0 0 0-1.531 1.2c-.899 1.392-1.455 2.977-1.83 4.198-.481 1.553-.802 3.149-1.059 4.52l-.043.203c-.129.686-.268 1.371-.375 2.067a35.438 35.438 0 0 0-.192 1.511l-.097.803c-.107.867-.214 1.724-.278 2.592l-.064.899c-.032.418-.054.836-.096 1.264v-.011c-.054.568-.118 1.125-.182 1.693a81.853 81.853 0 0 0-.182 1.702c-.064.611-.107 1.221-.161 1.832-.043.471-.075.953-.107 1.317a106.495 106.495 0 0 1-.524 4.306c-.204 1.413-.407 2.87-.674 4.305-.589 3.127-1.317 5.901-2.194 8.482a.446.446 0 0 0 0 .333 1.624 1.624 0 0 0-.236.546c-.16.717.182 1.467.835 1.81 1.124.589 2.44 1.049 4.045 1.403 1.36.3 2.751.535 4.131.685a65.07 65.07 0 0 0 7.128.386c.449 0 .91 0 1.359-.011 4.57-.086 9.204-.503 13.688-.91l.353-.032c5.019-.45 9.889-1.254 14.48-2.4 4.709-1.167 9.279-2.698 13.581-4.562 5.084-2.196 9.086-4.295 12.596-6.587 7.535-4.926 14.17-11.202 19.746-18.667 3.371-4.509 5.469-8.194 6.806-11.921 1.178-3.298 2.216-8.257.418-13.119-.214-.611-.771-1.018-1.381-1.018Zm-95.869 53.743c.16-.482.31-.964.46-1.456-.139.482-.278.974-.428 1.445h.011l-.043.011Z"/><path fill="#121931" d="M401.992 329.238a6.573 6.573 0 0 1 .364-1.649c.064-.493.128-.997.235-1.489a1.19 1.19 0 0 1-.31-.675c-.032-.418.182-.76.492-.985.011-.15.053-.3.118-.439a1.29 1.29 0 0 1 .364-.45c.074-.247.139-.493.224-.739.182-.546.739-.878 1.295-.878a1.29 1.29 0 0 1 1.242.899c.449-.353.92-.685 1.391-.985a29.49 29.49 0 0 1 5.276-2.678c.578-.224 1.199-.203 1.712.172.065.043.107.096.161.15.011-.011.021-.011.032-.022.075-.053.161-.053.246-.075a.771.771 0 0 1 .696-.439c.085 0 .182.022.267.054.097.032.172.096.247.16.267-.128.545-.257.813-.396a.373.373 0 0 1 .214-.053c.128 0 .257.064.332.182.107.182.064.449-.139.557-.332.171-.664.321-1.006.492-.011.032 0 .054-.011.086-.054.161-.118.311-.182.471a.548.548 0 0 1 .107.311.56.56 0 0 1 .278.246.661.661 0 0 1-.224.91c-.011.011-.022.022-.043.022a.646.646 0 0 1 .235.246c.214.354.118.911-.267 1.103-.493.247-.985.482-1.477.729l-.386.964c-.406 1.317-.952 2.581-1.541 3.812-1.284 2.646-2.846 5.195-4.891 7.315a1.76 1.76 0 0 1-.813.375h-.085a2.822 2.822 0 0 1-.086.311c-.15.396-.46.728-.846.899-.824.375-1.787 0-2.172-.814a18.107 18.107 0 0 1-1.209-3.298 10.47 10.47 0 0 1-.289-1.543 7.597 7.597 0 0 1-.364-2.859ZM342.905 323.144c.343.032.664.182.899.428a1.53 1.53 0 0 1 1.188-.567c.043 0 .097 0 .139.01.857.086 1.435.846 1.381 1.682 0 .043 0 .086-.011.128l.257.065.289.096c.225-.471.706-.782 1.242-.728.674.064 1.145.664 1.102 1.328.31.075.621.15.92.235.086.022.15.065.214.107.086.011.161.011.236.033a.97.97 0 0 1 .546 1.221c-.3.856-.718 1.67-1.188 2.452a1.46 1.46 0 0 1-1.017 1.457h-.011a17.737 17.737 0 0 1-1.37 1.488c-.385.375-.952.247-1.295-.096a9.483 9.483 0 0 1-.792.161 5.648 5.648 0 0 1-1.048.021 1.598 1.598 0 0 1-.675.097 1.569 1.569 0 0 1-1.38-1.275 26.609 26.609 0 0 1-.257-2.078 1.628 1.628 0 0 1-.546-.91c-.278-1.339-.449-2.688-.407-4.059.043-.793.846-1.371 1.584-1.296Z"/><path fill="#e4d6af" d="M424.498 305.387c.011.182-.128.374-.332.374-.192 0-.363-.117-.374-.332-.011-.182.128-.374.332-.374.182.01.363.128.374.332Z"/><path fill="#fff" d="M341.236 322.276c-.096.536.268.954.749 1.082 1.841.493 3.724.857 5.608 1.157 1.199.182 2.419.321 3.628.439 1.67.353 3.36.61 5.062.782a.931.931 0 0 0 .428.193c.664.117 1.327.299 2.001.417a57.04 57.04 0 0 0 1.82.289c1.295.172 2.59.3 3.895.397 2.612.192 5.234.235 7.845.096 5.308-.268 10.584-1.21 15.721-2.56a90.17 90.17 0 0 0 2.462-.685.706.706 0 0 0 .417.086c1.295-.183 2.579-.375 3.864-.643a48.365 48.365 0 0 0 3.863-.953 49.008 49.008 0 0 0 7.085-2.656c1.52-.579 3.018-1.2 4.495-1.896.417-.193.824-.396 1.231-.6a120.404 120.404 0 0 0 3.831-1.606c.011 0 .011-.011.021-.011a.737.737 0 0 0 .107.246c.182.257.557.407.846.279 1.862-.825 3.703-1.714 5.458-2.742a53.636 53.636 0 0 0 4.934-3.245c.299-.225.396-.643.171-.964a.633.633 0 0 0-.428-.278c0-.022 0-.033.01-.054a.63.63 0 0 0-.053-.611.637.637 0 0 0-.407-.257c.311-.321.396-.781.129-1.167-.054-.086-.139-.128-.214-.182.085-.064.182-.118.267-.182a.674.674 0 0 0 .171-.943.668.668 0 0 0-.567-.289c-.021 0-.043.022-.064.022a.52.52 0 0 0-.086-.225c.129-.086.257-.161.386-.247.342-.214.406-.706.192-1.028a.74.74 0 0 0-1.016-.182 149.133 149.133 0 0 1-3.083 1.96 86.516 86.516 0 0 0 4.313-3.309c.268-.214.364-.579.161-.878a.664.664 0 0 0-.546-.268.6.6 0 0 0-.342.118c-4.271 3.512-8.947 6.479-13.86 9.007-8.647 4.402-17.968 7.347-27.44 9.36a158.452 158.452 0 0 1-16.171 2.496c-5.575.578-11.183.835-16.802.589a31.679 31.679 0 0 1-1.434-.107c-.321-.065-.653-.129-.974-.204-.193-.043-.374 0-.546.064a68.145 68.145 0 0 1-6.079-.888c-.47-.075-.973.278-1.059.781Zm63.228-5.815c.728-.321 1.477-.611 2.205-.943.802-.375 1.594-.771 2.397-1.156.011.032 0 .053.011.085l.01.011c-.824.375-1.637.76-2.461 1.114-.728.31-1.445.6-2.162.889ZM318.943 311.513c.182-.397.61-.868 1.06-.964.835-.182 1.669-.321 2.504-.493 2.462-.546 4.859-1.285 7.117-2.399 2.141-1.135 4.099-2.549 5.886-4.177a52.752 52.752 0 0 0 3.286-3.47c.043-.107.096-.203.139-.31.118-.3.407-.461.717-.493a2.16 2.16 0 0 1 1.166-.354c.3 0 .61.065.899.193.354.172.643.407.867.729.032.042.054.096.086.149.032 0 .064-.021.107-.021.075 0 .139.011.214.021.043.011.075.033.118.043.182-.043.374-.043.567 0 .193-.182.449-.3.717-.3.139 0 .289.033.428.097.503.235.76.878.503 1.381-.46.921-.91 1.843-1.413 2.753a30.842 30.842 0 0 1-1.691 2.71 26.999 26.999 0 0 1-4.227 4.819c-1.584 1.435-3.36 2.581-5.308 3.481-.921.428-1.884.75-2.868 1.007-.578.15-1.167.267-1.755.364a8.287 8.287 0 0 1-1.991.075c-.61-.054-1.081-.611-1.22-1.189l-.353.032a6.897 6.897 0 0 1-1.156.064c-.107 0-.214 0-.31-.021h-.065a1.714 1.714 0 0 1-1.305-1.103c0-.011-.011-.022-.011-.043-.3.021-.599.032-.888.032-.835 0-1.595-.407-1.884-1.232a1.825 1.825 0 0 1 .064-1.381Z"/><path fill="#fff" d="M340.455 296.24c.117-.396.235-.792.342-1.189.075-.246.139-.492.203-.739a1.233 1.233 0 0 1-.214-.246c-.171-.257-.289-.664-.192-.985.353-1.082.706-2.164.995-3.256.321-1.189.567-2.388.792-3.599.428-2.399.696-4.841.92-7.272.054-.567.107-1.146.15-1.713-.01-.011-.01-.022-.021-.033-.257-.374-.278-.76-.236-1.199.279-2.678.75-5.334 1.242-7.979.182-1.178.428-2.335.663-3.513.107-.536.493-.953.974-1.135.086-.311.204-.611.3-.921a15.722 15.722 0 0 1-.706-.14.392.392 0 0 1-.268-.16.413.413 0 0 1-.086-.311.414.414 0 0 1 .396-.364c.022 0 .043 0 .075.011.086.021.172.032.246.053a1.613 1.613 0 0 1-.588-.514c.3-.043.524-.268.524-.567a.42.42 0 0 0-.032-.161c.236-.396.289-.878.171-1.328-.021-.075-.053-.15-.085-.225.278-.15.631-.236.931-.161.043.011.096.011.139.022a.934.934 0 0 1 .471-.236c.321-.064.642-.107.963-.161a1.152 1.152 0 0 1 1.167-.846c0-.01-.011-.021-.011-.032a3.258 3.258 0 0 0-.321.054 4.87 4.87 0 0 0-.418.171c-.192.118-.396.247-.599.364-.31.172-.781.14-1.092.011a1.422 1.422 0 0 1-.759-.739 1.43 1.43 0 0 1-.011-1.092c.021-.043.032-.086.053-.129.236-.118.429-.321.568-.568.042-.021.075-.042.117-.064.632-.332 1.434-.343 2.13-.364.813-.032 1.638.011 2.451.107 1.573.172 3.136.482 4.709.653.257 0 .535.193.685.386.406.032.824.043 1.23.075.011 0 .011-.011.011-.011a.762.762 0 0 1 .546-.15c.546.118 1.102.193 1.659.3.428.022.845.054 1.273.075a.752.752 0 0 1 .503.247c.621.096 1.242.149 1.863.224 2.6-.16 5.201-.385 7.791-.631 2.108-.193 4.216-.386 6.335-.547 1.862-.139 3.725-.257 5.597-.267 1.253-.161 2.505-.322 3.757-.461 1.306-.161 2.611-.289 3.917-.418 1.316-.117 2.633-.214 3.949-.31.396-.032.76.032 1.092.278.235.172.406.407.503.686 3.478-.718 6.934-1.457 10.402-2.164a1.26 1.26 0 0 1 .567.011 129.47 129.47 0 0 0 3.296-.878 178.436 178.436 0 0 0 10.735-3.417 316.464 316.464 0 0 0 5.393-1.981c.899-.343 1.798-.696 2.697-1.039.899-.353 1.788-.728 2.697-1.06.268-.097.546-.086.771.01l.61-.192a21.686 21.686 0 0 1 2.483-.643c.043-.011.075-.011.118-.011.267 0 .545.182.652.439a.669.669 0 0 1 .043.354c.182.118.332.278.417.471.054.118.065.236.075.354a.481.481 0 0 1 .214-.054c.311 0 .632.225.75.493.192.439-.043.824-.418 1.049-1.626.964-3.264 1.907-4.944 2.785s-3.393 1.703-5.126 2.474c-3.489 1.564-7.064 2.913-10.703 4.113-7.363 2.42-14.94 4.134-22.592 5.344-7.523 1.189-15.132 1.874-22.742 2.174-3.756.15-7.512.311-11.269.3-3.585-.011-7.202-.107-10.702-.9a46.78 46.78 0 0 0-.685 5.452c-.021.353-.043.707-.053 1.06 0 .439.01.878.021 1.317.021.804.086 1.596.128 2.399.075 1.532.193 3.053.257 4.595.064 1.531.129 3.052.139 4.584.022 2.999-.182 5.997-.738 8.953-.278 1.543-.717 3.042-1.241 4.509-.247.686-.525 1.35-.846 1.992-.364.761-.824 1.457-1.306 2.164a1.256 1.256 0 0 1-1.487.278 1.174 1.174 0 0 1-.311-.246c-.181 0-.363-.043-.535-.129a1.17 1.17 0 0 1-.385-.299.984.984 0 0 1-1.059.128c-.514-.257-.632-.825-.439-1.328.064-.15.118-.3.182-.439a1.22 1.22 0 0 1-1.145.396c-.664-.128-1.038-.771-.931-1.413.053-.354.149-.664.246-.986ZM422.165 278.194a.782.782 0 0 0-.578-.236.775.775 0 0 0-.567.236c-1.648 1.745-3.05 3.834-3.371 6.265-.118.921-.075 1.885.192 2.785a7.254 7.254 0 0 0 1.274 2.431c1.209 1.51 3.018 2.517 4.891 2.956 1.273.289 2.579.375 3.863.278a17.34 17.34 0 0 0-1.391 2.185c-.878 1.671-1.552 3.492-1.873 5.355-.321 1.885-.385 3.813.022 5.687.192.9.503 1.778.92 2.603a9.9 9.9 0 0 0 1.595 2.281c.428.471 1.22.439 1.648 0 .214-.225.342-.525.342-.825 0-.321-.128-.589-.342-.824a6.36 6.36 0 0 1-.343-.407 9.99 9.99 0 0 1-1.091-1.885c-.3-.782-.503-1.585-.621-2.399a14.718 14.718 0 0 1 .021-3.363c.214-1.468.61-2.892 1.177-4.263a18.072 18.072 0 0 1 1.98-3.438c.396-.514.824-1.017 1.295-1.467.311-.3.364-.814.15-1.178s-.685-.578-1.102-.45a15.24 15.24 0 0 1-2.076.471 13.003 13.003 0 0 1-3.029.011 11.082 11.082 0 0 1-2.194-.6 8.745 8.745 0 0 1-1.595-.921 7.79 7.79 0 0 1-1.08-1.06 6.902 6.902 0 0 1-.643-1.093 6.101 6.101 0 0 1-.363-1.317 6.629 6.629 0 0 1 .01-1.456c.097-.6.268-1.168.482-1.735.364-.825.824-1.575 1.359-2.292.321-.407.664-.793 1.027-1.168.311-.343.321-.857.011-1.167Zm-.91 2.152c-.042.054-.074.108-.117.15a.754.754 0 0 0 .117-.15Zm-1.605 6.973c.011.032.032.075.043.107-.011-.032-.022-.075-.043-.107Zm5.533 3.663c.043 0 .086.01.118.021l-.118-.021Zm4.837 2.474c-.032.042-.053.075-.085.117l.085-.117Zm-3.274 11.256c0 .043.01.075.01.118 0-.043-.01-.086-.01-.118Zm.642 2.399a.561.561 0 0 1 .043.118c-.022-.043-.033-.086-.043-.118Zm.974 1.724c.021.022.042.043.053.075-.011-.021-.032-.043-.053-.075ZM367.007 124.14a101.942 101.942 0 0 0-5.994-.182 87.58 87.58 0 0 0-10.862.654c-5.127.631-10.242 1.713-15.101 3.491a47.236 47.236 0 0 0-6.742 3.063c-2.676 1.499-5.234 3.213-7.524 5.248-2.076 1.853-3.97 3.931-5.565 6.212a39.627 39.627 0 0 0-3.938 7.143c-2.258 5.302-3.5 11-4.388 16.676-.268 1.681-.482 3.374-.728 5.066-.289 2.088-.621 4.177-.92 6.265-.3 2.089-.6 4.188-.814 6.287a66.906 66.906 0 0 0-.256 3.277c-.043 1.039-.097 2.1.042 3.138a1.267 1.267 0 0 0 1.424 1.082c.332-.043.642-.225.835-.493.139-.182.214-.374.246-.599.192-.814.267-1.66.353-2.496.075-.749.15-1.51.214-2.26.15-1.595.3-3.191.481-4.787.354-3.192.76-6.372 1.21-9.553.642-4.466 1.359-8.933 2.515-13.302 1.059-3.899 2.472-7.712 4.484-11.235a34.826 34.826 0 0 1 5.051-6.662c2.355-2.367 5.03-4.38 7.909-6.094-.075.043-.15.097-.235.139a44.955 44.955 0 0 1 5.886-2.923 52.571 52.571 0 0 1 5.843-1.971c6.689-1.81 13.656-2.57 20.58-2.592 7.642.022 15.294.932 22.689 2.892 5.115 1.392 10.124 3.299 14.737 5.922 2.953 1.714 5.725 3.728 8.176 6.105 1.669 1.671 3.157 3.502 4.398 5.505a27.483 27.483 0 0 1 2.697 6.426c.6 2.303.942 4.659 1.124 7.026.471 6.19-.021 12.413.578 18.603.3 3.074.867 6.148 1.98 9.029 1.188 3.074 2.954 5.88 5.169 8.322.364.407.963.535 1.423.171.407-.321.546-1.017.172-1.424a24.512 24.512 0 0 1-2.901-3.888c-1.059-1.821-1.851-3.77-2.44-5.794-.995-3.642-1.252-7.422-1.273-11.182v.322c-.011-5.227.428-10.453-.022-15.669-.267-3.138-.845-6.287-1.958-9.254a26.704 26.704 0 0 0-4.902-8.171c-3.328-3.802-7.406-6.812-11.836-9.211-4.773-2.581-9.9-4.423-15.133-5.773-5.469-1.371-11.066-2.206-16.684-2.549Zm-26.584 5.205c-.033.011-.054.011-.086.022.032-.011.053-.022.086-.022Zm66.278 12.403.085.085-.085-.085Zm-78.094-7.455c.033-.021.054-.032.086-.053a.25.25 0 0 0-.086.053Z"/><path fill="#ce5f1f" d="M292.135 228.102c-.01-.01 0-.01 0 0Z"/><path fill="#fff" d="M291.15 237.239a.802.802 0 0 1 .032-.665c.054-.781.129-1.563.236-2.334a1.124 1.124 0 0 1 .021-.771c.032-.075.086-.118.128-.182.033-.172.065-.333.086-.504-.032-.203-.043-.407.043-.61.021-.054.064-.097.086-.15.021-.129.042-.247.064-.375a.999.999 0 0 1 .428-.611.92.92 0 0 1 .514-.15c.16 0 .321.043.481.108 1.616.685 3.082 1.692 4.409 2.816a16.99 16.99 0 0 1 1.82 1.8c.406.289.802.578 1.22.856a.945.945 0 0 1 .353.525.923.923 0 0 1 .375.097c.396.203.663.814.385 1.231-.075.107-.15.204-.225.311-.011.043-.011.085-.032.128a1.178 1.178 0 0 1-.407.482c-.567.793-1.134 1.585-1.723 2.367-.01.086-.01.172-.053.247-.075.182-.236.299-.428.396-.161.214-.311.418-.471.632.16.203.235.471.117.728a.726.726 0 0 1-.727.439.54.54 0 0 1-.097.075c.343.311.514.75.332 1.2-.171.407-.631.706-1.081.621l-.471-.097a.632.632 0 0 1-.064.204 1.324 1.324 0 0 1-.471.578c.064.139.139.279.204.407a.565.565 0 0 0 .064.086c.214.31.332.643.278 1.017a1.279 1.279 0 0 1-.267.643c-.15.193-.332.343-.546.439-.471.268-.985.3-1.509.386-.022 0-.043-.011-.064 0-.215.46-.429.921-.611 1.392-.139.375-.642.546-1.006.471-.417-.096-.663-.45-.717-.846-.449-4.423-.931-8.921-.706-13.387ZM440.145 247.017c.492.032 1.027.525.92 1.06a46.729 46.729 0 0 1-3.211 10.303c-1.466 3.331-3.306 6.501-5.404 9.479-4.292 6.094-9.696 11.395-15.614 15.893a88.99 88.99 0 0 1-19.104 11.064c-3.521 1.488-7.159 2.688-10.841 3.738a116.468 116.468 0 0 1-12.618 2.881c-8.187 1.37-16.588 1.756-24.839.792a74.859 74.859 0 0 1-13.1-2.752c.343-.397.685-.814.996-1.243.225-.31.449-.621.653-.942a69.535 69.535 0 0 0 6.613 1.671l-.321-.065c6.839 1.36 13.828 1.725 20.784 1.296h.043-.032.075c.032 0 .064 0 .107-.011h-.022c.043 0 .096 0 .139-.01h-.107c4.656-.332 9.29-1.018 13.859-1.992a110.529 110.529 0 0 0 13.335-3.685c7.042-2.474 13.752-5.89 19.938-10.099 5.405-3.727 10.403-8.043 14.726-13.002 3.179-3.706 5.961-7.744 8.134-12.124 1.702-3.491 2.986-7.154 3.767-10.956.021-.129.054-.268.075-.397.053-.267.118-.482.332-.674a1 1 0 0 1 .653-.257c.021.021.042.032.064.032Z"/><path fill="#312628" d="M443.912 295.576a.507.507 0 0 0 .064-.075.358.358 0 0 0-.064.075ZM443.891 295.598l-.033.032.043-.043-.01.011ZM443.826 295.673l.011-.011s-.011 0-.011.011ZM311.495 307.561c-.674-.043-1.349-.107-2.023-.161a5.917 5.917 0 0 1-.417-.118c-.043-.032-.086-.075-.129-.118.846.182 1.713.311 2.569.397Z"/><path fill="#121931" d="M344.971 269.026c0-.022.011-.043.011-.064-.011.021-.011.042-.011.064ZM344.95 269.155v-.021c0-.033.01-.065.01-.097 0 .032-.01.075-.01.118Z"/><path fill="#121931" d="M271.041 295.919c.118.407.385.76.76.974.61.354 1.498.29 1.99-.257.707-.792 1.36-1.627 2.087-2.409a18.638 18.638 0 0 1 2.023-1.875 12.334 12.334 0 0 1 2.14-1.263 10.123 10.123 0 0 1 2.109-.6 8.64 8.64 0 0 1 1.584 0c.224.043.449.075.674.128.032.011.053 0 .075 0a19.373 19.373 0 0 0 1.359 3.749c-.032 0-.075-.022-.107-.022a.905.905 0 0 0-.289.043 18.633 18.633 0 0 0-6.571 3.899 17.666 17.666 0 0 0-2.633 3.084c-.706 1.061-1.295 2.207-1.637 3.438-.236.836.278 1.735 1.113 1.971a1.64 1.64 0 0 0 1.231-.161c.374-.225.599-.557.727-.953.193-.557.396-1.114.621-1.649a15.635 15.635 0 0 1 1.83-3.117 17.458 17.458 0 0 1 2.74-2.742 13.834 13.834 0 0 1 2.558-1.488l.577-.225c.279-.097.514-.29.653-.525.685 1.178 2.365 3.341 2.365 3.341s-.342.15-.47.3c-1.756 1.885-3.404 3.952-4.581 6.255-.578 1.146-1.113 2.335-1.434 3.588a16.291 16.291 0 0 0-.546 3.855c-.021.943.792 1.725 1.713 1.725.941 0 1.712-.782 1.712-1.725.011-.61.043-1.231.118-1.842a19.679 19.679 0 0 1 1.273-4.53 22.116 22.116 0 0 1 2.59-4.359c.321-.386.642-.771.974-1.135.107-.118.182-.247.246-.386.054.054.107.118.171.172 1.509 1.467 3.179 2.763 4.934 3.919-1.423 2.432-2.558 5.077-3.189 7.829-.642 2.785-.921 5.655-1.006 8.515-.022.835.717 1.531 1.541 1.531.813 0 1.562-.696 1.541-1.531-.075-2.431-.021-4.841.289-7.261.3-2.153.76-4.306 1.562-6.341.257-.6.557-1.178.878-1.746a40.517 40.517 0 0 0 4.987 2.442 27.348 27.348 0 0 0-1.327 2.839c-.449 1.124-.824 2.27-1.059 3.459-.514 2.56-.589 5.151-.15 7.732.064.397.406.772.738.964a1.62 1.62 0 0 0 1.242.161c.877-.236 1.337-1.135 1.134-1.981a22.671 22.671 0 0 1-.321-1.639 18.809 18.809 0 0 1 .032-4.455v-.032c.236-1.596.621-3.171 1.22-4.67.225-.514.492-1.017.76-1.521a41.863 41.863 0 0 0 6.475 1.66c-.343 2.131-.61 4.274-.653 6.426-.021 1.275-.021 2.549.107 3.813.128 1.307.332 2.603.621 3.888.182.771 1.059 1.221 1.798 1.017.717-.203 1.295-1.049 1.016-1.799-.513-1.435-.845-2.903-1.07-4.413-.353-2.816-.235-5.687.118-8.493.011-.053.011-.107.021-.15.418.054.846.086 1.263.118a78.086 78.086 0 0 0 4.763 3.17c0 1.2.064 2.389.246 3.577a23.864 23.864 0 0 0 1.006 4.145c.46 1.35 1.006 2.699 1.723 3.942.439.76 1.445 1.006 2.183.578.781-.461.974-1.414.578-2.185-.503-.985-1.017-1.96-1.466-2.967a25.381 25.381 0 0 1-1.574-5.515c.643.353 1.274.717 1.927 1.049a92.409 92.409 0 0 0 5.511 2.603c.214.578.429 1.146.685 1.713.535 1.232 1.156 2.432 1.895 3.546.246.364.545.631.974.749.428.118.888.054 1.262-.171.739-.429 1.081-1.5.589-2.239a32.625 32.625 0 0 1-1.134-1.874c2.076.782 4.163 1.521 6.282 2.174-.022.311-.054.622-.065.932a24.634 24.634 0 0 0 .022 2.977c.064.857.171 1.971.471 3.01.192.707.428 1.296.706 1.799.31.557.653.996 1.006 1.307.236.214.482.386.728.525-.717 3.748-1.873 7.572-3.446 11.363-1.413 3.31-2.836 5.944-4.452 8.268a.84.84 0 0 0-.375.097 21.41 21.41 0 0 0-5.126.996 32.064 32.064 0 0 0-4.902 2.077 38.007 38.007 0 0 0-4.666 2.881 50.502 50.502 0 0 0-3.499 2.785c-.824.718-1.766 1.532-2.462 2.517-.353.493-.535.921-.578 1.36-.053.439.118.9.407 1.167.364.332.845.515 1.509.579.246.021.481.032.728.032.396 0 .781-.043 1.134-.107 1.327-.279 2.526-.953 3.435-1.51 1.734-1.071 3.339-2.346 4.666-3.47l-.181.192-.193.193c-.621.664-1.381 1.5-2.108 2.378-.503.61-1.146 1.424-1.702 2.281-.375.589-.792 1.296-1.07 2.089-.246.696-.321 1.306-.225 1.852.086.568.407 1.082.899 1.457.278.203.578.353.856.418a2.554 2.554 0 0 0 .963.032c.578-.075 1.21-.364 1.852-.836a12.44 12.44 0 0 0 1.969-1.831c1.541-1.746 2.825-3.716 3.885-5.419 1.306-2.078 2.493-4.199 3.264-5.612l1.145-2.067.139-.247.268-.482.096-.16.075-.15c.792.128 1.584.225 2.376.31 1.712.193 3.211.29 4.57.29h.182c.909 0 2.108-.043 3.274-.279a6.354 6.354 0 0 0 1.402-.46c.407-.193.739-.418.953-.664.353-.386.567-.782.631-1.2.043-.214.075-.45.054-.685a2.552 2.552 0 0 0-.236-.879c-.289-.664-1.027-1.21-1.99-1.446-.632-.16-1.349-.235-2.098-.235-.267 0-.535.011-.792.021a28.798 28.798 0 0 0-3.435.45c-1.06.204-1.894.407-2.633.664a119.54 119.54 0 0 0 1.605-2.528 71.836 71.836 0 0 0 3.008-5.397c1.873-3.653 3.232-7.101 4.163-10.518.182-.032.364-.075.546-.128a7.812 7.812 0 0 0 1.091-.407c.632-.268 1.178-.675 1.574-.985.973-.75 1.851-1.735 2.771-3.106.653-.964 1.253-2.046 1.82-3.192a112.625 112.625 0 0 0 23.245 1.435c7.962-.332 15.871-1.499 23.566-3.545a35.834 35.834 0 0 0-.407 3.952 24.446 24.446 0 0 0 .021 2.978c.065.856.172 1.959.471 3.009.193.707.428 1.296.717 1.799.311.557.653.996 1.006 1.307.236.214.482.386.728.514-.717 3.749-1.873 7.583-3.446 11.363-1.413 3.31-2.836 5.945-4.452 8.269a.84.84 0 0 0-.375.096c-1.712.107-3.435.45-5.126.996a33.204 33.204 0 0 0-4.902 2.078 38.125 38.125 0 0 0-4.655 2.881 50.733 50.733 0 0 0-3.5 2.784c-.824.718-1.765 1.532-2.461 2.507-.342.492-.524.921-.578 1.36-.053.439.118.899.407 1.167.374.332.845.514 1.509.578.235.022.471.033.717.033.396 0 .781-.033 1.134-.107 1.327-.279 2.526-.943 3.436-1.5 1.733-1.071 3.339-2.345 4.655-3.47l-.182.193-.182.193a48.456 48.456 0 0 0-2.108 2.377c-.492.611-1.135 1.414-1.702 2.281-.374.59-.792 1.296-1.07 2.089-.246.696-.321 1.307-.225 1.853.097.567.407 1.071.899 1.456.278.215.578.354.856.418a2.557 2.557 0 0 0 .974.032c.578-.075 1.21-.364 1.852-.835a12.45 12.45 0 0 0 1.969-1.832c1.541-1.745 2.836-3.716 3.895-5.419a108.319 108.319 0 0 0 3.265-5.612l1.145-2.067.139-.246.267-.482.107-.161.075-.15a44.9 44.9 0 0 0 2.376.311c1.713.192 3.211.289 4.57.289h.182c.92 0 2.119-.043 3.285-.279a6.167 6.167 0 0 0 1.402-.46c.407-.193.728-.418.953-.664.364-.386.567-.782.631-1.2.043-.214.075-.45.054-.685a2.79 2.79 0 0 0-.236-.878c-.289-.664-1.038-1.211-1.99-1.446a9.272 9.272 0 0 0-2.108-.236c-.268 0-.536.011-.792.022a28.986 28.986 0 0 0-3.436.449c-1.059.204-1.894.407-2.633.664.546-.835 1.081-1.681 1.606-2.527a72.052 72.052 0 0 0 3.007-5.398c1.862-3.652 3.232-7.101 4.163-10.517.182-.032.375-.075.546-.129a7.825 7.825 0 0 0 1.092-.407c.631-.278 1.177-.675 1.584-.985.963-.75 1.851-1.735 2.761-3.095a28.46 28.46 0 0 0 2.279-4.092 60.1 60.1 0 0 0 1.927-4.723 88.184 88.184 0 0 0 2.333-7.55c3.51-1.714 6.924-3.631 10.188-5.784 5.811-3.823 11.098-8.461 15.732-13.655 3.136 7.004 6.86 13.741 10.927 20.242a249.013 249.013 0 0 0 6.625 10.025 299.06 299.06 0 0 0 3.392 4.776c.514.707 1.027 1.414 1.584 2.089a50.266 50.266 0 0 0 3.639 3.93 38.527 38.527 0 0 0 2.322 2.089c.696.567 1.413 1.114 2.194 1.553.717.407 1.455.749 2.28.867.77.118 1.53-.075 2.14-.546.621-.482 1.006-1.296 1.166-2.056.097-.482.15-.975.182-1.468.075.086.15.172.236.257 1.52 1.575 3.093 3.117 4.805 4.488 1.284 1.028 2.665 1.928 4.099 2.742a41.834 41.834 0 0 0 3.072 1.585c.909.428 1.83.824 2.793 1.114.867.267 1.787.492 2.697.503.781.011 1.648-.075 2.322-.503.717-.45 1.252-1.114 1.488-1.95.171-.621.214-1.253.192-1.885.214.108.418.225.632.322 1.155.514 2.343.974 3.606 1.156.931.129 1.927.15 2.815-.192.813-.311 1.53-.857 1.916-1.65.406-.803.556-1.713.513-2.613-.053-1.146-.31-2.27-.685-3.352-.16-.461-.353-.911-.545-1.36.224.043.438.096.674.128.171.022.342.043.513.022.514-.033 1.081-.118 1.509-.429.418-.289.782-.621.996-1.092.225-.493.342-.986.353-1.532 0-.439-.054-.889-.139-1.317-.182-.953-.546-1.864-.931-2.742a25.385 25.385 0 0 0-2.579-4.616c-.653-.932-1.424-1.799-2.194-2.635a74.974 74.974 0 0 0-3.393-3.512c-2.387-2.314-4.902-4.477-7.449-6.598-10.199-8.45-21.425-15.969-29.676-26.497.01.011.021.033.032.043-.011-.021-.022-.032-.043-.053a.342.342 0 0 1-.054-.075c-.01-.022-.032-.032-.043-.054.011.011.022.032.033.043-.204-.268-.396-.535-.589-.803.931.3 1.873.503 2.847.557.481.032.984.021 1.455-.043.514-.075 1.017-.171 1.509-.343a7.37 7.37 0 0 0 2.654-1.681 8.778 8.778 0 0 0 1.852-2.806c.556-1.328.92-2.721 1.123-4.156a29.05 29.05 0 0 0 .257-5.376c-.149-3.481-.931-6.887-2.087-10.175-.203-.589-.438-1.167-.663-1.756a1.72 1.72 0 0 0 .31-.204c4.377-3.855 4.656-10.303 3.874-15.679-.781-5.43-2.525-10.7-4.666-15.744a91.797 91.797 0 0 0-3.317-7.037c-.953-1.81-1.948-3.609-3.072-5.323-.021-.032-.064-.053-.096-.085.706-1.371 1.295-2.796 1.68-4.284.46-1.757.696-3.652.428-5.462-.267-1.821-.888-3.599-2.012-5.088-.631-.835-1.359-1.617-2.183-2.259-.674-.536-1.402-.996-2.14-1.436.064-.192.149-.374.203-.567.374-1.232.621-2.496.738-3.77.107-1.093.129-2.196.011-3.288-.128-1.253-.332-2.506-.706-3.706a20.126 20.126 0 0 0-1.349-3.299 21.55 21.55 0 0 0-2.215-3.341c-.76-.943-1.573-1.874-2.526-2.635-.514-.407-1.027-.824-1.594-1.156a9.83 9.83 0 0 0-1.434-.675c-.835-.321-1.734-.525-2.633-.536h-.15c-1.113 0-2.194.247-3.243.622-.535-3.695-1.327-7.348-2.429-10.903-1.252-4.038-2.847-7.947-4.709-11.739-2.965-5.986-6.625-11.631-10.831-16.825-4.28-5.291-9.054-10.196-14.308-14.523-5.137-4.23-10.702-8.011-16.631-11.063a79.403 79.403 0 0 0-4.335-2.078c-1.594-.707-3.2-1.392-4.773-2.164-2.675-1.317-5.287-2.784-7.759-4.466-3.232-2.249-6.25-4.82-9.225-7.39-2.633-2.28-5.276-4.744-8.647-5.858a8.255 8.255 0 0 0-2.612-.45c-1.252 0-2.472.354-3.403 1.275-1.509 1.488-1.605 3.812-1.166 5.762.299 1.36.856 2.645 1.541 3.866a46.39 46.39 0 0 0-1.317-.868c-2.236-1.435-4.602-2.688-7.138-3.491-1.22-.396-2.472-.675-3.756-.728-.15-.011-.289-.011-.428-.011-.974 0-1.948.15-2.837.546-1.177.525-2.333 1.307-3.071 2.378a3.588 3.588 0 0 0-.524 2.795c.235 1.018.845 1.896 1.53 2.656.514.568 1.07 1.082 1.669 1.553a20.774 20.774 0 0 0-3.628-.471c-.963-.032-1.969.021-2.9.321-.428.14-.867.322-1.231.589a3.891 3.891 0 0 0-.941.975c-.503.728-.696 1.714-.471 2.581.214.846.813 1.574 1.52 2.067.877.632 1.84 1.071 2.857 1.425 1.07.374 2.162.653 3.275.878.192.032.374.053.567.085-3.253.739-6.464 1.671-9.568 2.903-5.779 2.313-11.226 5.516-15.882 9.65a56.313 56.313 0 0 0-3.542 3.416c-1.188 1.253-2.365 2.528-3.435 3.899a44.817 44.817 0 0 0-5.523 9.167c-2.932 6.555-4.494 13.613-5.714 20.66-.664 3.824-1.306 7.658-1.831 11.492-.278 2.035-.545 4.07-.727 6.115a84.752 84.752 0 0 0-.236 3.321 37.5 37.5 0 0 0-.053 1.906c-.011 0-.022-.011-.043-.011-.599-.139-1.242-.246-1.852-.193-.642.054-1.252.183-1.84.45a5.367 5.367 0 0 0-1.466.964 8.454 8.454 0 0 0-1.477 1.8c-.514.835-.964 1.735-1.263 2.666a11.432 11.432 0 0 0-.353 5.505c.192 1.061.503 2.078.899 3.063a18.4 18.4 0 0 0-2.259 1.703c-.684.6-1.337 1.232-1.905 1.939a15.974 15.974 0 0 0-1.53 2.238 15.943 15.943 0 0 0-.995 2.239c-1.21 3.384-1.177 7.143-.321 10.613l.096.343c-1.402.985-2.686 2.121-3.788 3.427-3.093 3.652-4.956 8.204-5.833 12.895-.974 5.184-.921 10.464-.193 15.68.717 5.066 2.098 10.078 4.302 14.705.964 2.045 2.098 4.016 3.468 5.815.663.868 1.359 1.714 2.14 2.496.129.128.279.246.407.374a72.783 72.783 0 0 0-.61 3.995 55.497 55.497 0 0 0-.396 5.827c-.011 1.37.043 2.741.193 4.101-.6-.085-1.188-.149-1.788-.149-.513 0-1.027.032-1.541.107-1.252.171-2.483.621-3.596 1.221a18.329 18.329 0 0 0-3.232 2.27c-1.016.889-1.937 1.864-2.729 2.967-.096.332-.128.867-.021 1.253Zm13.934-75.163a22.955 22.955 0 0 0 1.616 3.438c-.021.042-.053.085-.075.139-1.873 5.901-3.125 12.017-3.596 18.196a78.603 78.603 0 0 0 .685 17.929 81.979 81.979 0 0 0 2.141 9.746c-.097.386-.182.771-.268 1.157-.139-.172-.3-.332-.439-.504.011 0 .011.011.022.022-1.895-2.485-3.404-5.248-4.645-8.108V262.75c0-.011-.011-.022-.011-.022 0 .011 0 .011.011.022 0-.011-.011-.022-.011-.043l-.096-.225.064.139a53.898 53.898 0 0 1-3.585-13.227c-.546-4.134-.631-8.353-.086-12.498.386-2.731 1.049-5.409 2.109-7.958a23.16 23.16 0 0 1 2.729-4.744 19.085 19.085 0 0 1 3.168-3.203c.064-.096.171-.16.267-.235Zm6.282 33.661c-1.584 3.492-2.986 7.09-4.131 10.753a77.337 77.337 0 0 1-2.022-15.208 77.248 77.248 0 0 1 2.022-19.824c.3-1.221.632-2.431.996-3.642a29.358 29.358 0 0 0 2.333 2.828c2.996 3.223 6.549 5.869 10.263 8.214.16.097.321.193.471.29-.246.299-.471.599-.707.91a64.867 64.867 0 0 0-1.23 1.66 69.079 69.079 0 0 0-2.216 3.309 86.186 86.186 0 0 0-5.779 10.71Zm157.182-77.369-.022-.118c.043.257.075.514.118.771-1.573.943-3.061 2.046-4.538 3.149-4.034 2.967-8.133 5.837-12.339 8.557-8.016 5.184-16.385 9.832-25.182 13.57.043-.011.075-.032.118-.043-4.634 1.949-9.365 3.642-14.191 5.023a103.834 103.834 0 0 1-14.33 2.999l.074-.011c-8.593 1.125-17.305 1.061-25.899-.096.011 0 .033 0 .043.011a103.057 103.057 0 0 1-11.098-2.164c-1.916-.482-3.831-1.007-5.715-1.628a72.287 72.287 0 0 1-5.329-1.981c-8.177-3.502-15.583-8.515-22.603-13.934.01.011.032.022.053.032-1.166-.91-2.311-1.831-3.499-2.699-.824-.599-1.67-1.189-2.558-1.692 0-.011 0-.011.011-.021.128-1.307.182-2.614.256-3.92v.075c0-.043.011-.086.011-.129 0-.085.011-.171.022-.257v.075c.224-3.256.524-6.501.941-9.735.396-3.138.899-6.244 1.413-9.361.931-5.687 1.969-11.395 3.789-16.879 1.284-3.77 2.911-7.401 5.083-10.742 2.408-3.62 5.383-6.855 8.605-9.768a50.811 50.811 0 0 1 5.211-4.112 50.615 50.615 0 0 1 5.64-3.331c4.763-2.378 9.868-3.984 15.08-5.055.192-.032.385-.065.567-.107.653.085 1.316.16 1.98.182.503.01.909-.482.888-.964-.021-.536-.46-.878-.963-.889s-1.017-.032-1.531-.075c-2.183-.204-4.377-.621-6.453-1.328-.792-.289-1.584-.632-2.29-1.103a5.107 5.107 0 0 1-.674-.589 3.82 3.82 0 0 1-.268-.407c-.032-.097-.064-.193-.086-.279-.01-.096-.01-.203-.01-.3.021-.128.053-.257.085-.385.054-.129.118-.257.193-.375a1.65 1.65 0 0 1 .257-.289c.15-.118.31-.225.492-.311a5.616 5.616 0 0 1 1.028-.31c.824-.118 1.669-.108 2.504-.043 2.579.246 5.105.964 7.534 1.82a27.99 27.99 0 0 1 1.991.772c.192.096.385.182.578.278.438.203.974.054 1.198-.386a.898.898 0 0 0-.385-1.199 16.345 16.345 0 0 0-.974-.461c-1.702-.824-3.36-1.735-4.934-2.795.011.011.022.011.033.021-1.017-.706-2.002-1.478-2.826-2.42a6.68 6.68 0 0 1-.76-1.146 4.481 4.481 0 0 1-.214-.664c-.021-.15-.032-.3-.021-.46.021-.161.053-.322.107-.483.064-.16.15-.31.246-.46.214-.279.45-.535.717-.771a8.384 8.384 0 0 1 1.531-.964c.395-.171.813-.29 1.23-.375a8.365 8.365 0 0 1 1.937-.043c1.22.129 2.408.45 3.564.857 2.579.953 4.998 2.313 7.267 3.856 1.391.964 2.74 2.013 3.949 3.213.3.289.813.246 1.092-.065a.651.651 0 0 0 .16-.321c.182-.31.107-.675-.139-.942-.203-.225-.396-.45-.589-.675-1.059-1.285-2.012-2.667-2.729-4.166-.396-.89-.706-1.8-.888-2.753-.086-.546-.118-1.081-.086-1.628.043-.375.107-.739.225-1.103.096-.246.203-.471.343-.696a3.69 3.69 0 0 1 .471-.535c.171-.129.353-.236.535-.343.224-.097.449-.16.685-.214a5.524 5.524 0 0 1 1.113-.033 7.604 7.604 0 0 1 1.551.365c1.028.385 1.991.92 2.901 1.531-.032-.021-.075-.043-.107-.075.032.022.075.054.107.075h.01-.01s.01 0 .01.01c1.627 1.158 3.04 2.528 4.484 3.889 1.306 1.22 2.612 2.442 3.939 3.63 2.162 1.95 4.388 3.834 6.764 5.537 1.262.9 2.536 1.778 3.863 2.582a61.7 61.7 0 0 0 4.259 2.356c1.531.782 3.104 1.467 4.645 2.217 1.445.707 2.879 1.446 4.281 2.217a101.033 101.033 0 0 1 8.091 4.991 101.884 101.884 0 0 1 19.542 17.682c5.073 6.051 9.428 12.702 12.8 19.846 1.423 3.084 2.675 6.244 3.692 9.489.984 3.138 1.723 6.34 2.301 9.585 0-.01 0-.032-.011-.043 0 .033.011.054.011.075 0 .118.01.215.032.311Zm21.811 32.698c-.129 1.264-.428 2.495-.846 3.705-.685 1.832-1.616 3.556-2.707 5.184-1.103 1.574-2.344 3.01-3.682 4.391a75.043 75.043 0 0 1-4.73 4.488c-5.758 4.937-12.243 8.964-19.061 12.263.022-.011.032-.022.054-.022-11.28 5.388-23.384 8.825-35.649 11.096-6.946 1.264-13.977 2.206-21.019 2.699-7.951.557-15.946.535-23.887-.118-11.633-1.017-23.106-3.438-34.097-7.358-5.008-1.81-9.878-3.941-14.629-6.34-3.586-1.799-7.107-3.759-10.435-6.019-2.911-2.014-5.661-4.263-7.994-6.93-1.231-1.456-2.301-3.02-3.158-4.723a18.452 18.452 0 0 1-1.402-4.241 22.674 22.674 0 0 1-.203-5.109c.139-1.467.428-2.902.899-4.305a18.308 18.308 0 0 1 1.798-3.534c.417-.589.867-1.168 1.349-1.714.428-.471.899-.91 1.359-1.339.941 1.81 2.108 3.535 3.264 5.195.192.267.407.482.738.567.321.086.675.043.963-.117.546-.322.825-1.146.45-1.703-1.541-2.228-3.072-4.466-4.163-6.962a14.363 14.363 0 0 1-.91-3.266 11.781 11.781 0 0 1-.011-2.292c.14-.857.364-1.682.685-2.485.3-.664.643-1.296 1.071-1.896.256-.31.535-.6.834-.857a4.93 4.93 0 0 1 .76-.449 4.52 4.52 0 0 1 .771-.215 5.853 5.853 0 0 1 1.059 0 8.024 8.024 0 0 1 1.659.482c1.819.793 3.425 1.992 4.987 3.192 1.349 1.049 2.687 2.099 4.035 3.127 1.605 1.21 3.221 2.41 4.869 3.567 3.297 2.302 6.679 4.476 10.232 6.361 3.574 1.896 7.309 3.545 11.151 4.82 3.917 1.296 7.941 2.313 11.987 3.117 9.439 1.885 19.113 2.527 28.713 1.66a108.074 108.074 0 0 0 27.055-6.019c9.001-3.256 17.616-7.508 25.824-12.403a217.599 217.599 0 0 0 12.543-8.096c2.023-1.403 4.013-2.849 6.025-4.284 1.606-1.157 3.243-2.314 5.052-3.128a10.46 10.46 0 0 1 1.873-.546 6.297 6.297 0 0 1 1.273 0c.385.075.76.182 1.124.321a8.695 8.695 0 0 1 1.541.932 17.33 17.33 0 0 1 2.429 2.506 20.67 20.67 0 0 1 2.387 3.995 18.394 18.394 0 0 1 1.049 3.77c.16 1.36.15 2.71 0 4.081a20.116 20.116 0 0 1-1.199 4.326 23.76 23.76 0 0 1-2.761 4.734c-1.959 2.485-4.281 4.67-6.774 6.608a61.605 61.605 0 0 1-5.929 3.963 101.734 101.734 0 0 1-6.186 3.374 208.49 208.49 0 0 1-6.025 2.859c-2.173.986-4.346 1.982-6.539 2.913l.053-.021c-2.9 1.21-5.811 2.378-8.786 3.395-2.826.964-5.683 1.885-8.562 2.667-5.833 1.585-11.772 2.827-17.766 3.631.022 0 .054-.011.075-.011-4.709.621-9.45 1.007-14.212 1.146-.417.011-.417.653 0 .642 4.527-.128 9.065-.417 13.57-.942 5.223-.61 10.413-1.435 15.54-2.624a188.57 188.57 0 0 0 7.727-1.992 148.327 148.327 0 0 0 7.673-2.42c2.569-.879 5.116-1.81 7.631-2.828a262.28 262.28 0 0 0 5.682-2.367c1.916-.825 3.832-1.66 5.726-2.538 1.969-.921 3.949-1.874 5.854-2.924s3.799-2.142 5.608-3.363c1.777-1.189 3.521-2.463 5.116-3.909a28.39 28.39 0 0 0 4.109-4.595c.685-.964 1.317-1.97 1.841-3.031.128-.257.235-.514.353-.771.268.161.535.3.792.471a13.247 13.247 0 0 1 2.044 1.821c.492.6.921 1.232 1.274 1.928.31.685.535 1.403.695 2.142.118.921.15 1.789.097 2.667Zm-5.555 72.346c-1.477-1.049-2.846-2.227-4.163-3.47a63.762 63.762 0 0 1-4.463-4.691c-4.398-5.194-8.048-10.999-11.023-17.104a97.882 97.882 0 0 1-3.039-7.058 97.637 97.637 0 0 1-1.274-3.523c-.396-1.146-.749-2.303-1.134-3.46-.011-.043-.043-.075-.064-.118 3.531-1.681 6.988-3.534 10.295-5.633 4.045-2.57 7.887-5.462 11.419-8.707 1.745-1.596 3.425-3.267 4.977-5.045a32.4 32.4 0 0 0 2.846-3.759 84.842 84.842 0 0 1 4.763 8.579 78.868 78.868 0 0 1 3.307 7.915c.963 2.72 1.776 5.494 2.322 8.332 0-.021-.011-.043-.011-.075.461 2.528.717 5.109.514 7.679-.128 1.296-.364 2.581-.803 3.813a11.446 11.446 0 0 1-1.252 2.442c-.364.503-.781.964-1.23 1.392-2.216-5.248-5.03-10.239-7.042-15.572a.58.58 0 0 0-.717-.364.58.58 0 0 0-.364.728c.76 2.024 1.616 4.005 2.493 5.987.878 1.96 1.798 3.909 2.654 5.88a85.456 85.456 0 0 1 2.366 5.944 40.942 40.942 0 0 1 1.648 6.158c.428 2.495.567 5.044.364 7.572-.161 1.639-.45 3.267-.996 4.819a10.783 10.783 0 0 1-1.07 2.1 7.737 7.737 0 0 1-.92 1.038c-.3.236-.61.45-.942.622a6.484 6.484 0 0 1-1.167.385 7.433 7.433 0 0 1-1.551.064 11.418 11.418 0 0 1-2.451-.578c-1.531-.567-2.954-1.381-4.292-2.292Zm-60.873 42.166.021-.247.321-.096a102.825 102.825 0 0 0 11.837-4.423 81.137 81.137 0 0 1-2.43 6.886l.086-.342c-1.295 3.052-2.568 5.355-4.003 7.24a12.421 12.421 0 0 1-1.68 1.745c-.342.247-.685.45-1.006.6a6.154 6.154 0 0 1-1.038.289c-.107.011-.214.011-.332.011-.075 0-.16 0-.235-.011a2.604 2.604 0 0 1-.278-.075 1.183 1.183 0 0 1-.257-.15 2.247 2.247 0 0 1-.278-.289 5.55 5.55 0 0 1-.375-.653c-.236-.621-.407-1.296-.535-2.121-.321-2.763-.064-5.59.182-8.364Zm-60.809.428c2.119.578 4.248 1.093 6.399 1.542.493.107.974.182 1.467.279a25.704 25.704 0 0 1-1.702 2.581 11.96 11.96 0 0 1-1.68 1.746 7.529 7.529 0 0 1-1.006.61c-.386.139-.717.236-1.049.279-.107.01-.214.01-.321.01-.086 0-.161 0-.236-.01a1.212 1.212 0 0 1-.278-.075c-.085-.043-.171-.086-.257-.15l-.278-.279a5.018 5.018 0 0 1-.375-.664c-.235-.621-.406-1.296-.535-2.12-.16-1.232-.182-2.496-.149-3.749Zm-11.773-7.711c-.332-.857-.653-1.714-.899-2.603a29.522 29.522 0 0 1-.728-3.438 19.86 19.86 0 0 1-.139-1.574c0-.032-.021-.064-.021-.096a19.92 19.92 0 0 0 3.029-1.66l.224-.161c.3.835.643 1.671 1.039 2.463.481.964 1.016 1.907 1.658 2.785.675.899 1.381 1.799 2.184 2.592a20.008 20.008 0 0 0 2.643 2.206c.353.257.888.278 1.295.171a1.73 1.73 0 0 0 1.006-.771c.471-.814.171-1.81-.61-2.313a24.781 24.781 0 0 1-1.541-1.06 19.007 19.007 0 0 1-3.093-3.053c-.749-.996-1.402-2.045-1.916-3.191a21.534 21.534 0 0 1-.503-1.382c-.01-.043-.043-.086-.064-.129 1.038-.942 2.001-1.97 2.804-3.127a16.952 16.952 0 0 0 1.702-2.999 42.606 42.606 0 0 0 2.054-5.783c2.205-8.065 2.494-16.462 3.575-24.719 0 .021-.011.043-.011.075 0-.032.011-.064.011-.096 0-.033.011-.065.011-.097s.01-.064.01-.107v.043c.653-4.702 1.595-9.371 3.361-13.784 4.42.718 8.872 1.232 13.345 1.532 5.747.374 11.505.428 17.252.139 5.298-.268 10.574-.803 15.818-1.542 9.632-1.35 19.189-3.331 28.467-6.244 4.666-1.478 9.268-3.17 13.742-5.173.107-.043.214-.097.321-.15a37 37 0 0 0 .845 4.037 48.649 48.649 0 0 0 1.424 4.381c1.113 2.956 2.461 5.826 3.97 8.6 3.018 5.494 6.646 10.624 10.766 15.348a78.061 78.061 0 0 0 3.521 3.759c1.081 1.082 2.205 2.153 3.393 3.116a29.044 29.044 0 0 0 3.403 2.41c.3.182.621.332.931.493a68.557 68.557 0 0 0 6.24 8.022c2.622 2.891 5.458 5.601 8.358 8.214 5.009 4.52 10.263 8.74 15.336 13.163 2.515 2.185 4.987 4.413 7.363 6.747a105.731 105.731 0 0 1 3.414 3.513 69.735 69.735 0 0 1 1.691 1.874c.31.354.631.718.931 1.082.482.643.899 1.339 1.295 2.035.503.889.953 1.789 1.348 2.731.289.718.525 1.457.653 2.217.011.097.011.193.011.289h-.086c-.631-.118-1.23-.332-1.84-.546-.354-.128-.814-.032-1.124.15-.203.118-.364.3-.492.493a.936.936 0 0 0-.247.857c.022.364.172.706.418.963.267.536.546 1.061.77 1.618.461 1.135.835 2.302 1.006 3.512.043.472.054.943.011 1.404a4.46 4.46 0 0 1-.171.674 3.974 3.974 0 0 1-.203.364 4.912 4.912 0 0 1-.247.257c-.117.075-.235.15-.363.204a4.648 4.648 0 0 1-.514.128c-.3.022-.61.011-.91-.01-.803-.129-1.562-.364-2.322-.654-2.462-1.028-4.709-2.549-6.85-4.144a.26.26 0 0 1 .086.075c-.032-.033-.075-.054-.107-.086-.053-.043-.107-.075-.15-.118l.118.086c-7.406-5.623-13.538-12.734-19.221-20.049-.878-1.136-1.734-2.271-2.601-3.396-.192-.257-.385-.46-.717-.546a.921.921 0 0 0-.299-.043 1.16 1.16 0 0 0-.589.161c-.524.3-.792 1.082-.428 1.607 2.836 4.091 5.854 8.064 9.107 11.834 3.265 3.792 6.775 7.39 10.703 10.517a57.91 57.91 0 0 0 4.462 3.246c.578.385 1.178.749 1.766 1.103 0 .053-.011.096 0 .15l.064.546c.022.428.011.857-.053 1.285a2.947 2.947 0 0 1-.171.546 1.8 1.8 0 0 1-.193.3 2.876 2.876 0 0 1-.182.172c-.096.053-.193.107-.289.139-.16.043-.321.075-.492.096a5.677 5.677 0 0 1-1.124-.085c-.974-.215-1.905-.579-2.815-.997-1.519-.738-2.964-1.638-4.355-2.602-1.06-.739-2.119-1.499-3.104-2.324-.835-.728-1.616-1.521-2.386-2.324a83.369 83.369 0 0 1-3.457-3.813 104.514 104.514 0 0 1-6.24-8.161l.011.011c-1.744-2.549-3.392-5.141-5.062-7.744-.193-.3-.396-.535-.749-.642a1.294 1.294 0 0 0-.985.075c-.631.321-.877 1.113-.567 1.745a83.834 83.834 0 0 0 3.682 6.651 82.847 82.847 0 0 0 4.259 6.287 64.682 64.682 0 0 0 2.001 2.528 1.479 1.479 0 0 0-.15.889c.075.492.129.996.172 1.499.021.514.021 1.039-.054 1.553a4.162 4.162 0 0 1-.15.525c-.032.064-.075.118-.107.182a.572.572 0 0 1-.085.075c-.022.011-.043.021-.075.043-.054.01-.118.021-.171.032-.129 0-.257-.011-.386-.022a5.276 5.276 0 0 1-.984-.332c-1.124-.557-2.141-1.317-3.093-2.12-1.702-1.435-3.275-3.042-4.73-4.734-.664-.771-1.274-1.585-1.873-2.41a254.894 254.894 0 0 1-3.928-5.516c-3.393-4.915-6.614-9.949-9.578-15.133-2.729-4.766-5.244-9.65-7.46-14.683a85.341 85.341 0 0 0 4.056-5.141 1.303 1.303 0 0 0-.289-1.789 1.23 1.23 0 0 0-.727-.235 1.42 1.42 0 0 0-1.071.524c-1.369 1.703-2.782 3.385-4.27 4.991l.107-.107-.182.193-.032.032v-.011c0 .011-.01.022-.021.022a95.73 95.73 0 0 1-8.241 7.775 91.416 91.416 0 0 1-9.225 6.737l.064-.032c-.053.032-.107.075-.171.107.032-.021.075-.043.107-.075-.053.032-.107.064-.16.107a.703.703 0 0 1-.118.075l.043-.032c-7.01 4.37-14.587 7.754-22.475 10.217-9.129 2.764-18.611 4.274-28.125 4.574-9.621.246-19.264-.729-28.639-2.956a98.066 98.066 0 0 1-15.657-5.109Zm-9.674-4.841c.01-.257.032-.525.053-.782 1.52-.171 3.018-.45 4.484-.867.418-.118.835-.257 1.252-.407a39.07 39.07 0 0 0 .685 5.462 84.738 84.738 0 0 1-3.82-1.896 80.33 80.33 0 0 1-2.654-1.51Zm-33.894-28.917c.043-1.864.203-3.738.428-5.591.878-6.33 2.761-12.488 5.201-18.389a101.54 101.54 0 0 1 5.298-10.71 126.166 126.166 0 0 1 2.943-4.884c.492-.782.995-1.553 1.509-2.335.364-.557.738-1.124 1.102-1.692a123.139 123.139 0 0 0 7.813 4.102 131.854 131.854 0 0 0 16.064 6.501c5.971 1.971 12.082 3.481 18.268 4.584-1.477 3.727-2.504 7.604-3.189 11.567-.792 4.552-1.252 9.146-1.862 13.719-.76 5.602-1.755 11.192-3.907 16.44-.685 1.596-1.455 3.117-2.504 4.499a18.763 18.763 0 0 1-2.718 2.731 19.536 19.536 0 0 1-3.949 2.324c-2.023.835-4.142 1.371-6.304 1.681-2.814.332-5.651.279-8.465-.075.085.011.171.022.267.043-.096-.011-.192-.032-.299-.043-.064-.01-.129-.01-.193-.021l.182.021a41.151 41.151 0 0 1-10.006-2.763c-2.612-1.135-5.095-2.538-7.363-4.252a26.741 26.741 0 0 1-4.634-4.573 21.147 21.147 0 0 1-2.441-4.145 18.049 18.049 0 0 1-1.123-4.102c-.15-1.542-.161-3.095-.118-4.637Z"/><path fill="#121931" d="M301.788 182.8c0-.065.011-.118.011-.183 0 .075-.011.161-.022.237.011-.011.011-.033.011-.054ZM448.375 176.727v.032c.01.064.021.118.032.183a.702.702 0 0 0-.032-.215ZM426.211 310.26c-.022.01-.043.032-.075.043.021-.011.053-.033.085-.054 0 .011-.01.011-.01.011ZM469.008 287.908a.223.223 0 0 0 .043.053c-.011-.01-.021-.032-.032-.043l-.011-.01ZM469.051 287.961c.011.011.022.022.032.043v-.01l-.032-.033ZM499.006 341.04c-.011-.011-.021-.021-.043-.032a.17.17 0 0 1 .053.043s-.01 0-.01-.011Z"/><path fill="#312628" d="M280.394 262.717c0-.01-.01-.01-.01-.021.01.011.01.021.01.021Z"/><path fill="#121931" d="M385.66 181.011c2.173-.032 3.896-3.685 3.832-8.151s-1.873-8.075-4.035-8.054c-2.172.032-3.895 3.685-3.831 8.151.053 4.477 1.862 8.086 4.034 8.054ZM326.596 178.654c2.097-.032 3.756-3.555 3.702-7.871-.053-4.317-1.797-7.808-3.906-7.776-2.097.032-3.756 3.556-3.703 7.872.054 4.316 1.809 7.808 3.907 7.775ZM341.685 174.071a6.367 6.367 0 0 1 1.584-1.95c.6-.503 1.327-.942 2.248-1.328.76-.321 1.637-.589 2.772-.835 1.402-.3 2.964-.439 4.805-.439h.631c1.82.021 3.671.214 5.501.567 1.777.343 3.307.782 4.666 1.361.385.16.76.353 1.124.557.075.032.15.032.214.064a7.93 7.93 0 0 1 1.102.589c.321.203.621.45.91.685.128.107.235.225.353.332.032.032.075.054.107.075.385.311.749.664 1.092 1.028.053.065.075.14.085.225.043.043.086.086.118.129.096.096.096.246.032.364.032.161.022.321-.085.461a.51.51 0 0 1-.097.224c-.92 1.254-2.151 2.442-3.852 3.749-1.617 1.242-3.479 2.388-5.523 3.406-2.044 1.017-4.12 1.756-6.186 2.206a17.126 17.126 0 0 1-2.985.375c-.15 0-.289.011-.429.011a10.73 10.73 0 0 1-2.407-.257 11.361 11.361 0 0 1-1.317-.407 8.484 8.484 0 0 1-1.295-.675c-.728-.461-1.423-1.125-2.012-1.917-.578-.804-1.038-1.767-1.348-2.849-.343-1.189-.493-2.281-.45-3.331a5.715 5.715 0 0 1 .642-2.42ZM548.214 440.687c-12.542-5.58-32.277-15.262-53.168-25.512-25.235-12.38-53.842-26.421-75.77-36.167-27.312-12.135-34.183-13.12-36.976-12.81-5.822.654-12.917 1.039-20.43 1.457-23.898 1.307-53.639 2.934-74.187 14.223-26.178 14.373-46.223 11.149-58.434 5.901l-.31-.128-.342.032c-14.941 1.189-25.857 4.402-32.438 9.564-8.166 6.404-22.068 9.746-39.17 9.414l-.054-.461c3.853-.396 16.278-1.97 26.863-6.49l1.787-.76-1.616-1.05c-4.206-2.742-8.894-5.259-13.924-7.497-6.089-2.699-11.408-4.402-13.741-5.044l.021-1.05c3.072.257 11.548 1.328 21.18 5.612a63.706 63.706 0 0 1 11.258 6.426l.717.525.75-.461a38.262 38.262 0 0 0 2.985-2.056c6.079-4.755 15.283-8.022 27.344-9.714l2.483-.343-1.894-1.488c-5.619-4.424-11.398-10.732-16.995-16.837-4.431-4.83-9.011-9.831-13.624-14.04-3.917-3.578-9.749-7.144-16.866-10.304-16.952-7.529-38.988-12.113-57.503-11.941-6.902.064-13.174-1.136-18.643-3.567-10.509-4.669-16.438-12.959-21.2-19.621-1.028-1.435-1.991-2.773-2.911-3.973-6.176-7.936-6.336-11.096-5.908-11.578.096-.107.642-.16 1.648.15.696.675 1.99 2.078 3.607 3.802 7.523 8.076 21.522 23.123 30.972 27.322 1.07.482 2.087.814 3.114 1.007a4088.25 4088.25 0 0 0 21.65 2.238c22.047 2.228 44.853 4.53 56.101 6.919 1.091.235 2.279.632 3.521 1.178 7.63 3.395 16.128 11.867 23.619 19.342 5.565 5.548 10.37 10.346 13.72 11.835.685.3 1.306.471 1.884.525l.578.042.396-.364c2.033-1.885 1.006-7.69.642-9.425-2.076-9.928-9.183-22.705-22.871-28.788l-1.134-.493c-13.827-6.148-16.16-15.155-18.868-25.597-1.124-4.348-2.29-8.846-4.388-13.323-1.509-3.235-2.911-6.898-4.398-10.785-1.862-4.863-3.789-9.896-6.133-14.63l-.192-.364-.396-.182c-18.59-8.258-45.933-10.378-52.601-10.796l.129-3.845c5.8.332 27.836 1.928 46.543 8.193l3.403 1.146-1.98-2.699c-4.473-6.094-9.589-9.703-15.678-11.053-2.654-.599-5.062-1.371-7.16-2.302-7.267-3.235-9.14-7.465-9.61-9.704-.525-2.538.203-5.023 1.958-6.651 5.897-5.462 3.136-24.14-5.469-36.992-5.372-8.022-4.313-9.479-4.313-9.479.086-.042.675-.096 1.927.472.877.385 1.894.985 2.953 1.735 9.076 11.385 16.514 34.004 11.709 41.705-.878 1.413-1.092 2.795-.61 4.102 1.22 3.373 6.667 5.655 13.709 8.6 1.841.771 3.778 1.574 5.747 2.442 4.249 1.895 9.707 4.541 14.17 8.225 9.021 7.465 11.804 19.782 14.49 31.691 1.349 5.934 2.611 11.535 4.613 16.301 3.97 9.489 12.981 15.454 22.506 21.763 4.966 3.298 10.124 6.704 14.491 10.667 7.588 6.865 8.198 20.178 8.69 30.866.31 6.737.578 12.552 2.376 16.098l.588 1.156 1.188-.685c9.236-5.312 33.584-8.868 59.376-12.627 23.576-3.438 47.945-7.005 62.992-12.338 7.267-4.156 93.536 32.376 145.077 54.203 14.684 6.223 26.841 11.364 36.398 15.316v-2.335c-10.081-4.177-22.356-9.371-35.392-14.898-78.788-33.362-139.662-58.53-147.228-54.171-14.608 5.162-38.849 8.696-62.297 12.123-24.947 3.642-48.577 7.09-59.001 12.253-1.177-3.331-1.412-8.6-1.669-14.148-.514-11.053-1.145-24.815-9.397-32.291-4.505-4.081-9.728-7.54-14.779-10.892-9.236-6.116-17.948-11.899-21.672-20.778-1.926-4.605-3.178-10.131-4.495-15.979-2.643-11.674-5.629-24.901-15.229-32.848-4.687-3.888-10.338-6.629-14.747-8.589-1.98-.879-3.939-1.693-5.79-2.464-1.67-.696-3.254-1.36-4.72-2.013-3.414-1.51-6.999-3.331-7.695-5.28-.267-.75-.128-1.542.439-2.442 5.662-9.072-3.189-33.169-11.965-44.083l-.235-.214c-1.242-.889-2.462-1.606-3.532-2.088-2.697-1.2-4.077-.686-4.762-.054-1.06 1.007-1.809 3.331 4.002 12.017 8.476 12.659 10.446 30.138 5.79 34.465-2.279 2.11-3.232 5.28-2.568 8.482.556 2.635 2.707 7.594 10.927 11.246 2.268 1.006 4.848 1.842 7.662 2.463 4.527 1.017 8.487 3.449 12.029 7.433-20.023-5.987-42.284-7.144-44.895-7.251l-1.209-.053-.236 7.025.032 1.061 1.188.064c3.318.171 32.738 1.885 52.387 10.464 2.215 4.541 4.078 9.403 5.876 14.094 1.498 3.92 2.921 7.626 4.462 10.914 2.023 4.316 3.157 8.728 4.26 12.991 2.729 10.517 5.297 20.445 20.162 27.053l1.124.493c12.875 5.719 19.585 17.822 21.554 27.236.803 3.823.578 6.115.236 7.101-.097-.033-.193-.075-.3-.118-2.932-1.296-7.813-6.18-12.982-11.331-7.652-7.626-16.31-16.269-24.368-19.846-1.402-.621-2.761-1.082-4.046-1.35-11.397-2.409-34.268-4.734-56.389-6.961-7.47-.761-14.854-1.5-21.522-2.217-.717-.139-1.53-.407-2.419-.803-8.99-3.995-23.298-19.364-30.18-26.754-1.872-2.014-3.232-3.47-3.916-4.102l-.193-.171-.257-.086c-2.708-.932-4.035-.289-4.655.418-2.27 2.527 1.915 9.06 5.822 14.083.91 1.178 1.851 2.496 2.857 3.909 4.666 6.523 11.055 15.455 22.185 20.403 5.812 2.592 12.458 3.866 19.767 3.802 18.151-.171 39.759 4.316 56.39 11.706 6.86 3.053 12.467 6.469 16.192 9.875 4.527 4.134 9.075 9.093 13.474 13.891 5.062 5.526 10.284 11.224 15.464 15.615-11.365 1.832-20.162 5.152-26.166 9.853-.6.472-1.274.943-2.044 1.446-3.382-2.367-7.075-4.434-10.981-6.169-12.329-5.483-22.956-5.901-23.395-5.922l-1.209-.043-.096 4.037-.257 1.061 1.231.032c.802.171 6.796 1.842 14.148 5.119 4.238 1.885 8.24 3.974 11.89 6.234-11.644 4.519-24.797 5.601-25.396 5.644l-1.188.096.535 4.52 1.156-.043c.096 0 .321 0 .663.011 17.851.385 32.46-3.149 41.128-9.939 6.154-4.82 16.492-7.851 30.748-9.018 12.789 5.398 33.572 8.632 60.456-6.137 20.034-11.01 49.443-12.616 73.074-13.912 7.555-.407 14.693-.804 20.59-1.468 3.832-.428 15.797 3.813 35.563 12.595 21.886 9.725 50.471 23.745 75.685 36.125 20.966 10.282 40.765 20.007 53.35 25.597.343.15.643.29.964.429v-2.399h.042Z"/><g style="animation:evFonu0gCEQ42_to__to 4000ms linear infinite normal forwards" transform="translate(135.448 298.478)"><g style="animation:evFonu0gCEQ42_tr__tr 4000ms linear infinite normal forwards"><path fill="#a832f3" d="M-17.971-28.66c-2.483 10.613-3.222 20.038-2.184 28.038 2.259 17.286 12.779 27.118 31.293 29.282 7.117-6.062 10.467-14.984 9.215-24.623C18.662-8.953 7.585-25.115-17.971-28.66Z"/></g></g><g style="animation:evFonu0gCEQ43_to__to 4000ms linear infinite normal forwards" transform="translate(133.552 407.804)"><g style="animation:evFonu0gCEQ43_tr__tr 4000ms linear infinite normal forwards"><path fill="#a832f3" d="M-30.523 7.543C-20.43 9.3-11.249 10.124-3.19 9.995c17.402-.289 28.735-5.066 33.712-14.2C25.642-8.052 17.347-10.162 7.64-10c-13.067.214-30.725 4.958-38.163 17.543Z"/></g></g><g style="animation:evFonu0gCEQ44_to__to 4000ms linear infinite normal forwards" transform="translate(98.914 243.464)"><g style="animation:evFonu0gCEQ44_tr__tr 4000ms linear infinite normal forwards"><path fill="#a832f3" d="M-30.72-5.326C-22.501 1.036-14.624 5.92-7.261 9.197c15.914 7.069 28.67 6.255 37.981-2.388C28.323.19 21.912-5.819 13.04-9.76c-11.943-5.323-30.415-7.251-43.76 4.434Z"/></g></g><g style="animation:evFonu0gCEQ45_tr__tr 4000ms linear infinite normal forwards" transform="translate(48.117 304.027)"><path fill="#a832f3" d="M-30.747 8c10.006 2.795 19.146 4.348 27.205 4.605 17.401.546 28.917-5.012 34.29-16.536-4.71-5.227-12.908-8.375-22.614-8.686C-4.944-13.045-22.774-7.851-30.747 8Z"/></g><g style="animation:evFonu0gCEQ46_tr__tr 4000ms linear infinite normal forwards" transform="translate(129.928 178.9)"><path fill="#cc9cf2" d="M-13.455-15.647c-.396 6.598.117 12.296 1.562 16.976C-8.778 11.418-1.49 16.227 9.79 15.616c3.638-4.348 4.719-10.025 2.986-15.658C10.442-7.625 2.18-16.14-13.455-15.647Z"/></g><g style="animation:evFonu0gCEQ47_to__to 4000ms linear infinite normal forwards" transform="translate(62.602 278.994)"><g style="animation:evFonu0gCEQ47_tr__tr 4000ms linear infinite normal forwards"><path fill="#cc9cf2" d="M-21.303-24.78c-.631 10.442.193 19.482 2.472 26.882 4.934 15.98 16.47 23.584 34.333 22.631 5.757-6.887 7.47-15.873 4.73-24.794C16.54-12.078 3.45-25.573-21.303-24.78Z"/></g></g><g style="animation:evFonu0gCEQ48_tr__tr 4000ms linear infinite normal forwards" transform="translate(141.243 363.577)"><path fill="#cc9cf2" d="M-20.952-24.368c-.62 10.271.193 19.16 2.43 26.432C-13.674 17.787-2.32 25.262 15.243 24.32c5.66-6.769 7.352-15.605 4.655-24.376-3.628-11.813-16.502-25.083-40.85-24.312Z"/></g></g></svg>